<?xml version="1.0" encoding="UTF-8"?><svg id="a" xmlns="http://www.w3.org/2000/svg" xmlns:xlink="http://www.w3.org/1999/xlink" viewBox="0 0 768 260"><defs><clipPath id="b"><polygon points="-146.86 325.71 4.57 -24.12 762.23 -24.04 944.21 325.71 -146.86 325.71" fill="none"/></clipPath></defs><g opacity=".02"><g clip-path="url(#b)"><g><g opacity=".1"><path d="M770.67-24.83l-427.01,.29L2.37-24.91-107.07,228.99l27.34-13.95L4.86,111.51l-29.81-10.86,28.03,4.51,8.62-6.26-30.95-6.95,6.46-7.03,26.85,6.46,11.2-12.83-28.29-6.47,5.57-5.11,25.05,8.05,9.76-9.36-12.74-2.31L60.04,9.27l14.97-1.74,51.4,13.02-25.87,41.57,10.63,16.44-26.26,54.63,102.9,58.54-2,12.62-73.08-19.16-52.19-26.46-28.58,40.82-57.6,45.62,15.85,72.62-90.03,1.98-35.73-24.84-15.65,36.44,1107.65,1.06L770.67-24.83ZM202.55,27.84l-19.85-18.92-30.5,3.7-19.22-3.71-3.48,3.71-29.07-7.38,189.09-28.25,16.52,1.77,46.15,.89,16.86,9.65L461.93,5.51l60.22-14.84L710.75,1.07l-80.15-.24-39.37,9.72-63.6-6.45-70.71,9.27L352.23-1.29l-86.3-8.06L245.61,1.49l14.6,8.75-22.58-.96-26.41-11.75-12,6.07,35.44,27.77-32.13-3.52Z" fill="#fff"/></g><path d="M140.45,70.95c3.01-.21,295.51-21.08,388.84-28.57,69.15-5.55,270.44-23.56,272.42-23.73l2.04,1.59c-1.99,.18-203.68,18.26-273.01,23.83-93.56,7.52-386.67,28.47-389.69,28.69l-.6-1.81Z" fill="#fff" stroke="#fff" stroke-miterlimit="10" stroke-width="2"/><path d="M131.25,24.59l.35-.23c.45-.29,43.7-28.15,55.71-37.2,13.7-10.31,47.28-40.56,47.6-40.86l4.21,.39c-.32,.29-33.8,30.62-47.52,40.99-11.47,8.67-51.13,34.39-55.35,37.12,1.27,5.6,26.06,116.16,23.04,160.6-1.99,29.34-34.91,127.12-37.11,133.63l7.2,12.87-6.48,1-7.45-13.46,.1-.3c.39-1.13,35.69-103.62,37.91-133.63,3.34-45.37-21.94-159.67-22.17-160.69l-.05-.24Z" fill="#fff" stroke="#fff" stroke-miterlimit="10" stroke-width="2"/><path d="M-369.78-29.82l3.11-1.32c1.83,.31,190.68,32.33,272.35,49.78C-12.4,36.15,137.87,73.3,217.05,93.81c56.46,14.63,151.72,40.24,240.18,64.02,61.48,16.53,121.46,32.65,165.8,44.4,74.95,19.86,320.64,83.55,323.27,84.23l-2.34,2.35c-2.63-.68-248.7-64.64-323.77-84.58-44.42-11.8-104.47-27.99-166.02-44.58-88.52-23.86-183.85-49.56-240.32-64.23C134.66,74.85-15.59,37.61-97.48,20.07-179.06,2.59-367.95-29.51-369.78-29.82Z" fill="#fff" stroke="#fff" stroke-miterlimit="10" stroke-width="2"/><polygon points="441.63 154.71 723.37 43.91 821.3 53.12 820.84 54.83 725.62 45.86 445.71 156.3 441.63 154.71" fill="#fff" stroke="#fff" stroke-miterlimit="10" stroke-width="2"/><polygon points="660.09 32.36 663.98 31.47 794.3 92 790.28 93.01 660.09 32.36" fill="#fff"/><polygon points="154.61 191.14 157.17 188.94 399.91 228.86 552.89 213.95 599.23 196.91 603.43 198.76 556.06 216.24 555.38 216.3 399.56 231.53 398.68 231.38 154.61 191.14" fill="#fff"/><polygon points="583.44 203.29 721.42 163.25 786.31 94.13 786.41 94.08 828.74 70.89 831.79 71.69 789.6 94.86 724.72 164.28 724.35 164.39 585.93 204.64 583.44 203.29" fill="#fff"/><polygon points="669.99 66.34 672.19 65.51 728.14 84.24 749.93 73.09 752.9 73.89 729.04 86.15 669.99 66.34" fill="#fff"/><polygon points="574.24 115.29 576.74 114.39 712.1 166.82 709.6 167.81 574.24 115.29" fill="#fff"/><polygon points="655.78 122.56 659.16 121.1 738.87 147.92 735.52 149.46 655.78 122.56" fill="#fff"/><polygon points="629 135.71 712.08 93.37 771.21 113.07 769.03 114 712.97 95.29 632.05 136.64 629 135.71" fill="#fff"/><polygon points="739.2 103.4 769.17 82.14 772.38 82.85 742.46 104.14 739.2 103.4" fill="#fff"/><polygon points="760.06 89.66 762.44 88.86 785.8 97.66 783.42 98.48 760.06 89.66" fill="#fff"/><polygon points="748.58 97.95 750.73 97.04 777.89 105.93 775.74 106.86 748.58 97.95" fill="#fff"/><polygon points="710.98 93.93 727.06 84.8 730.12 85.59 714.06 94.73 710.98 93.93" fill="#fff"/><polygon points="665.01 149.68 694.07 134.23 697.19 135.14 668.16 150.63 665.01 149.68" fill="#fff"/><polygon points="688.76 158.97 715.17 141.41 718.49 142.25 692.12 159.84 688.76 158.97" fill="#fff"/><polygon points="591.15 38.2 594.04 37.73 651.57 73.94 648.59 74.45 591.15 38.2" fill="#fff"/><polygon points="359.56 83.39 617.18 53.32 618.55 54.45 363.58 84.25 372.38 100.37 368.9 100.62 359.56 83.39" fill="#fff"/><polygon points="541.08 27.54 544.24 27.33 570.32 59.51 567.05 59.75 541.08 27.54" fill="#fff"/><polygon points="535.44 50.32 538.65 50.05 549.3 61.94 546.05 62.22 535.44 50.32" fill="#fff"/><polygon points="502.68 55.15 505.92 54.88 515.13 65.94 511.85 66.21 502.68 55.15" fill="#fff"/><polygon points="458.29 39.99 461.46 39.68 488.29 69.05 485.03 69.37 458.29 39.99" fill="#fff"/><polygon points="426.82 43.05 430 42.73 457.06 72.69 453.79 73.03 426.82 43.05" fill="#fff"/><polygon points="532.1 64.29 535.69 63.09 609.16 90.39 605.56 91.66 532.1 64.29" fill="#fff"/><polygon points="470.87 71.29 473.45 70.52 554.19 104.6 551.58 105.43 470.87 71.29" fill="#fff"/><polygon points="425.66 76.5 430.2 75.64 466.9 99.88 534.07 119.9 623.1 152.32 619.47 153.85 530.54 121.36 462.81 101.13 425.66 76.5" fill="#fff"/><polygon points="463.01 99.77 506.02 85.18 554.19 71.15 557.65 72.62 509.53 86.68 466.71 101.24 463.01 99.77" fill="#fff"/><polygon points="365.82 43.23 375.41 39.45 377.91 40.21 369.39 43.58 375.4 54.9 389.85 80.44 435.01 101.2 501.43 132.89 498.6 133.73 432.25 101.99 386.61 80.97 386.53 80.82 372.09 55.11 365.82 43.23" fill="#fff"/><polygon points="304.03 47.7 367.23 42.84 367.98 43.97 307.95 48.59 313.92 59.37 310.59 59.62 304.03 47.7" fill="#fff"/><polygon points="335.26 45.91 338.5 45.62 346.72 56.95 363.27 83.68 359.87 83.96 343.42 57.23 335.26 45.91" fill="#fff"/><polygon points="396.38 108.02 432.78 101.01 457.14 95.48 459.09 96.6 434.61 102.16 398.07 109.2 396.38 108.02" fill="#fff"/><polygon points="467.16 117.8 490.28 108.04 493.03 108.95 469.92 118.74 467.16 117.8" fill="#fff"/><polygon points="508.15 153.95 511.33 152.21 636.27 188.5 633.2 190.36 508.15 153.95" fill="#fff"/><polygon points="549.77 143.11 553.39 141.59 654.54 177.68 650.95 179.32 549.77 143.11" fill="#fff"/><polygon points="566.87 133.17 595.75 122.69 599.75 124.25 570.86 134.76 566.87 133.17" fill="#fff"/><polygon points="592.4 142.53 619.4 131.89 622.19 132.92 595.19 143.58 592.4 142.53" fill="#fff"/><polygon points="599.84 159.55 645.06 141.83 647.88 142.89 602.65 160.65 599.84 159.55" fill="#fff"/><polygon points="533.84 179.75 555.11 166.86 577.93 151.94 581.21 152.76 558.39 167.73 537.11 180.66 533.84 179.75" fill="#fff"/><polygon points="576.14 191.07 597.06 178.48 617.51 166.04 620.79 166.95 600.35 179.41 579.45 192.03 576.14 191.07" fill="#fff"/><polygon points="168.44 2.17 170.07 .65 234.25 6.79 243.83 24.8 236.3 99.36 230.97 99.37 238.92 24.9 230.02 8.07 168.44 2.17" fill="#fff" stroke="#fff" stroke-miterlimit="10" stroke-width="2"/><polygon points="200.37 43.61 203.71 43.55 203.54 67.44 200.11 67.51 200.37 43.61" fill="#fff"/><polygon points="95.18 -1.45 97.25 -2.3 153.93 11.78 151.88 12.67 95.18 -1.45" fill="#fff"/><polygon points="102.43 20.63 124.84 5.4 127.7 5.79 105.32 21.04 102.43 20.63" fill="#fff"/><polygon points="463.8 15.18 493.05 8.92 568.12 8.93 568.39 10 494.15 9.99 465.63 16.1 463.8 15.18" fill="#fff"/><polygon points="505.27 9.56 508.36 9.34 531.64 37.84 528.45 38.07 505.27 9.56" fill="#fff"/><polygon points="479.69 12.21 482.8 11.99 504.75 40.37 501.54 40.6 479.69 12.21" fill="#fff"/><polygon points="392.32 120.51 394.2 119.35 482.45 139.98 480.65 141.19 392.32 120.51" fill="#fff"/><polygon points="397.26 143.17 417.5 125.7 420.84 126.28 400.66 143.78 397.26 143.17" fill="#fff"/><polygon points="336.77 189.74 374.5 137.49 378.06 137.88 341.29 189.08 463.47 222.61 509.03 173.28 512.64 173.88 465.52 225.14 336.77 189.74" fill="#fff"/><polygon points="374.83 174.4 408.17 146.1 411.57 146.72 379.68 173.88 434.26 188.87 463.95 161.12 467.45 161.75 436.03 191.23 374.83 174.4" fill="#fff"/><polygon points="372.7 198.82 394.16 178.96 397.7 179.59 376.3 199.48 372.7 198.82" fill="#fff"/><polygon points="345.81 179.12 347.99 177.85 386.4 188.47 384.24 189.76 345.81 179.12" fill="#fff"/><polygon points="433.94 190.65 436.35 189.45 482.66 204.83 480.27 206.07 433.94 190.65" fill="#fff"/><polygon points="353.53 168.37 355.73 167.14 378.35 173.52 376.16 174.76 353.53 168.37" fill="#fff"/><polygon points="491.68 193.6 494.17 192.43 555.71 214.49 553.23 215.7 491.68 193.6" fill="#fff"/><polygon points="521.75 203.51 550.55 184.27 553.93 185.14 525.16 204.42 521.75 203.51" fill="#fff"/><polygon points="239.12 203.89 270.58 152.92 274.23 153.22 242.94 204.23 239.12 203.89" fill="#fff"/><polygon points="150.7 217.36 151.01 215.7 175.88 215.7 237.26 149.68 240.77 150.12 178.53 217.36 150.7 217.36" fill="#fff"/><polygon points="373.18 225.92 387.85 203.13 391.66 203.56 377.07 226.37 373.18 225.92" fill="#fff"/><polygon points="314.89 216.28 337.19 189.17 340.88 189.66 318.67 216.79 314.89 216.28" fill="#fff"/><polygon points="704.5 169.3 706.98 168.29 851.33 223.48 909.04 277.54 905.17 277.99 848.06 224.29 704.5 169.3" fill="#fff"/><polygon points="767.7 192.5 837.41 163.15 840.47 164.27 770.77 193.69 767.7 192.5" fill="#fff"/><polygon points="753.7 238.07 775.3 195.88 779.19 196.44 757.75 238.68 753.7 238.07" fill="#fff"/><polygon points="706.99 225.86 735.43 180.6 739.23 181.18 710.94 226.49 706.99 225.86" fill="#fff"/><polygon points="735.64 269.11 737.15 233.92 741.25 234.21 739.94 267.74 854.4 279.42 848.93 263.15 853.14 263.24 859.43 281.76 735.64 269.11" fill="#fff"/><polygon points="738.38 249.12 738.85 247.42 776.82 251.66 776.41 253.38 738.38 249.12" fill="#fff"/><polygon points="-120.85 229.56 152.58 137.16 250.4 103.61 252.77 104.56 154.92 138.19 -118.62 230.8 -120.85 229.56" fill="#fff"/><polygon points="33.79 178.16 37.13 177.21 66.15 195.1 62.78 196.07 33.79 178.16" fill="#fff"/><polygon points="-113.5 299.33 41.25 252.24 43.38 253.65 -111.48 300.86 -113.5 299.33" fill="#fff"/><polygon points="-142.18 115.96 -141.6 115.68 11.03 43.85 13.65 44.45 -138.29 116.11 -119.16 160.82 -119.57 161.08 -167.49 192.31 -170.78 191.7 -123.19 160.77 -142.18 115.96" fill="#fff"/><polygon points="490.81 222.18 494.15 221.33 550.26 257.52 686.97 220.04 689.5 221.47 549.27 260 490.81 222.18" fill="#fff"/><polygon points="579.35 205.84 582.37 204.91 639.02 234.19 635.96 235.18 579.35 205.84" fill="#fff"/><polygon points="603.96 217.12 644.18 208.74 646.31 210.21 606.04 218.62 603.96 217.12" fill="#fff"/><polygon points="625.24 331.81 647.06 315.37 651.77 230.08 655.84 230.32 651.43 316.14 629.12 333.01 625.24 331.81" fill="#fff"/><polygon points="547.71 258.84 551.82 258.68 560.94 281.9 556.75 282.07 547.71 258.84" fill="#fff"/><polygon points="340.43 255.96 342.38 254.39 376.44 262.2 477.48 259.95 556.72 274.02 555.41 275.72 476.96 261.77 375.54 264.03 340.43 255.96" fill="#fff"/><polygon points="476.22 222.62 480.19 222.45 513.91 313.83 509.6 314.04 476.22 222.62" fill="#fff"/><polygon points="401.41 262.46 403.19 229.62 407.23 229.7 405.57 262.54 401.41 262.46" fill="#fff"/><polygon points="269.33 331.99 337.82 267.3 339.56 237.17 346.92 221.66 350.86 221.99 343.58 237.43 341.99 267.71 273.31 332.84 269.33 331.99" fill="#fff"/><polygon points="217.58 255.96 257.24 206.81 260.99 207.27 221.49 256.47 217.58 255.96" fill="#fff"/><polygon points="224.2 250.39 225.61 248.7 340.66 264.07 339.43 265.8 224.2 250.39" fill="#fff"/><polygon points="243.77 226.1 245.06 224.48 342.13 236.51 340.97 238.17 243.77 226.1" fill="#fff"/><g><path d="M545.47-15.53l3.07-.09,3.21,6.25-3.1,.09-3.19-6.25Zm6.42,12.59l3.12-.09,3.31,6.44-3.15,.09-3.29-6.44Zm6.62,12.99l3.17-.09,3.41,6.65-3.19,.09-3.39-6.65Zm6.83,13.4l3.22-.1,3.53,6.86-3.24,.1-3.5-6.86Zm7.06,13.83l3.27-.1,3.64,7.08-3.3,.1-3.61-7.09Zm7.29,14.29l3.32-.1,3.76,7.32-3.35,.1-3.73-7.32Zm11.11,14.62l2.26-.84,16.08,5.5-2.26,.85-16.08-5.51Zm32.35,11.09l2.26-.86,16.48,5.64-2.26,.87-16.48-5.65Zm33.16,11.37l2.25-.88,16.89,5.78-2.25,.89-16.89-5.79Zm34,11.66l2.25-.9,17.32,5.93-2.25,.91-17.32-5.94Zm34.87,11.95l2.24-.92,17.77,6.08-2.24,.93-17.77-6.09Z" fill="#fff"/><polygon points="761.68 133.42 768.67 127.17 760.96 124.53 763.2 123.58 773.13 126.98 766.16 133.23 773.96 135.91 771.71 136.89 761.68 133.42" fill="#fff"/></g><path d="M-209.48,179.63l15.68-8.02,2.93,.75-15.66,8.03-2.94-.76Zm31.11-15.9l15.19-7.77,2.91,.72-15.18,7.78-2.92-.73Zm39.17-10.12l22.9-1.63v1.44l-22.92,1.63,.02-1.44Zm45.73-3.25l18.32-1.3,1.39,2.76-3.74,.5-.8-1.61-15.12,1.08-.05-1.43Zm-21.24,51.59l11.06-7.59,3.34,.61-9.88,6.8,1.39,1.18-3.68,.9-2.24-1.89Zm11.86,10.04l3.7-.91,9.79,8.26-3.72,.93-9.77-8.27Zm11.95-26.37l12.53-8.6,3.3,.59-12.51,8.61-3.32-.6Zm17.54-24.98l3.77-.51,4.24,8.45-3.8,.52-4.21-8.46Zm-9.79,68.03l3.74-.94,10.11,8.52-3.76,.96-10.09-8.54Zm20.34,17.22l3.78-.97,8.12,6.85,1.5-.34,1.52,1.53-5.17,1.19-9.74-8.25Zm36.64,.2l3.99-.91,11.47,8.33-3.68,1.06-9.71-7.08-.53,.12-1.54-1.52Zm23.69,17.16l3.7-1.07,12.12,8.81-3.72,1.09-12.1-8.82Zm24.4,17.79l3.74-1.11,12.52,9.09-3.76,1.13-12.5-9.11Zm31.17,16.18l2.25-1.75,22.24,4.83-2.23,1.76-22.26-4.85Zm44.71,9.73l2.2-1.78,22.62,4.92-2.18,1.79-22.64-4.93Zm45.49,9.9l2.15-1.81,23.01,5-2.12,1.82-23.04-5.02Zm46.28,10.08l2.1-1.84,20,4.35-2.07,1.85-20.03-4.36Z" fill="#fff"/></g></g></g></svg>