<?xml version="1.0" encoding="UTF-8"?><svg id="a" xmlns="http://www.w3.org/2000/svg" xmlns:xlink="http://www.w3.org/1999/xlink" viewBox="0 0 768 260"><defs><clipPath id="b"><polygon points="-146.82 264.04 4.35 -17.18 765.55 -14.43 944.41 264.11 -146.82 264.04" fill="none"/></clipPath></defs><g opacity=".03"><g clip-path="url(#b)"><g><g opacity=".1"><path d="M773.95-15.04l-427.16-1.28L2.11-17.82-107.2,186.42l27.61-11.18L5.44,92.14l-30.27-8.81,28.43,3.7,8.69-5.02-31.39-5.67,6.51-5.65,27.24,5.27,11.26-10.3L-2.78,60.37l5.62-4.1,25.42,6.55,9.83-7.51-12.91-1.89L60.74,9.94l15.15-1.36,52.04,10.65-25.95,33.38,10.82,13.26-26.27,43.85,104.03,47.14-1.97,10.1-73.74-15.46-52.83-21.32-28.66,32.73-57.97,36.55,16.47,58.22-91.05,1.58-36.38-19.93-15.59,29.23,1107.62,.85L773.95-15.04ZM204.82,25.35l-20.09-15.29-30.78,2.88-19.43-3.05-3.5,2.97-29.42-6.04L292.32-15.27l16.63,1.48,46.42,.88,16.97,7.81,93.23,13.33,60.32-11.7,188.33,8.95-79.92-.45-39.34,7.65-63.59-5.37-70.82,7.21L355.45,2.4l-86.86-6.77-20.44,8.66,14.74,7.08-22.75-.84L213.46,.99l-12.08,4.84,35.83,22.44-32.4-2.93Z" fill="#fff"/></g><path d="M142.33,59.83c3.04-.16,297.23-16.12,390.69-21.86,69.11-4.24,269.69-18.03,271.66-18.17l2.02,1.28c-1.97,.14-202.94,13.99-272.23,18.25-93.68,5.76-388.48,21.8-391.53,21.96l-.62-1.46Z" fill="#fff" stroke="#fff" stroke-miterlimit="10" stroke-width="2"/><path d="M132.83,22.51l.35-.18c.45-.23,44.02-22.52,56.12-29.77,13.79-8.26,47.57-32.5,47.9-32.73l4.24,.33c-.33,.24-34,24.53-47.81,32.84-11.54,6.94-51.49,27.52-55.74,29.7,1.3,4.51,26.78,93.43,23.91,129.06-1.89,23.51-34.64,101.75-36.82,106.95l7.31,10.29-6.52,.8-7.56-10.76,.1-.24c.39-.91,35.51-82.91,37.62-106.96,3.19-36.39-22.81-128.32-23.04-129.14l-.06-.2Z" fill="#fff" stroke="#fff" stroke-miterlimit="10" stroke-width="2"/><path d="M-377.13-23.14l3.17-1.06c1.87,.26,194.99,26.85,278.2,41.22C-12.5,31.39,139.72,61.72,219.66,78.4c56.87,11.87,152.61,32.59,241.26,51.77,61.46,13.3,121.32,26.26,165.5,35.68,74.54,15.9,317.67,66.65,320.26,67.19l-2.32,1.86c-2.59-.54-246.12-51.49-320.78-67.46-44.25-9.47-104.19-22.47-165.73-35.82-88.72-19.25-184.53-40.04-241.42-51.94C136.49,62.96-15.72,32.56-98.96,18.16-182.09,3.78-375.26-22.88-377.13-23.14Z" fill="#fff" stroke="#fff" stroke-miterlimit="10" stroke-width="2"/><polygon points="445.3 127.65 726.67 39.75 824 47.38 823.54 48.74 728.9 41.31 449.38 128.92 445.3 127.65" fill="#fff" stroke="#fff" stroke-miterlimit="10" stroke-width="2"/><polygon points="663.66 30.34 667.53 29.64 797.04 78.31 793.05 79.1 663.66 30.34" fill="#fff"/><polygon points="157.1 156.36 159.67 154.6 403.59 186.83 556.48 175.1 602.71 161.58 606.89 163.06 559.64 176.93 558.97 176.98 403.25 188.96 402.36 188.85 157.1 156.36" fill="#fff"/><polygon points="586.96 166.64 724.41 134.94 789.1 79.99 789.2 79.95 831.32 61.57 834.34 62.21 792.37 80.58 727.68 135.76 727.32 135.85 589.44 167.72 586.96 166.64" fill="#fff"/><polygon points="673.45 57.52 675.64 56.86 731.31 71.96 753.01 63.11 755.96 63.77 732.19 73.48 673.45 57.52" fill="#fff"/><polygon points="577.88 96.4 580.37 95.69 715.12 137.76 712.64 138.55 577.88 96.4" fill="#fff"/><polygon points="659.18 102.38 662.55 101.22 741.79 122.75 738.46 123.97 659.18 102.38" fill="#fff"/><polygon points="632.47 112.82 715.3 79.21 774.04 95.05 771.87 95.79 716.18 80.74 635.51 113.56 632.47 112.82" fill="#fff"/><polygon points="742.25 87.27 772.11 70.39 775.29 70.96 745.49 87.87 742.25 87.27" fill="#fff"/><polygon points="763.03 76.36 765.39 75.73 788.58 82.8 786.22 83.45 763.03 76.36" fill="#fff"/><polygon points="751.59 82.94 753.74 82.23 780.69 89.38 778.55 90.11 751.59 82.94" fill="#fff"/><polygon points="714.21 79.65 730.23 72.41 733.27 73.04 717.27 80.3 714.21 79.65" fill="#fff"/><polygon points="668.32 124.03 697.28 111.76 700.38 112.5 671.45 124.79 668.32 124.03" fill="#fff"/><polygon points="691.94 131.47 718.25 117.52 721.55 118.2 695.27 132.17 691.94 131.47" fill="#fff"/><polygon points="594.85 34.8 597.73 34.44 655.08 63.55 652.11 63.95 594.85 34.8" fill="#fff"/><polygon points="362.95 70.38 620.81 46.98 622.18 47.88 366.98 71.08 375.84 84.02 372.35 84.21 362.95 70.38" fill="#fff"/><polygon points="544.81 26.13 547.97 25.96 574.01 51.8 570.75 51.98 544.81 26.13" fill="#fff"/><polygon points="539.16 44.35 542.37 44.14 553 53.69 549.76 53.9 539.16 44.35" fill="#fff"/><polygon points="506.38 48.12 509.63 47.92 518.84 56.8 515.56 57.01 506.38 48.12" fill="#fff"/><polygon points="461.93 35.85 465.1 35.62 491.98 59.22 488.72 59.46 461.93 35.85" fill="#fff"/><polygon points="430.39 38.22 433.57 37.97 460.71 62.05 457.43 62.31 430.39 38.22" fill="#fff"/><polygon points="535.81 55.52 539.4 54.57 612.75 76.58 609.16 77.59 535.81 55.52" fill="#fff"/><polygon points="474.54 60.96 477.13 60.35 557.86 87.82 555.26 88.47 474.54 60.96" fill="#fff"/><polygon points="429.25 65.02 433.8 64.35 470.58 83.84 537.76 100 626.57 126.06 622.94 127.27 534.22 101.16 466.48 84.83 429.25 65.02" fill="#fff"/><polygon points="466.68 83.74 509.72 72.17 557.88 61.07 561.35 62.25 513.23 73.38 470.39 84.93 466.68 83.74" fill="#fff"/><polygon points="369.17 38.19 378.79 35.18 381.31 35.8 372.76 38.48 378.81 47.58 393.34 68.09 438.64 84.82 505.12 110.32 502.3 110.98 435.87 85.45 390.09 68.51 390.01 68.39 375.48 47.74 369.17 38.19" fill="#fff"/><polygon points="307.08 41.6 370.59 37.88 371.34 38.79 311.02 42.33 317.05 50.99 313.7 51.18 307.08 41.6" fill="#fff"/><polygon points="338.47 40.25 341.73 40.03 350.01 49.14 366.67 70.62 363.26 70.83 346.7 49.36 338.47 40.25" fill="#fff"/><polygon points="399.93 90.2 436.4 84.67 460.8 80.3 462.75 81.2 438.23 85.59 401.62 91.15 399.93 90.2" fill="#fff"/><polygon points="470.84 98.18 493.97 90.42 496.72 91.16 473.6 98.93 470.84 98.18" fill="#fff"/><polygon points="511.84 127.15 515.02 125.78 639.63 154.92 636.56 156.4 511.84 127.15" fill="#fff"/><polygon points="553.43 118.57 557.04 117.37 657.84 146.33 654.26 147.63 553.43 118.57" fill="#fff"/><polygon points="570.5 110.67 599.34 102.36 603.32 103.61 574.48 111.94 570.5 110.67" fill="#fff"/><polygon points="595.97 118.19 622.91 109.75 625.69 110.57 598.75 119.04 595.97 118.19" fill="#fff"/><polygon points="603.37 131.78 648.47 117.73 651.27 118.58 606.17 132.66 603.37 131.78" fill="#fff"/><polygon points="537.5 147.8 558.73 137.54 581.52 125.67 584.79 126.34 562.01 138.25 540.76 148.53 537.5 147.8" fill="#fff"/><polygon points="579.69 156.89 600.57 146.88 620.97 136.99 624.24 137.72 603.85 147.63 582.99 157.66 579.69 156.89" fill="#fff"/><polygon points="170.3 4.58 171.94 3.37 236.71 8.51 246.42 23.02 239.06 82.89 233.7 82.89 241.47 23.09 232.45 9.53 170.3 4.58" fill="#fff" stroke="#fff" stroke-miterlimit="10" stroke-width="2"/><polygon points="202.68 38.02 206.04 37.98 205.95 57.18 202.49 57.23 202.68 38.02" fill="#fff"/><polygon points="96.24 1.42 98.34 .74 155.69 12.27 153.62 12.98 96.24 1.42" fill="#fff"/><polygon points="103.68 19.24 126.27 7.04 129.16 7.37 106.61 19.57 103.68 19.24" fill="#fff"/><polygon points="467.45 15.98 496.75 11.06 571.86 11.3 572.14 12.16 497.85 11.92 469.27 16.73 467.45 15.98" fill="#fff"/><polygon points="508.98 11.61 512.08 11.45 535.36 34.34 532.17 34.52 508.98 11.61" fill="#fff"/><polygon points="483.36 13.65 486.48 13.49 508.46 36.29 505.24 36.47 483.36 13.65" fill="#fff"/><polygon points="395.87 100.19 397.75 99.27 486.14 115.94 484.34 116.91 395.87 100.19" fill="#fff"/><polygon points="400.85 118.34 421.11 104.39 424.46 104.87 404.25 118.83 400.85 118.34" fill="#fff"/><polygon points="340.26 155.5 378.02 113.75 381.59 114.07 344.8 154.97 467.19 181.91 512.71 142.59 516.32 143.08 469.23 183.93 340.26 155.5" fill="#fff"/><polygon points="378.4 143.28 411.79 120.7 415.19 121.2 383.26 142.88 437.95 154.94 467.64 132.81 471.14 133.32 439.72 156.82 378.4 143.28" fill="#fff"/><polygon points="376.3 162.8 397.78 146.95 401.33 147.46 379.91 163.34 376.3 162.8" fill="#fff"/><polygon points="349.31 147.01 351.5 146 390.01 154.55 387.85 155.58 349.31 147.01" fill="#fff"/><polygon points="437.63 156.36 440.04 155.4 486.36 167.74 483.98 168.73 437.63 156.36" fill="#fff"/><polygon points="357.03 138.42 359.24 137.44 381.93 142.58 379.73 143.57 357.03 138.42" fill="#fff"/><polygon points="495.37 158.79 497.87 157.86 559.3 175.53 556.83 176.5 495.37 158.79" fill="#fff"/><polygon points="525.41 166.74 554.18 151.43 557.54 152.13 528.81 167.47 525.41 166.74" fill="#fff"/><polygon points="242.21 166.69 273.71 125.91 277.37 126.16 246.06 166.96 242.21 166.69" fill="#fff"/><polygon points="153.26 177.36 153.57 176.03 178.63 176.06 240.18 123.26 243.71 123.62 181.3 177.4 153.26 177.36" fill="#fff"/><polygon points="376.82 184.45 391.49 166.26 395.31 166.62 380.72 184.82 376.82 184.45" fill="#fff"/><polygon points="318.36 176.68 340.68 155.03 344.38 155.43 322.15 177.1 318.36 176.68" fill="#fff"/><polygon points="707.56 139.73 710.03 138.93 853.09 183.02 909.93 225.95 906.1 226.31 849.84 183.66 707.56 139.73" fill="#fff"/><polygon points="756.25 194.51 777.82 160.99 781.68 161.44 760.26 195 756.25 194.51" fill="#fff"/><polygon points="709.9 184.75 738.28 148.77 742.05 149.24 713.82 185.26 709.9 184.75" fill="#fff"/><polygon points="738.23 219.16 739.83 191.2 743.91 191.43 742.51 218.08 855.89 227.41 850.55 214.5 854.71 214.58 860.85 229.27 738.23 219.16" fill="#fff"/><polygon points="740.58 214.08 740.74 212.67 780.59 215.29 780.49 216.7 740.58 214.08" fill="#fff"/><polygon points="741.01 203.28 741.48 201.93 779.14 205.33 778.73 206.69 741.01 203.28" fill="#fff"/><polygon points="-121.17 186.86 154.84 113.05 253.27 86.34 255.65 87.11 157.2 113.88 -118.9 187.86 -121.17 186.86" fill="#fff"/><polygon points="35.09 145.76 38.45 145.01 67.87 159.41 64.48 160.19 35.09 145.76" fill="#fff"/><polygon points="-368.9 259.14 134.65 226.97 167.26 230.77 165.65 232.2 134 228.51 -369.31 260.72 -368.9 259.14" fill="#fff"/><polygon points="-113.2 242.89 43.03 205.21 45.19 206.34 -111.15 244.11 -113.2 242.89" fill="#fff"/><polygon points="-143.68 95.4 -143.09 95.18 11.29 37.67 13.96 38.16 -139.72 95.53 -119.96 131.57 -120.37 131.79 -168.79 156.84 -172.14 156.35 -124.05 131.53 -143.68 95.4" fill="#fff"/><polygon points="494.51 181.59 497.85 180.92 553.83 209.82 690.02 180.1 692.53 181.24 552.84 211.79 494.51 181.59" fill="#fff"/><polygon points="582.88 168.67 585.9 167.93 642.28 191.32 639.24 192.1 582.88 168.67" fill="#fff"/><polygon points="607.39 177.68 647.47 171.06 649.58 172.24 609.47 178.88 607.39 177.68" fill="#fff"/><polygon points="628.41 268.94 650.14 255.88 654.98 188.06 659.03 188.26 654.48 256.49 632.27 269.89 628.41 268.94" fill="#fff"/><polygon points="625.17 249.16 627.89 248.06 691.68 268.84 688.98 269.99 625.17 249.16" fill="#fff"/><polygon points="604.2 256.05 608.13 255.51 626.95 270.2 622.97 270.76 604.2 256.05" fill="#fff"/><polygon points="600.39 226.23 599.99 224.75 654.18 224.78 654.68 226.26 600.39 226.23" fill="#fff"/><polygon points="551.29 210.87 555.38 210.74 564.46 229.24 560.28 229.37 551.29 210.87" fill="#fff"/><polygon points="569.11 250.45 573.4 250.37 580.9 269.37 576.52 269.46 569.11 250.45" fill="#fff"/><polygon points="344.05 208.42 346 207.17 380.13 213.42 481.2 211.7 560.26 222.96 558.95 224.32 480.68 213.15 379.24 214.89 344.05 208.42" fill="#fff"/><polygon points="479.92 181.93 483.89 181.8 517.55 254.63 513.25 254.79 479.92 181.93" fill="#fff"/><polygon points="474.33 268.83 548.55 240.71 551.79 241.8 477.58 269.99 474.33 268.83" fill="#fff"/><polygon points="460.59 212.84 464.68 212.64 492.24 263.94 487.91 264.17 460.59 212.84" fill="#fff"/><polygon points="395.26 243.02 438.59 212.78 442.34 213.45 399.1 243.74 395.26 243.02" fill="#fff"/><polygon points="369.13 227.8 377.65 213.99 381.73 214.31 373.27 228.13 369.13 227.8" fill="#fff"/><polygon points="401.97 266.69 467.19 224.37 470.93 225.12 405.83 267.5 401.97 266.69" fill="#fff"/><polygon points="437.48 245.23 439.63 243.92 486.13 254.04 484.03 255.38 437.48 245.23" fill="#fff"/><polygon points="374.57 220.51 376.32 219.18 457.17 232.32 455.53 233.69 374.57 220.51" fill="#fff"/><polygon points="475.41 236.26 546.95 235.05 547.48 236.56 475.83 237.78 475.41 236.26" fill="#fff"/><polygon points="405.13 213.65 406.88 187.44 410.92 187.51 409.3 213.72 405.13 213.65" fill="#fff"/><polygon points="272.92 269.07 341.46 217.47 343.14 193.41 350.5 181.02 354.45 181.29 347.18 193.62 345.63 217.8 276.91 269.75 272.92 269.07" fill="#fff"/><polygon points="220.72 208.33 260.44 169.04 264.21 169.42 224.65 208.73 220.72 208.33" fill="#fff"/><polygon points="224.01 218.98 225.52 217.59 327.63 229.44 326.27 230.87 224.01 218.98" fill="#fff"/><polygon points="217.91 234.73 220.07 232.56 310.43 242.24 308.48 244.46 217.91 234.73" fill="#fff"/><polygon points="202.55 250.03 203.95 248.52 290.64 257.26 289.37 258.8 202.55 250.03" fill="#fff"/><polygon points="228.73 269.84 244.38 253.41 262.02 238.2 266 238.74 248.46 253.91 232.93 270.32 228.73 269.84" fill="#fff"/><polygon points="227.36 203.87 228.77 202.52 344.3 214.89 343.06 216.28 227.36 203.87" fill="#fff"/><polygon points="246.96 184.47 248.25 183.17 345.72 192.88 344.56 194.21 246.96 184.47" fill="#fff"/><polygon points="67.66 269.95 77.89 256.16 82.16 256.41 72 270.21 67.66 269.95" fill="#fff"/><g><path d="M549.23-8.37l3.08-.06,3.21,5.02-3.1,.06-3.18-5.02Zm6.42,10.11l3.12-.06,3.31,5.17-3.15,.06-3.28-5.17Zm6.62,10.43l3.17-.06,3.41,5.33-3.19,.07-3.38-5.33Zm6.82,10.75l3.22-.07,3.52,5.5-3.24,.07-3.49-5.5Zm7.04,11.09l3.27-.07,3.63,5.68-3.29,.07-3.6-5.68Zm7.27,11.45l3.32-.07,3.75,5.87-3.35,.07-3.72-5.87Zm11.08,11.73l2.26-.66,16.04,4.44-2.26,.67-16.04-4.45Zm32.27,8.95l2.25-.68,16.42,4.55-2.25,.69-16.42-4.55Zm33.04,9.16l2.25-.7,16.82,4.66-2.24,.7-16.82-4.66Zm33.84,9.38l2.24-.71,17.22,4.77-2.24,.72-17.23-4.78Zm34.67,9.61l2.23-.73,17.65,4.89-2.23,.74-17.65-4.9Z" fill="#fff"/><polygon points="764.5 111.25 771.47 106.28 763.82 104.16 766.04 103.41 775.89 106.14 768.96 111.1 776.69 113.26 774.45 114.03 764.5 111.25" fill="#fff"/></g><path d="M-211.58,146.57l15.87-6.43,2.98,.61-15.86,6.44-3-.62Zm31.5-12.76l15.37-6.23,2.96,.59-15.36,6.24-2.97-.6Zm39.72-8.08l23.24-1.27,.03,1.16-23.27,1.27v-1.16Zm46.4-2.53l18.57-1.01,1.42,2.23-3.79,.4-.82-1.29-15.33,.84-.06-1.15Zm-21.17,41.47l11.16-6.09,3.4,.49-9.98,5.45,1.42,.95-3.72,.72-2.28-1.53Zm12.1,8.08l3.74-.73,9.98,6.65-3.76,.74-9.96-6.66Zm11.93-21.18l12.65-6.89,3.35,.48-12.62,6.9-3.37-.49Zm17.61-20.07l3.81-.4,4.35,6.8-3.84,.41-4.32-6.81Zm-9.46,54.67l3.78-.75,10.3,6.86-3.8,.77-10.28-6.87Zm20.72,13.84l3.82-.78,8.26,5.5,1.52-.28,1.54,1.23-5.23,.95-9.92-6.63Zm37.08,.19l4.03-.73,11.66,6.7-3.72,.84-9.86-5.69-.54,.1-1.57-1.22ZM-1.11,213.99l3.74-.86,12.3,7.07-3.75,.87-12.28-7.08Zm24.76,14.27l3.77-.89,12.69,7.29-3.79,.9-12.67-7.31Zm31.56,12.97l2.26-1.4,22.45,3.87-2.24,1.41-22.48-3.89Zm45.14,7.8l2.21-1.42,22.81,3.94-2.18,1.43-22.84-3.95Zm45.86,7.93l2.16-1.44,23.18,4-2.13,1.46-23.2-4.01Zm46.6,8.06l2.1-1.47,20.12,3.47-2.08,1.48-20.14-3.48Z" fill="#fff"/></g></g></g></svg>