<?xml version="1.0" encoding="UTF-8" standalone="no"?>
<!DOCTYPE svg PUBLIC "-//W3C//DTD SVG 1.1//EN" "http://www.w3.org/Graphics/SVG/1.1/DTD/svg11.dtd">
<!-- Created with Vectornator (http://vectornator.io/) -->
<svg height="100%" stroke-miterlimit="10" style="fill-rule:nonzero;clip-rule:evenodd;stroke-linecap:round;stroke-linejoin:round;" version="1.1" viewBox="0 0 768 260" width="100%" xml:space="preserve" xmlns="http://www.w3.org/2000/svg" xmlns:xlink="http://www.w3.org/1999/xlink">
<defs>
<path d="M-146.82 264.04L4.35-17.18L765.55-14.43L944.41 264.11L-146.82 264.04Z" id="Fill"/>
</defs>
<path d="M0 0L768 0L768 260L0 260L0 0Z" fill="#ffffff" fill-rule="nonzero" opacity="1" stroke="none"/>
<clipPath id="ArtboardFrame">
<rect height="260" width="768" x="0" y="0"/>
</clipPath>
<g clip-path="url(#ArtboardFrame)" id="Untitled">
<g opacity="1">
<use fill="#e5e7eb" fill-rule="nonzero" opacity="1" stroke="#efefef" stroke-linecap="butt" stroke-linejoin="miter" stroke-width="2" xlink:href="#Fill"/>
<clipPath clip-rule="nonzero" id="ClipPath">
<use xlink:href="#Fill"/>
</clipPath>
<g clip-path="url(#ClipPath)">
<path d="M773.95-15.04L346.79-16.32L2.11-17.82L-107.2 186.42L-79.59 175.24L5.44 92.14L-24.83 83.33L3.6 87.03L12.29 82.01L-19.1 76.34L-12.59 70.69L14.65 75.96L25.91 65.66L-2.78 60.37L2.84 56.27L28.26 62.82L38.09 55.31L25.18 53.42L60.74 9.94L75.89 8.58L127.93 19.23L101.98 52.61L112.8 65.87L86.53 109.72L190.56 156.86L188.59 166.96L114.85 151.5L62.02 130.18L33.36 162.91L-24.61 199.46L-8.14 257.68L-99.19 259.26L-135.57 239.33L-151.16 268.56L956.46 269.41L773.95-15.04ZM204.82 25.35L184.73 10.06L153.95 12.94L134.52 9.89L131.02 12.86L101.6 6.82L292.32-15.27L308.95-13.79L355.37-12.91L372.34-5.1L465.57 8.23L525.89-3.47L714.22 5.48L634.3 5.03L594.96 12.68L531.37 7.31L460.55 14.52L355.45 2.4L268.59-4.37L248.15 4.29L262.89 11.37L240.14 10.53L213.46 0.99L201.38 5.83L237.21 28.27L204.81 25.34L204.82 25.35Z" fill="#e5e7eb" fill-rule="nonzero" opacity="0.1" stroke="#efefef" stroke-linecap="butt" stroke-linejoin="miter" stroke-width="2"/>
<path d="M142.33 59.83C145.37 59.67 439.56 43.71 533.02 37.97C602.13 33.73 802.71 19.94 804.68 19.8L806.7 21.08C804.73 21.22 603.76 35.07 534.47 39.33C440.79 45.09 145.99 61.13 142.94 61.29L142.32 59.83L142.33 59.83Z" fill="#e5e7eb" fill-rule="nonzero" opacity="1" stroke="#efefef" stroke-linecap="butt" stroke-linejoin="miter" stroke-width="2"/>
<path d="M132.83 22.51L133.18 22.33C133.63 22.1 177.2-0.19 189.3-7.44C203.09-15.7 236.87-39.94 237.2-40.17L241.44-39.84C241.11-39.6 207.44-15.31 193.63-7C182.09-0.06 142.14 20.52 137.89 22.7C139.19 27.21 164.67 116.13 161.8 151.76C159.91 175.27 127.16 253.51 124.98 258.71L132.29 269L125.77 269.8L118.21 259.04L118.31 258.8C118.7 257.89 153.82 175.89 155.93 151.84C159.12 115.45 133.12 23.52 132.89 22.7L132.83 22.5L132.83 22.51Z" fill="#e5e7eb" fill-rule="nonzero" opacity="1" stroke="#efefef" stroke-linecap="butt" stroke-linejoin="miter" stroke-width="2"/>
<path d="M-377.13-23.14L-373.96-24.2C-372.09-23.94-178.97 2.65-95.76 17.02C-12.5 31.39 139.72 61.72 219.66 78.4C276.53 90.27 372.27 110.99 460.92 130.17C522.38 143.47 582.24 156.43 626.42 165.85C700.96 181.75 944.09 232.5 946.68 233.04L944.36 234.9C941.77 234.36 698.24 183.41 623.58 167.44C579.33 157.97 519.39 144.97 457.85 131.62C369.13 112.37 273.32 91.58 216.43 79.68C136.49 62.96-15.72 32.56-98.96 18.16C-182.09 3.78-375.26-22.88-377.13-23.14Z" fill="#e5e7eb" fill-rule="nonzero" opacity="1" stroke="#efefef" stroke-linecap="butt" stroke-linejoin="miter" stroke-width="2"/>
<path d="M445.3 127.65L726.67 39.75L824 47.38L823.54 48.74L728.9 41.31L449.38 128.92L445.3 127.65Z" fill="#e5e7eb" fill-rule="nonzero" opacity="1" stroke="#efefef" stroke-linecap="butt" stroke-linejoin="miter" stroke-width="2"/>
<path d="M663.66 30.34L667.53 29.64L797.04 78.31L793.05 79.1L663.66 30.34Z" fill="#e5e7eb" fill-rule="nonzero" opacity="1" stroke="#efefef" stroke-linecap="butt" stroke-linejoin="miter" stroke-width="2"/>
<path d="M157.1 156.36L159.67 154.6L403.59 186.83L556.48 175.1L602.71 161.58L606.89 163.06L559.64 176.93L558.97 176.98L403.25 188.96L402.36 188.85L157.1 156.36Z" fill="#e5e7eb" fill-rule="nonzero" opacity="1" stroke="#efefef" stroke-linecap="butt" stroke-linejoin="miter" stroke-width="2"/>
<path d="M586.96 166.64L724.41 134.94L789.1 79.99L789.2 79.95L831.32 61.57L834.34 62.21L792.37 80.58L727.68 135.76L727.32 135.85L589.44 167.72L586.96 166.64Z" fill="#e5e7eb" fill-rule="nonzero" opacity="1" stroke="#efefef" stroke-linecap="butt" stroke-linejoin="miter" stroke-width="2"/>
<path d="M673.45 57.52L675.64 56.86L731.31 71.96L753.01 63.11L755.96 63.77L732.19 73.48L673.45 57.52Z" fill="#e5e7eb" fill-rule="nonzero" opacity="1" stroke="#efefef" stroke-linecap="butt" stroke-linejoin="miter" stroke-width="2"/>
<path d="M577.88 96.4L580.37 95.69L715.12 137.76L712.64 138.55L577.88 96.4Z" fill="#e5e7eb" fill-rule="nonzero" opacity="1" stroke="#efefef" stroke-linecap="butt" stroke-linejoin="miter" stroke-width="2"/>
<path d="M659.18 102.38L662.55 101.22L741.79 122.75L738.46 123.97L659.18 102.38Z" fill="#e5e7eb" fill-rule="nonzero" opacity="1" stroke="#efefef" stroke-linecap="butt" stroke-linejoin="miter" stroke-width="2"/>
<path d="M632.47 112.82L715.3 79.21L774.04 95.05L771.87 95.79L716.18 80.74L635.51 113.56L632.47 112.82Z" fill="#e5e7eb" fill-rule="nonzero" opacity="1" stroke="#efefef" stroke-linecap="butt" stroke-linejoin="miter" stroke-width="2"/>
<path d="M742.25 87.27L772.11 70.39L775.29 70.96L745.49 87.87L742.25 87.27Z" fill="#e5e7eb" fill-rule="nonzero" opacity="1" stroke="#efefef" stroke-linecap="butt" stroke-linejoin="miter" stroke-width="2"/>
<path d="M763.03 76.36L765.39 75.73L788.58 82.8L786.22 83.45L763.03 76.36Z" fill="#e5e7eb" fill-rule="nonzero" opacity="1" stroke="#efefef" stroke-linecap="butt" stroke-linejoin="miter" stroke-width="2"/>
<path d="M751.59 82.94L753.74 82.23L780.69 89.38L778.55 90.11L751.59 82.94Z" fill="#e5e7eb" fill-rule="nonzero" opacity="1" stroke="#efefef" stroke-linecap="butt" stroke-linejoin="miter" stroke-width="2"/>
<path d="M714.21 79.65L730.23 72.41L733.27 73.04L717.27 80.3L714.21 79.65Z" fill="#e5e7eb" fill-rule="nonzero" opacity="1" stroke="#efefef" stroke-linecap="butt" stroke-linejoin="miter" stroke-width="2"/>
<path d="M668.32 124.03L697.28 111.76L700.38 112.5L671.45 124.79L668.32 124.03Z" fill="#e5e7eb" fill-rule="nonzero" opacity="1" stroke="#efefef" stroke-linecap="butt" stroke-linejoin="miter" stroke-width="2"/>
<path d="M691.94 131.47L718.25 117.52L721.55 118.2L695.27 132.17L691.94 131.47Z" fill="#e5e7eb" fill-rule="nonzero" opacity="1" stroke="#efefef" stroke-linecap="butt" stroke-linejoin="miter" stroke-width="2"/>
<path d="M594.85 34.8L597.73 34.44L655.08 63.55L652.11 63.95L594.85 34.8Z" fill="#e5e7eb" fill-rule="nonzero" opacity="1" stroke="#efefef" stroke-linecap="butt" stroke-linejoin="miter" stroke-width="2"/>
<path d="M362.95 70.38L620.81 46.98L622.18 47.88L366.98 71.08L375.84 84.02L372.35 84.21L362.95 70.38Z" fill="#e5e7eb" fill-rule="nonzero" opacity="1" stroke="#efefef" stroke-linecap="butt" stroke-linejoin="miter" stroke-width="2"/>
<path d="M544.81 26.13L547.97 25.96L574.01 51.8L570.75 51.98L544.81 26.13Z" fill="#e5e7eb" fill-rule="nonzero" opacity="1" stroke="#efefef" stroke-linecap="butt" stroke-linejoin="miter" stroke-width="2"/>
<path d="M539.16 44.35L542.37 44.14L553 53.69L549.76 53.9L539.16 44.35Z" fill="#e5e7eb" fill-rule="nonzero" opacity="1" stroke="#efefef" stroke-linecap="butt" stroke-linejoin="miter" stroke-width="2"/>
<path d="M506.38 48.12L509.63 47.92L518.84 56.8L515.56 57.01L506.38 48.12Z" fill="#e5e7eb" fill-rule="nonzero" opacity="1" stroke="#efefef" stroke-linecap="butt" stroke-linejoin="miter" stroke-width="2"/>
<path d="M461.93 35.85L465.1 35.62L491.98 59.22L488.72 59.46L461.93 35.85Z" fill="#e5e7eb" fill-rule="nonzero" opacity="1" stroke="#efefef" stroke-linecap="butt" stroke-linejoin="miter" stroke-width="2"/>
<path d="M430.39 38.22L433.57 37.97L460.71 62.05L457.43 62.31L430.39 38.22Z" fill="#e5e7eb" fill-rule="nonzero" opacity="1" stroke="#efefef" stroke-linecap="butt" stroke-linejoin="miter" stroke-width="2"/>
<path d="M535.81 55.52L539.4 54.57L612.75 76.58L609.16 77.59L535.81 55.52Z" fill="#e5e7eb" fill-rule="nonzero" opacity="1" stroke="#efefef" stroke-linecap="butt" stroke-linejoin="miter" stroke-width="2"/>
<path d="M474.54 60.96L477.13 60.35L557.86 87.82L555.26 88.47L474.54 60.96Z" fill="#e5e7eb" fill-rule="nonzero" opacity="1" stroke="#efefef" stroke-linecap="butt" stroke-linejoin="miter" stroke-width="2"/>
<path d="M429.25 65.02L433.8 64.35L470.58 83.84L537.76 100L626.57 126.06L622.94 127.27L534.22 101.16L466.48 84.83L429.25 65.02Z" fill="#e5e7eb" fill-rule="nonzero" opacity="1" stroke="#efefef" stroke-linecap="butt" stroke-linejoin="miter" stroke-width="2"/>
<path d="M466.68 83.74L509.72 72.17L557.88 61.07L561.35 62.25L513.23 73.38L470.39 84.93L466.68 83.74Z" fill="#e5e7eb" fill-rule="nonzero" opacity="1" stroke="#efefef" stroke-linecap="butt" stroke-linejoin="miter" stroke-width="2"/>
<path d="M369.17 38.19L378.79 35.18L381.31 35.8L372.76 38.48L378.81 47.58L393.34 68.09L438.64 84.82L505.12 110.32L502.3 110.98L435.87 85.45L390.09 68.51L390.01 68.39L375.48 47.74L369.17 38.19Z" fill="#e5e7eb" fill-rule="nonzero" opacity="1" stroke="#efefef" stroke-linecap="butt" stroke-linejoin="miter" stroke-width="2"/>
<path d="M307.08 41.6L370.59 37.88L371.34 38.79L311.02 42.33L317.05 50.99L313.7 51.18L307.08 41.6Z" fill="#e5e7eb" fill-rule="nonzero" opacity="1" stroke="#efefef" stroke-linecap="butt" stroke-linejoin="miter" stroke-width="2"/>
<path d="M338.47 40.25L341.73 40.03L350.01 49.14L366.67 70.62L363.26 70.83L346.7 49.36L338.47 40.25Z" fill="#e5e7eb" fill-rule="nonzero" opacity="1" stroke="#efefef" stroke-linecap="butt" stroke-linejoin="miter" stroke-width="2"/>
<path d="M399.93 90.2L436.4 84.67L460.8 80.3L462.75 81.2L438.23 85.59L401.62 91.15L399.93 90.2Z" fill="#e5e7eb" fill-rule="nonzero" opacity="1" stroke="#efefef" stroke-linecap="butt" stroke-linejoin="miter" stroke-width="2"/>
<path d="M470.84 98.18L493.97 90.42L496.72 91.16L473.6 98.93L470.84 98.18Z" fill="#e5e7eb" fill-rule="nonzero" opacity="1" stroke="#efefef" stroke-linecap="butt" stroke-linejoin="miter" stroke-width="2"/>
<path d="M511.84 127.15L515.02 125.78L639.63 154.92L636.56 156.4L511.84 127.15Z" fill="#e5e7eb" fill-rule="nonzero" opacity="1" stroke="#efefef" stroke-linecap="butt" stroke-linejoin="miter" stroke-width="2"/>
<path d="M553.43 118.57L557.04 117.37L657.84 146.33L654.26 147.63L553.43 118.57Z" fill="#e5e7eb" fill-rule="nonzero" opacity="1" stroke="#efefef" stroke-linecap="butt" stroke-linejoin="miter" stroke-width="2"/>
<path d="M570.5 110.67L599.34 102.36L603.32 103.61L574.48 111.94L570.5 110.67Z" fill="#e5e7eb" fill-rule="nonzero" opacity="1" stroke="#efefef" stroke-linecap="butt" stroke-linejoin="miter" stroke-width="2"/>
<path d="M595.97 118.19L622.91 109.75L625.69 110.57L598.75 119.04L595.97 118.19Z" fill="#e5e7eb" fill-rule="nonzero" opacity="1" stroke="#efefef" stroke-linecap="butt" stroke-linejoin="miter" stroke-width="2"/>
<path d="M603.37 131.78L648.47 117.73L651.27 118.58L606.17 132.66L603.37 131.78Z" fill="#e5e7eb" fill-rule="nonzero" opacity="1" stroke="#efefef" stroke-linecap="butt" stroke-linejoin="miter" stroke-width="2"/>
<path d="M537.5 147.8L558.73 137.54L581.52 125.67L584.79 126.34L562.01 138.25L540.76 148.53L537.5 147.8Z" fill="#e5e7eb" fill-rule="nonzero" opacity="1" stroke="#efefef" stroke-linecap="butt" stroke-linejoin="miter" stroke-width="2"/>
<path d="M579.69 156.89L600.57 146.88L620.97 136.99L624.24 137.72L603.85 147.63L582.99 157.66L579.69 156.89Z" fill="#e5e7eb" fill-rule="nonzero" opacity="1" stroke="#efefef" stroke-linecap="butt" stroke-linejoin="miter" stroke-width="2"/>
<path d="M170.3 4.58L171.94 3.37L236.71 8.51L246.42 23.02L239.06 82.89L233.7 82.89L241.47 23.09L232.45 9.53L170.3 4.58Z" fill="#e5e7eb" fill-rule="nonzero" opacity="1" stroke="#efefef" stroke-linecap="butt" stroke-linejoin="miter" stroke-width="2"/>
<path d="M202.68 38.02L206.04 37.98L205.95 57.18L202.49 57.23L202.68 38.02Z" fill="#e5e7eb" fill-rule="nonzero" opacity="1" stroke="#efefef" stroke-linecap="butt" stroke-linejoin="miter" stroke-width="2"/>
<path d="M96.24 1.42L98.34 0.74L155.69 12.27L153.62 12.98L96.24 1.42Z" fill="#e5e7eb" fill-rule="nonzero" opacity="1" stroke="#efefef" stroke-linecap="butt" stroke-linejoin="miter" stroke-width="2"/>
<path d="M103.68 19.24L126.27 7.04L129.16 7.37L106.61 19.57L103.68 19.24Z" fill="#e5e7eb" fill-rule="nonzero" opacity="1" stroke="#efefef" stroke-linecap="butt" stroke-linejoin="miter" stroke-width="2"/>
<path d="M467.45 15.98L496.75 11.06L571.86 11.3L572.14 12.16L497.85 11.92L469.27 16.73L467.45 15.98Z" fill="#e5e7eb" fill-rule="nonzero" opacity="1" stroke="#efefef" stroke-linecap="butt" stroke-linejoin="miter" stroke-width="2"/>
<path d="M508.98 11.61L512.08 11.45L535.36 34.34L532.17 34.52L508.98 11.61Z" fill="#e5e7eb" fill-rule="nonzero" opacity="1" stroke="#efefef" stroke-linecap="butt" stroke-linejoin="miter" stroke-width="2"/>
<path d="M483.36 13.65L486.48 13.49L508.46 36.29L505.24 36.47L483.36 13.65Z" fill="#e5e7eb" fill-rule="nonzero" opacity="1" stroke="#efefef" stroke-linecap="butt" stroke-linejoin="miter" stroke-width="2"/>
<path d="M395.87 100.19L397.75 99.27L486.14 115.94L484.34 116.91L395.87 100.19Z" fill="#e5e7eb" fill-rule="nonzero" opacity="1" stroke="#efefef" stroke-linecap="butt" stroke-linejoin="miter" stroke-width="2"/>
<path d="M400.85 118.34L421.11 104.39L424.46 104.87L404.25 118.83L400.85 118.34Z" fill="#e5e7eb" fill-rule="nonzero" opacity="1" stroke="#efefef" stroke-linecap="butt" stroke-linejoin="miter" stroke-width="2"/>
<path d="M340.26 155.5L378.02 113.75L381.59 114.07L344.8 154.97L467.19 181.91L512.71 142.59L516.32 143.08L469.23 183.93L340.26 155.5Z" fill="#e5e7eb" fill-rule="nonzero" opacity="1" stroke="#efefef" stroke-linecap="butt" stroke-linejoin="miter" stroke-width="2"/>
<path d="M378.4 143.28L411.79 120.7L415.19 121.2L383.26 142.88L437.95 154.94L467.64 132.81L471.14 133.32L439.72 156.82L378.4 143.28Z" fill="#e5e7eb" fill-rule="nonzero" opacity="1" stroke="#efefef" stroke-linecap="butt" stroke-linejoin="miter" stroke-width="2"/>
<path d="M376.3 162.8L397.78 146.95L401.33 147.46L379.91 163.34L376.3 162.8Z" fill="#e5e7eb" fill-rule="nonzero" opacity="1" stroke="#efefef" stroke-linecap="butt" stroke-linejoin="miter" stroke-width="2"/>
<path d="M349.31 147.01L351.5 146L390.01 154.55L387.85 155.58L349.31 147.01Z" fill="#e5e7eb" fill-rule="nonzero" opacity="1" stroke="#efefef" stroke-linecap="butt" stroke-linejoin="miter" stroke-width="2"/>
<path d="M437.63 156.36L440.04 155.4L486.36 167.74L483.98 168.73L437.63 156.36Z" fill="#e5e7eb" fill-rule="nonzero" opacity="1" stroke="#efefef" stroke-linecap="butt" stroke-linejoin="miter" stroke-width="2"/>
<path d="M357.03 138.42L359.24 137.44L381.93 142.58L379.73 143.57L357.03 138.42Z" fill="#e5e7eb" fill-rule="nonzero" opacity="1" stroke="#efefef" stroke-linecap="butt" stroke-linejoin="miter" stroke-width="2"/>
<path d="M495.37 158.79L497.87 157.86L559.3 175.53L556.83 176.5L495.37 158.79Z" fill="#e5e7eb" fill-rule="nonzero" opacity="1" stroke="#efefef" stroke-linecap="butt" stroke-linejoin="miter" stroke-width="2"/>
<path d="M525.41 166.74L554.18 151.43L557.54 152.13L528.81 167.47L525.41 166.74Z" fill="#e5e7eb" fill-rule="nonzero" opacity="1" stroke="#efefef" stroke-linecap="butt" stroke-linejoin="miter" stroke-width="2"/>
<path d="M242.21 166.69L273.71 125.91L277.37 126.16L246.06 166.96L242.21 166.69Z" fill="#e5e7eb" fill-rule="nonzero" opacity="1" stroke="#efefef" stroke-linecap="butt" stroke-linejoin="miter" stroke-width="2"/>
<path d="M153.26 177.36L153.57 176.03L178.63 176.06L240.18 123.26L243.71 123.62L181.3 177.4L153.26 177.36Z" fill="#e5e7eb" fill-rule="nonzero" opacity="1" stroke="#efefef" stroke-linecap="butt" stroke-linejoin="miter" stroke-width="2"/>
<path d="M376.82 184.45L391.49 166.26L395.31 166.62L380.72 184.82L376.82 184.45Z" fill="#e5e7eb" fill-rule="nonzero" opacity="1" stroke="#efefef" stroke-linecap="butt" stroke-linejoin="miter" stroke-width="2"/>
<path d="M318.36 176.68L340.68 155.03L344.38 155.43L322.15 177.1L318.36 176.68Z" fill="#e5e7eb" fill-rule="nonzero" opacity="1" stroke="#efefef" stroke-linecap="butt" stroke-linejoin="miter" stroke-width="2"/>
<path d="M707.56 139.73L710.03 138.93L853.09 183.02L909.93 225.95L906.1 226.31L849.84 183.66L707.56 139.73Z" fill="#e5e7eb" fill-rule="nonzero" opacity="1" stroke="#efefef" stroke-linecap="butt" stroke-linejoin="miter" stroke-width="2"/>
<path d="M756.25 194.51L777.82 160.99L781.68 161.44L760.26 195L756.25 194.51Z" fill="#e5e7eb" fill-rule="nonzero" opacity="1" stroke="#efefef" stroke-linecap="butt" stroke-linejoin="miter" stroke-width="2"/>
<path d="M709.9 184.75L738.28 148.77L742.05 149.24L713.82 185.26L709.9 184.75Z" fill="#e5e7eb" fill-rule="nonzero" opacity="1" stroke="#efefef" stroke-linecap="butt" stroke-linejoin="miter" stroke-width="2"/>
<path d="M738.23 219.16L739.83 191.2L743.91 191.43L742.51 218.08L855.89 227.41L850.55 214.5L854.71 214.58L860.85 229.27L738.23 219.16Z" fill="#e5e7eb" fill-rule="nonzero" opacity="1" stroke="#efefef" stroke-linecap="butt" stroke-linejoin="miter" stroke-width="2"/>
<path d="M740.58 214.08L740.74 212.67L780.59 215.29L780.49 216.7L740.58 214.08Z" fill="#e5e7eb" fill-rule="nonzero" opacity="1" stroke="#efefef" stroke-linecap="butt" stroke-linejoin="miter" stroke-width="2"/>
<path d="M741.01 203.28L741.48 201.93L779.14 205.33L778.73 206.69L741.01 203.28Z" fill="#e5e7eb" fill-rule="nonzero" opacity="1" stroke="#efefef" stroke-linecap="butt" stroke-linejoin="miter" stroke-width="2"/>
<path d="M-121.17 186.86L154.84 113.05L253.27 86.34L255.65 87.11L157.2 113.88L-118.9 187.86L-121.17 186.86Z" fill="#e5e7eb" fill-rule="nonzero" opacity="1" stroke="#efefef" stroke-linecap="butt" stroke-linejoin="miter" stroke-width="2"/>
<path d="M35.09 145.76L38.45 145.01L67.87 159.41L64.48 160.19L35.09 145.76Z" fill="#e5e7eb" fill-rule="nonzero" opacity="1" stroke="#efefef" stroke-linecap="butt" stroke-linejoin="miter" stroke-width="2"/>
<path d="M-368.9 259.14L134.65 226.97L167.26 230.77L165.65 232.2L134 228.51L-369.31 260.72L-368.9 259.14Z" fill="#e5e7eb" fill-rule="nonzero" opacity="1" stroke="#efefef" stroke-linecap="butt" stroke-linejoin="miter" stroke-width="2"/>
<path d="M-113.2 242.89L43.03 205.21L45.19 206.34L-111.15 244.11L-113.2 242.89Z" fill="#e5e7eb" fill-rule="nonzero" opacity="1" stroke="#efefef" stroke-linecap="butt" stroke-linejoin="miter" stroke-width="2"/>
<path d="M-143.68 95.4L-143.09 95.18L11.29 37.67L13.96 38.16L-139.72 95.53L-119.96 131.57L-120.37 131.79L-168.79 156.84L-172.14 156.35L-124.05 131.53L-143.68 95.4Z" fill="#e5e7eb" fill-rule="nonzero" opacity="1" stroke="#efefef" stroke-linecap="butt" stroke-linejoin="miter" stroke-width="2"/>
<path d="M494.51 181.59L497.85 180.92L553.83 209.82L690.02 180.1L692.53 181.24L552.84 211.79L494.51 181.59Z" fill="#e5e7eb" fill-rule="nonzero" opacity="1" stroke="#efefef" stroke-linecap="butt" stroke-linejoin="miter" stroke-width="2"/>
<path d="M582.88 168.67L585.9 167.93L642.28 191.32L639.24 192.1L582.88 168.67Z" fill="#e5e7eb" fill-rule="nonzero" opacity="1" stroke="#efefef" stroke-linecap="butt" stroke-linejoin="miter" stroke-width="2"/>
<path d="M607.39 177.68L647.47 171.06L649.58 172.24L609.47 178.88L607.39 177.68Z" fill="#e5e7eb" fill-rule="nonzero" opacity="1" stroke="#efefef" stroke-linecap="butt" stroke-linejoin="miter" stroke-width="2"/>
<path d="M628.41 268.94L650.14 255.88L654.98 188.06L659.03 188.26L654.48 256.49L632.27 269.89L628.41 268.94Z" fill="#e5e7eb" fill-rule="nonzero" opacity="1" stroke="#efefef" stroke-linecap="butt" stroke-linejoin="miter" stroke-width="2"/>
<path d="M625.17 249.16L627.89 248.06L691.68 268.84L688.98 269.99L625.17 249.16Z" fill="#e5e7eb" fill-rule="nonzero" opacity="1" stroke="#efefef" stroke-linecap="butt" stroke-linejoin="miter" stroke-width="2"/>
<path d="M604.2 256.05L608.13 255.51L626.95 270.2L622.97 270.76L604.2 256.05Z" fill="#e5e7eb" fill-rule="nonzero" opacity="1" stroke="#efefef" stroke-linecap="butt" stroke-linejoin="miter" stroke-width="2"/>
<path d="M600.39 226.23L599.99 224.75L654.18 224.78L654.68 226.26L600.39 226.23Z" fill="#e5e7eb" fill-rule="nonzero" opacity="1" stroke="#efefef" stroke-linecap="butt" stroke-linejoin="miter" stroke-width="2"/>
<path d="M551.29 210.87L555.38 210.74L564.46 229.24L560.28 229.37L551.29 210.87Z" fill="#e5e7eb" fill-rule="nonzero" opacity="1" stroke="#efefef" stroke-linecap="butt" stroke-linejoin="miter" stroke-width="2"/>
<path d="M569.11 250.45L573.4 250.37L580.9 269.37L576.52 269.46L569.11 250.45Z" fill="#e5e7eb" fill-rule="nonzero" opacity="1" stroke="#efefef" stroke-linecap="butt" stroke-linejoin="miter" stroke-width="2"/>
<path d="M344.05 208.42L346 207.17L380.13 213.42L481.2 211.7L560.26 222.96L558.95 224.32L480.68 213.15L379.24 214.89L344.05 208.42Z" fill="#e5e7eb" fill-rule="nonzero" opacity="1" stroke="#efefef" stroke-linecap="butt" stroke-linejoin="miter" stroke-width="2"/>
<path d="M479.92 181.93L483.89 181.8L517.55 254.63L513.25 254.79L479.92 181.93Z" fill="#e5e7eb" fill-rule="nonzero" opacity="1" stroke="#efefef" stroke-linecap="butt" stroke-linejoin="miter" stroke-width="2"/>
<path d="M474.33 268.83L548.55 240.71L551.79 241.8L477.58 269.99L474.33 268.83Z" fill="#e5e7eb" fill-rule="nonzero" opacity="1" stroke="#efefef" stroke-linecap="butt" stroke-linejoin="miter" stroke-width="2"/>
<path d="M460.59 212.84L464.68 212.64L492.24 263.94L487.91 264.17L460.59 212.84Z" fill="#e5e7eb" fill-rule="nonzero" opacity="1" stroke="#efefef" stroke-linecap="butt" stroke-linejoin="miter" stroke-width="2"/>
<path d="M395.26 243.02L438.59 212.78L442.34 213.45L399.1 243.74L395.26 243.02Z" fill="#e5e7eb" fill-rule="nonzero" opacity="1" stroke="#efefef" stroke-linecap="butt" stroke-linejoin="miter" stroke-width="2"/>
<path d="M369.13 227.8L377.65 213.99L381.73 214.31L373.27 228.13L369.13 227.8Z" fill="#e5e7eb" fill-rule="nonzero" opacity="1" stroke="#efefef" stroke-linecap="butt" stroke-linejoin="miter" stroke-width="2"/>
<path d="M401.97 266.69L467.19 224.37L470.93 225.12L405.83 267.5L401.97 266.69Z" fill="#e5e7eb" fill-rule="nonzero" opacity="1" stroke="#efefef" stroke-linecap="butt" stroke-linejoin="miter" stroke-width="2"/>
<path d="M437.48 245.23L439.63 243.92L486.13 254.04L484.03 255.38L437.48 245.23Z" fill="#e5e7eb" fill-rule="nonzero" opacity="1" stroke="#efefef" stroke-linecap="butt" stroke-linejoin="miter" stroke-width="2"/>
<path d="M374.57 220.51L376.32 219.18L457.17 232.32L455.53 233.69L374.57 220.51Z" fill="#e5e7eb" fill-rule="nonzero" opacity="1" stroke="#efefef" stroke-linecap="butt" stroke-linejoin="miter" stroke-width="2"/>
<path d="M475.41 236.26L546.95 235.05L547.48 236.56L475.83 237.78L475.41 236.26Z" fill="#e5e7eb" fill-rule="nonzero" opacity="1" stroke="#efefef" stroke-linecap="butt" stroke-linejoin="miter" stroke-width="2"/>
<path d="M405.13 213.65L406.88 187.44L410.92 187.51L409.3 213.72L405.13 213.65Z" fill="#e5e7eb" fill-rule="nonzero" opacity="1" stroke="#efefef" stroke-linecap="butt" stroke-linejoin="miter" stroke-width="2"/>
<path d="M272.92 269.07L341.46 217.47L343.14 193.41L350.5 181.02L354.45 181.29L347.18 193.62L345.63 217.8L276.91 269.75L272.92 269.07Z" fill="#e5e7eb" fill-rule="nonzero" opacity="1" stroke="#efefef" stroke-linecap="butt" stroke-linejoin="miter" stroke-width="2"/>
<path d="M220.72 208.33L260.44 169.04L264.21 169.42L224.65 208.73L220.72 208.33Z" fill="#e5e7eb" fill-rule="nonzero" opacity="1" stroke="#efefef" stroke-linecap="butt" stroke-linejoin="miter" stroke-width="2"/>
<path d="M224.01 218.98L225.52 217.59L327.63 229.44L326.27 230.87L224.01 218.98Z" fill="#e5e7eb" fill-rule="nonzero" opacity="1" stroke="#efefef" stroke-linecap="butt" stroke-linejoin="miter" stroke-width="2"/>
<path d="M217.91 234.73L220.07 232.56L310.43 242.24L308.48 244.46L217.91 234.73Z" fill="#e5e7eb" fill-rule="nonzero" opacity="1" stroke="#efefef" stroke-linecap="butt" stroke-linejoin="miter" stroke-width="2"/>
<path d="M202.55 250.03L203.95 248.52L290.64 257.26L289.37 258.8L202.55 250.03Z" fill="#e5e7eb" fill-rule="nonzero" opacity="1" stroke="#efefef" stroke-linecap="butt" stroke-linejoin="miter" stroke-width="2"/>
<path d="M228.73 269.84L244.38 253.41L262.02 238.2L266 238.74L248.46 253.91L232.93 270.32L228.73 269.84Z" fill="#e5e7eb" fill-rule="nonzero" opacity="1" stroke="#efefef" stroke-linecap="butt" stroke-linejoin="miter" stroke-width="2"/>
<path d="M227.36 203.87L228.77 202.52L344.3 214.89L343.06 216.28L227.36 203.87Z" fill="#e5e7eb" fill-rule="nonzero" opacity="1" stroke="#efefef" stroke-linecap="butt" stroke-linejoin="miter" stroke-width="2"/>
<path d="M246.96 184.47L248.25 183.17L345.72 192.88L344.56 194.21L246.96 184.47Z" fill="#e5e7eb" fill-rule="nonzero" opacity="1" stroke="#efefef" stroke-linecap="butt" stroke-linejoin="miter" stroke-width="2"/>
<path d="M67.66 269.95L77.89 256.16L82.16 256.41L72 270.21L67.66 269.95Z" fill="#e5e7eb" fill-rule="nonzero" opacity="1" stroke="#efefef" stroke-linecap="butt" stroke-linejoin="miter" stroke-width="2"/>
<g opacity="1">
<path d="M549.23-8.37L552.31-8.43L555.52-3.41L552.42-3.35L549.24-8.37L549.23-8.37ZM555.65 1.74L558.77 1.68L562.08 6.85L558.93 6.91C558.93 6.91 555.65 1.74 555.65 1.74ZM562.27 12.17L565.44 12.11L568.85 17.44L565.66 17.51L562.28 12.18L562.27 12.17ZM569.09 22.92L572.31 22.85L575.83 28.35L572.59 28.42L569.1 22.92L569.09 22.92ZM576.13 34.01L579.4 33.94L583.03 39.62L579.74 39.69L576.14 34.01L576.13 34.01ZM583.4 45.46L586.72 45.39L590.47 51.26L587.12 51.33L583.4 45.46ZM594.48 57.19L596.74 56.53L612.78 60.97L610.52 61.64L594.48 57.19ZM626.75 66.14L629 65.46L645.42 70.01L643.17 70.7L626.75 66.15L626.75 66.14ZM659.79 75.3L662.04 74.6L678.86 79.26L676.62 79.96L659.8 75.3L659.79 75.3ZM693.63 84.68L695.87 83.97L713.09 88.74L710.85 89.46L693.62 84.68L693.63 84.68ZM728.3 94.29L730.53 93.56L748.18 98.45L745.95 99.19C745.95 99.19 728.3 94.29 728.3 94.29Z" fill="#e5e7eb" fill-rule="nonzero" opacity="1" stroke="#efefef" stroke-linecap="butt" stroke-linejoin="miter" stroke-width="2"/>
<path d="M764.5 111.25L771.47 106.28L763.82 104.16L766.04 103.41L775.89 106.14L768.96 111.1L776.69 113.26L774.45 114.03L764.5 111.25Z" fill="#e5e7eb" fill-rule="nonzero" opacity="1" stroke="#efefef" stroke-linecap="butt" stroke-linejoin="miter" stroke-width="2"/>
</g>
<path d="M-211.58 146.57L-195.71 140.14L-192.73 140.75L-208.59 147.19L-211.59 146.57L-211.58 146.57ZM-180.08 133.81L-164.71 127.58L-161.75 128.17L-177.11 134.41L-180.08 133.81ZM-140.36 125.73L-117.12 124.46L-117.09 125.62L-140.36 126.89L-140.36 125.73ZM-93.96 123.2L-75.39 122.19L-73.97 124.42L-77.76 124.82L-78.58 123.53L-93.91 124.37L-93.97 123.22L-93.96 123.2ZM-115.13 164.67L-103.97 158.58L-100.57 159.07L-110.55 164.52L-109.13 165.47L-112.85 166.19L-115.13 164.66L-115.13 164.67ZM-103.03 172.75L-99.29 172.02L-89.31 178.67L-93.07 179.41C-93.07 179.41-103.03 172.75-103.03 172.75ZM-91.1 151.57L-78.45 144.68L-75.1 145.16L-87.72 152.06L-91.09 151.57L-91.1 151.57ZM-73.49 131.5L-69.68 131.1L-65.33 137.9L-69.17 138.31C-69.17 138.31-73.49 131.5-73.49 131.5ZM-82.95 186.17L-79.17 185.42L-68.87 192.28L-72.67 193.05L-82.95 186.18L-82.95 186.17ZM-62.23 200.01L-58.41 199.23L-50.15 204.73L-48.63 204.45L-47.09 205.68L-52.32 206.63L-62.24 200L-62.23 200.01ZM-25.15 200.2L-21.12 199.47L-9.46 206.17L-13.18 207.01L-23.04 201.32L-23.58 201.42L-25.15 200.2ZM-1.11 213.99L2.63 213.13L14.93 220.2L11.18 221.07L-1.1 213.99L-1.11 213.99ZM23.65 228.26L27.42 227.37L40.11 234.66L36.32 235.56L23.65 228.25L23.65 228.26ZM55.21 241.23L57.47 239.83L79.92 243.7L77.68 245.11L55.2 241.22L55.21 241.23ZM100.35 249.03L102.56 247.61L125.37 251.55L123.19 252.98C123.19 252.98 100.35 249.03 100.35 249.03ZM146.21 256.96L148.37 255.52L171.55 259.52L169.42 260.98L146.22 256.97L146.21 256.96ZM192.81 265.02L194.91 263.55L215.03 267.02L212.95 268.5C212.95 268.5 192.81 265.02 192.81 265.02Z" fill="#e5e7eb" fill-rule="nonzero" opacity="1" stroke="#efefef" stroke-linecap="butt" stroke-linejoin="miter" stroke-width="2"/>
</g>
</g>
</g>
</svg>
