<?xml version="1.0" encoding="UTF-8"?>
<svg width="700pt" height="700pt" version="1.1" viewBox="0 0 700 700" xmlns="http://www.w3.org/2000/svg" xmlns:xlink="http://www.w3.org/1999/xlink">
 <g>
  <path d="m350 28c-16.324 0-44.109 184.81-55.648 196.35-11.543 11.539-196.35 39.324-196.35 55.648s184.81 44.109 196.35 55.648c11.539 11.543 39.324 196.35 55.648 196.35s44.109-184.81 55.648-196.35c11.543-11.539 196.35-39.324 196.35-55.648s-184.81-44.109-196.35-55.648c-11.539-11.543-39.324-196.35-55.648-196.35z"/>
  <use x="70" y="644" xlink:href="#h"/>
  <use x="90.550781" y="644" xlink:href="#e"/>
  <use x="104.359375" y="644" xlink:href="#a"/>
  <use x="123.347656" y="644" xlink:href="#c"/>
  <use x="142.242188" y="644" xlink:href="#b"/>
  <use x="155.628906" y="644" xlink:href="#a"/>
  <use x="174.617188" y="644" xlink:href="#l"/>
  <use x="204.410156" y="644" xlink:href="#k"/>
  <use x="224.453125" y="644" xlink:href="#j"/>
  <use x="252.453125" y="644" xlink:href="#i"/>
  <use x="262.867188" y="644" xlink:href="#g"/>
  <use x="292.046875" y="644" xlink:href="#c"/>
  <use x="310.9375" y="644" xlink:href="#f"/>
  <use x="330.984375" y="644" xlink:href="#a"/>
  <use x="349.972656" y="644" xlink:href="#h"/>
  <use x="370.523438" y="644" xlink:href="#c"/>
  <use x="389.414062" y="644" xlink:href="#b"/>
  <use x="402.800781" y="644" xlink:href="#c"/>
  <use x="421.695312" y="644" xlink:href="#u"/>
  <use x="431.292969" y="644" xlink:href="#d"/>
  <use x="450.53125" y="644" xlink:href="#f"/>
  <use x="70" y="672" xlink:href="#t"/>
  <use x="82.183594" y="672" xlink:href="#e"/>
  <use x="95.992188" y="672" xlink:href="#d"/>
  <use x="115.226562" y="672" xlink:href="#g"/>
  <use x="154.152344" y="672" xlink:href="#b"/>
  <use x="167.535156" y="672" xlink:href="#s"/>
  <use x="187.46875" y="672" xlink:href="#a"/>
  <use x="216.207031" y="672" xlink:href="#r"/>
  <use x="239.640625" y="672" xlink:href="#d"/>
  <use x="258.878906" y="672" xlink:href="#q"/>
  <use x="278.8125" y="672" xlink:href="#p"/>
  <use x="308.492188" y="672" xlink:href="#o"/>
  <use x="329.015625" y="672" xlink:href="#e"/>
  <use x="342.820312" y="672" xlink:href="#d"/>
  <use x="362.058594" y="672" xlink:href="#n"/>
  <use x="371.65625" y="672" xlink:href="#a"/>
  <use x="390.648438" y="672" xlink:href="#m"/>
  <use x="407.242188" y="672" xlink:href="#b"/>
 </g>
</svg>
