<svg width="512" height="512" viewBox="0 0 512 512" fill="none" xmlns="http://www.w3.org/2000/svg">
<path d="M240 9.23689C249.9 3.52064 262.099 3.52065 272 9.2369L461.702 118.762C471.603 124.478 477.702 135.042 477.702 146.475L477.702 365.524C477.702 376.957 471.603 387.521 461.702 393.237L272 502.762C262.099 508.478 249.9 508.478 240 502.762L50.2969 393.237C40.396 387.521 34.2969 376.957 34.2969 365.524L34.2969 146.475C34.2969 135.042 40.396 124.478 50.2969 118.762L240 9.23689Z" fill="url(#paint0_linear_261_262)"/>
<g filter="url(#filter0_d_261_262)">
<path d="M242.498 47.7665C250.853 42.9428 261.147 42.9428 269.501 47.7665L429.584 140.19C437.939 145.014 443.085 153.928 443.085 163.576V348.423C443.085 358.07 437.939 366.985 429.584 371.808L269.501 464.232C261.147 469.056 250.853 469.056 242.498 464.232L82.4158 371.808C74.0609 366.985 68.9141 358.07 68.9141 348.423V163.576C68.9141 153.928 74.0609 145.014 82.4158 140.19L242.498 47.7665Z" fill="#52F3AD"/>
</g>
<mask id="mask0_261_262" style="mask-type:alpha" maskUnits="userSpaceOnUse" x="68" y="44" width="376" height="424">
<path d="M242.498 47.7662C250.853 42.9425 261.147 42.9425 269.501 47.7662L429.584 140.19C437.939 145.013 443.085 153.928 443.085 163.575V348.422C443.085 358.07 437.939 366.984 429.584 371.808L269.501 464.232C261.147 469.055 250.853 469.055 242.498 464.232L82.4158 371.808C74.0609 366.984 68.9141 358.07 68.9141 348.422V163.575C68.9141 153.928 74.0609 145.013 82.4158 140.19L242.498 47.7662Z" fill="url(#paint1_linear_261_262)"/>
</mask>
<g mask="url(#mask0_261_262)">
<path d="M447.953 -10.1206L308.958 217.243L567.714 153.531L321.624 255.773L568.411 356.322L309.223 294.389L449.777 520.793L276.493 318.342L257.126 584.121L235.934 318.481L64.0453 522.118L203.04 294.754L-55.7156 358.466L190.375 256.224L-56.4121 155.675L202.775 217.608L62.2219 -8.79577L235.506 193.656L254.872 -72.124L276.064 193.516L447.953 -10.1206Z" fill="white" fill-opacity="0.26"/>
<path d="M209.048 442.834H302.953V474.136H209.048V442.834ZM332.783 344.422C348.903 325.547 365.556 306.03 365.556 270.675C365.556 210.278 316.397 161.119 256 161.119C195.604 161.119 146.444 210.278 146.444 270.675C146.444 306.437 163.144 325.891 179.327 344.703C184.93 351.245 190.736 358.022 196.292 365.816C198.546 369.04 202.24 381.405 205.542 395.882H193.146V427.183H318.854V395.882H306.49C309.823 381.373 313.533 368.978 315.771 365.754C321.28 357.881 327.133 351.042 332.783 344.422Z" fill="url(#paint2_linear_261_262)"/>
</g>
<g filter="url(#filter1_d_261_262)">
<path d="M284.314 123.21L284.322 314.718C284.159 322.121 281.105 329.165 275.812 334.344C270.519 339.522 263.409 342.422 256.005 342.423C248.6 342.424 241.49 339.526 236.196 334.349C230.901 329.172 227.845 322.128 227.68 314.726L227.688 123.202C227.687 118.833 228.981 114.561 231.404 110.925L255.997 74.032L280.598 110.933C283.021 114.569 284.315 118.84 284.314 123.21V123.21Z" fill="url(#paint3_linear_261_262)"/>
</g>
<path d="M284.322 314.718L284.314 123.21C284.315 118.84 283.021 114.568 280.598 110.933L255.997 74.0318L256.005 342.423C263.409 342.422 270.519 339.522 275.812 334.343C281.105 329.165 284.159 322.12 284.322 314.718Z" fill="url(#paint4_linear_261_262)"/>
<path d="M333.621 80.1914V80.1914C336.481 88.8866 343.301 95.7066 351.996 98.5663V98.5663V98.5663C343.301 101.426 336.481 108.246 333.621 116.941V116.941V116.941C330.761 108.246 323.941 101.426 315.246 98.5663V98.5663V98.5663C323.941 95.7066 330.761 88.8866 333.621 80.1914V80.1914Z" fill="white"/>
<path d="M121.805 324.64V324.64C123.985 331.271 129.187 336.472 135.818 338.653V338.653V338.653C129.187 340.834 123.985 346.035 121.805 352.667V352.667V352.667C119.624 346.035 114.422 340.834 107.791 338.653V338.653V338.653C114.422 336.472 119.624 331.271 121.805 324.64V324.64Z" fill="white"/>
<path d="M405.16 217.265V217.265C407.069 223.071 411.623 227.624 417.429 229.534V229.534V229.534C411.623 231.443 407.069 235.997 405.16 241.803V241.803V241.803C403.25 235.997 398.697 231.443 392.891 229.534V229.534V229.534C398.697 227.624 403.25 223.071 405.16 217.265V217.265Z" fill="white"/>
<path d="M159.469 144.427V144.427C161.378 150.234 165.932 154.787 171.738 156.697V156.697V156.697C165.932 158.606 161.378 163.16 159.469 168.966V168.966V168.966C157.559 163.16 153.005 158.606 147.199 156.697V156.697V156.697C153.005 154.787 157.559 150.234 159.469 144.427V144.427Z" fill="white"/>
<defs>
<filter id="filter0_d_261_262" x="59.9141" y="39.1487" width="392.171" height="441.701" filterUnits="userSpaceOnUse" color-interpolation-filters="sRGB">
<feFlood flood-opacity="0" result="BackgroundImageFix"/>
<feColorMatrix in="SourceAlpha" type="matrix" values="0 0 0 0 0 0 0 0 0 0 0 0 0 0 0 0 0 0 127 0" result="hardAlpha"/>
<feOffset dy="4"/>
<feGaussianBlur stdDeviation="4.5"/>
<feComposite in2="hardAlpha" operator="out"/>
<feColorMatrix type="matrix" values="0 0 0 0 0 0 0 0 0 0 0 0 0 0 0 0 0 0 0.25 0"/>
<feBlend mode="normal" in2="BackgroundImageFix" result="effect1_dropShadow_261_262"/>
<feBlend mode="normal" in="SourceGraphic" in2="effect1_dropShadow_261_262" result="shape"/>
</filter>
<filter id="filter1_d_261_262" x="167.68" y="38.032" width="176.643" height="388.391" filterUnits="userSpaceOnUse" color-interpolation-filters="sRGB">
<feFlood flood-opacity="0" result="BackgroundImageFix"/>
<feColorMatrix in="SourceAlpha" type="matrix" values="0 0 0 0 0 0 0 0 0 0 0 0 0 0 0 0 0 0 127 0" result="hardAlpha"/>
<feOffset dy="24"/>
<feGaussianBlur stdDeviation="30"/>
<feComposite in2="hardAlpha" operator="out"/>
<feColorMatrix type="matrix" values="0 0 0 0 0.698039 0 0 0 0 0.278431 0 0 0 0 0.815686 0 0 0 1 0"/>
<feBlend mode="normal" in2="BackgroundImageFix" result="effect1_dropShadow_261_262"/>
<feBlend mode="normal" in="SourceGraphic" in2="effect1_dropShadow_261_262" result="shape"/>
</filter>
<linearGradient id="paint0_linear_261_262" x1="256" y1="4.94971" x2="256" y2="507.049" gradientUnits="userSpaceOnUse">
<stop stop-color="#21D78A"/>
<stop offset="1" stop-color="#82FFCA"/>
</linearGradient>
<linearGradient id="paint1_linear_261_262" x1="256" y1="44.1484" x2="256" y2="467.849" gradientUnits="userSpaceOnUse">
<stop stop-color="#52F3AD"/>
<stop offset="1" stop-color="#CCFAFF"/>
</linearGradient>
<linearGradient id="paint2_linear_261_262" x1="325.777" y1="44.3072" x2="256.001" y2="539.848" gradientUnits="userSpaceOnUse">
<stop stop-color="#FE9603"/>
<stop offset="1" stop-color="#FFFE10"/>
</linearGradient>
<linearGradient id="paint3_linear_261_262" x1="255.999" y1="316.563" x2="240.599" y2="94.216" gradientUnits="userSpaceOnUse">
<stop stop-color="#9700FF"/>
<stop offset="0.969464" stop-color="#6500AA"/>
</linearGradient>
<linearGradient id="paint4_linear_261_262" x1="258.933" y1="332.58" x2="258.933" y2="89.506" gradientUnits="userSpaceOnUse">
<stop stop-color="#E587FF"/>
<stop offset="1" stop-color="#911CB1"/>
</linearGradient>
</defs>
</svg>
