<svg width="512" height="512" viewBox="0 0 512 512" fill="none" xmlns="http://www.w3.org/2000/svg">
<path d="M240 9.23689C249.9 3.52064 262.099 3.52065 272 9.2369L461.702 118.762C471.603 124.478 477.702 135.042 477.702 146.475L477.702 365.524C477.702 376.957 471.603 387.521 461.702 393.237L272 502.762C262.099 508.478 249.9 508.478 240 502.762L50.2969 393.237C40.396 387.521 34.2969 376.957 34.2969 365.524L34.2969 146.475C34.2969 135.042 40.396 124.478 50.2969 118.762L240 9.23689Z" fill="url(#paint0_linear_261_293)"/>
<g filter="url(#filter0_d_261_293)">
<path d="M242.498 47.7665C250.853 42.9428 261.147 42.9428 269.501 47.7665L429.584 140.19C437.939 145.014 443.085 153.928 443.085 163.576V348.423C443.085 358.07 437.939 366.985 429.584 371.808L269.501 464.232C261.147 469.056 250.853 469.056 242.498 464.232L82.4158 371.808C74.0609 366.985 68.9141 358.07 68.9141 348.423V163.576C68.9141 153.928 74.0609 145.014 82.4158 140.19L242.498 47.7665Z" fill="#52F3AD"/>
</g>
<mask id="mask0_261_293" style="mask-type:alpha" maskUnits="userSpaceOnUse" x="68" y="44" width="376" height="424">
<path d="M242.498 47.7662C250.853 42.9425 261.147 42.9425 269.501 47.7662L429.584 140.19C437.939 145.013 443.085 153.928 443.085 163.575V348.422C443.085 358.07 437.939 366.984 429.584 371.808L269.501 464.232C261.147 469.055 250.853 469.055 242.498 464.232L82.4158 371.808C74.0609 366.984 68.9141 358.07 68.9141 348.422V163.575C68.9141 153.928 74.0609 145.013 82.4158 140.19L242.498 47.7662Z" fill="url(#paint1_linear_261_293)"/>
</mask>
<g mask="url(#mask0_261_293)">
<path d="M447.953 -10.1206L308.958 217.243L567.714 153.531L321.624 255.773L568.411 356.322L309.223 294.389L449.777 520.793L276.493 318.342L257.126 584.121L235.934 318.481L64.0453 522.118L203.04 294.754L-55.7156 358.466L190.375 256.224L-56.4121 155.675L202.775 217.608L62.2219 -8.79577L235.506 193.656L254.872 -72.124L276.064 193.516L447.953 -10.1206Z" fill="white" fill-opacity="0.26"/>
</g>
<path d="M155.646 344.408V344.408C157.827 351.04 163.028 356.241 169.66 358.422V358.422V358.422C163.028 360.603 157.827 365.804 155.646 372.436V372.436V372.436C153.465 365.804 148.264 360.603 141.633 358.422V358.422V358.422C148.264 356.241 153.465 351.04 155.646 344.408V344.408Z" fill="white"/>
<path d="M405.16 217.265V217.265C407.069 223.071 411.623 227.624 417.429 229.534V229.534V229.534C411.623 231.443 407.069 235.997 405.16 241.803V241.803V241.803C403.25 235.997 398.697 231.443 392.891 229.534V229.534V229.534C398.697 227.624 403.25 223.071 405.16 217.265V217.265Z" fill="white"/>
<path d="M279.199 372.436V372.436C281.109 378.242 285.662 382.795 291.468 384.705V384.705V384.705C285.662 386.614 281.109 391.168 279.199 396.974V396.974V396.974C277.29 391.168 272.736 386.614 266.93 384.705V384.705V384.705C272.736 382.795 277.29 378.242 279.199 372.436V372.436Z" fill="white"/>
<path d="M303.738 98.9023V98.9023C305.648 104.708 310.201 109.262 316.007 111.172V111.172V111.172C310.201 113.081 305.648 117.635 303.738 123.441V123.441V123.441C301.829 117.635 297.275 113.081 291.469 111.172V111.172V111.172C297.275 109.262 301.829 104.708 303.738 98.9023V98.9023Z" fill="white"/>
<path d="M303.831 256.86C311.327 238.784 313.975 219.066 311.515 199.653L328.516 199.61C329.395 202.979 331.107 206.072 333.495 208.606C335.882 211.139 338.868 213.032 342.178 214.11C345.488 215.188 349.016 215.417 352.437 214.775C355.859 214.133 359.064 212.642 361.758 210.437L382.115 226.255C380.301 229.686 379.484 233.556 379.759 237.428C380.033 241.299 381.386 245.016 383.666 248.157C385.945 251.298 389.06 253.738 392.655 255.199C396.251 256.66 400.184 257.084 404.008 256.423L411.071 280.163C407.849 281.968 405.166 284.6 403.298 287.786C401.431 290.973 400.446 294.599 400.446 298.293C400.446 301.986 401.431 305.613 403.298 308.799C405.166 311.986 407.849 314.617 411.071 316.422L403.994 340.162C400.17 339.502 396.237 339.926 392.641 341.387C389.045 342.848 385.931 345.287 383.652 348.428C381.372 351.569 380.019 355.287 379.745 359.158C379.47 363.029 380.287 366.9 382.101 370.331L361.758 386.148C359.064 383.941 355.857 382.446 352.434 381.803C349.011 381.159 345.481 381.387 342.168 382.465C338.856 383.543 335.869 385.438 333.48 387.973C331.092 390.509 329.38 393.605 328.502 396.975L296.021 396.891C295.131 393.541 293.415 390.467 291.032 387.95C288.648 385.432 285.673 383.552 282.376 382.48C279.08 381.408 275.567 381.178 272.159 381.811C268.751 382.444 265.555 383.921 262.864 386.106L242.536 370.162C244.301 366.744 245.083 362.903 244.793 359.068C244.504 355.232 243.154 351.552 240.896 348.438C238.637 345.324 235.558 342.899 232.002 341.433C228.445 339.967 224.552 339.517 220.755 340.134L216.356 325.247C236.09 322.307 254.683 314.161 270.223 301.648C270.907 310.209 274.181 318.358 279.609 325.013C285.038 331.667 292.363 336.512 300.612 338.901C308.86 341.291 317.641 341.113 325.786 338.391C333.931 335.67 341.054 330.533 346.209 323.664C351.363 316.795 354.304 308.519 354.641 299.938C354.978 291.357 352.694 282.877 348.094 275.625C343.494 268.373 336.795 262.693 328.888 259.342C320.982 255.99 312.242 255.124 303.831 256.86Z" fill="url(#paint2_linear_261_293)"/>
<g filter="url(#filter1_di_261_293)">
<path d="M298.291 195.578C295.068 197.383 292.385 200.015 290.518 203.201C288.65 206.388 287.666 210.014 287.666 213.708C287.666 217.401 288.65 221.028 290.518 224.215C292.385 227.401 295.068 230.032 298.291 231.837L291.214 255.577C287.389 254.917 283.456 255.341 279.861 256.802C276.265 258.263 273.151 260.702 270.871 263.843C268.592 266.984 267.238 270.702 266.964 274.573C266.69 278.444 267.506 282.315 269.32 285.746L248.978 301.563C246.283 299.356 243.077 297.861 239.654 297.218C236.23 296.574 232.7 296.802 229.388 297.88C226.076 298.958 223.088 300.853 220.7 303.388C218.312 305.924 216.6 309.02 215.722 312.39L183.241 312.306C182.35 308.956 180.635 305.882 178.251 303.365C175.868 300.847 172.892 298.967 169.596 297.895C166.299 296.823 162.787 296.593 159.378 297.226C155.97 297.86 152.775 299.336 150.084 301.521L129.755 285.577C131.521 282.159 132.302 278.319 132.013 274.483C131.723 270.647 130.374 266.967 128.115 263.853C125.857 260.739 122.778 258.314 119.221 256.848C115.665 255.382 111.771 254.932 107.975 255.549L100.926 231.724C104.091 229.903 106.72 227.278 108.549 224.117C110.377 220.955 111.34 217.367 111.34 213.715C111.34 210.063 110.377 206.475 108.549 203.313C106.72 200.151 104.091 197.527 100.926 195.705L107.975 171.881C111.771 172.498 115.665 172.048 119.221 170.582C122.778 169.116 125.857 166.69 128.115 163.577C130.374 160.463 131.723 156.783 132.013 152.947C132.302 149.111 131.521 145.27 129.755 141.853L150.084 125.88C152.775 128.069 155.972 129.548 159.381 130.183C162.791 130.819 166.306 130.589 169.605 129.517C172.904 128.445 175.881 126.563 178.265 124.044C180.65 121.525 182.365 118.448 183.255 115.096L215.722 115.025C216.601 118.394 218.313 121.487 220.7 124.021C223.087 126.554 226.073 128.447 229.383 129.525C232.693 130.603 236.221 130.832 239.643 130.19C243.064 129.548 246.269 128.057 248.964 125.852L269.32 141.67C267.506 145.101 266.69 148.971 266.964 152.843C267.238 156.714 268.592 160.431 270.871 163.572C273.151 166.714 276.265 169.153 279.861 170.614C283.456 172.075 287.389 172.499 291.214 171.838L298.291 195.578ZM199.608 256C205.162 256 210.662 254.906 215.793 252.781C220.924 250.656 225.586 247.54 229.514 243.613C233.441 239.686 236.556 235.024 238.681 229.892C240.807 224.761 241.901 219.262 241.901 213.708C241.901 208.154 240.807 202.654 238.681 197.523C236.556 192.392 233.441 187.73 229.514 183.803C225.586 179.875 220.924 176.76 215.793 174.635C210.662 172.509 205.162 171.415 199.608 171.415C188.392 171.415 177.634 175.871 169.703 183.803C161.772 191.734 157.316 202.491 157.316 213.708C157.316 224.925 161.772 235.682 169.703 243.613C177.634 251.545 188.392 256 199.608 256Z" fill="url(#paint3_linear_261_293)"/>
</g>
<path d="M129.361 130.843V130.843C131.271 136.649 135.824 141.203 141.63 143.112V143.112V143.112C135.824 145.022 131.271 149.576 129.361 155.382V155.382V155.382C127.452 149.576 122.898 145.022 117.092 143.112V143.112V143.112C122.898 141.203 127.452 136.649 129.361 130.843V130.843Z" fill="white"/>
<defs>
<filter id="filter0_d_261_293" x="59.9141" y="39.1487" width="392.171" height="441.701" filterUnits="userSpaceOnUse" color-interpolation-filters="sRGB">
<feFlood flood-opacity="0" result="BackgroundImageFix"/>
<feColorMatrix in="SourceAlpha" type="matrix" values="0 0 0 0 0 0 0 0 0 0 0 0 0 0 0 0 0 0 127 0" result="hardAlpha"/>
<feOffset dy="4"/>
<feGaussianBlur stdDeviation="4.5"/>
<feComposite in2="hardAlpha" operator="out"/>
<feColorMatrix type="matrix" values="0 0 0 0 0 0 0 0 0 0 0 0 0 0 0 0 0 0 0.25 0"/>
<feBlend mode="normal" in2="BackgroundImageFix" result="effect1_dropShadow_261_293"/>
<feBlend mode="normal" in="SourceGraphic" in2="effect1_dropShadow_261_293" result="shape"/>
</filter>
<filter id="filter1_di_261_293" x="100.926" y="110.025" width="263.365" height="253.365" filterUnits="userSpaceOnUse" color-interpolation-filters="sRGB">
<feFlood flood-opacity="0" result="BackgroundImageFix"/>
<feColorMatrix in="SourceAlpha" type="matrix" values="0 0 0 0 0 0 0 0 0 0 0 0 0 0 0 0 0 0 127 0" result="hardAlpha"/>
<feOffset dx="38" dy="23"/>
<feGaussianBlur stdDeviation="14"/>
<feComposite in2="hardAlpha" operator="out"/>
<feColorMatrix type="matrix" values="0 0 0 0 0 0 0 0 0 0 0 0 0 0 0 0 0 0 0.36 0"/>
<feBlend mode="normal" in2="BackgroundImageFix" result="effect1_dropShadow_261_293"/>
<feBlend mode="normal" in="SourceGraphic" in2="effect1_dropShadow_261_293" result="shape"/>
<feColorMatrix in="SourceAlpha" type="matrix" values="0 0 0 0 0 0 0 0 0 0 0 0 0 0 0 0 0 0 127 0" result="hardAlpha"/>
<feOffset dx="3" dy="-13"/>
<feGaussianBlur stdDeviation="2"/>
<feComposite in2="hardAlpha" operator="arithmetic" k2="-1" k3="1"/>
<feColorMatrix type="matrix" values="0 0 0 0 0 0 0 0 0 0 0 0 0 0 0 0 0 0 0.25 0"/>
<feBlend mode="normal" in2="shape" result="effect2_innerShadow_261_293"/>
</filter>
<linearGradient id="paint0_linear_261_293" x1="256" y1="4.94971" x2="256" y2="507.049" gradientUnits="userSpaceOnUse">
<stop stop-color="#21D78A"/>
<stop offset="1" stop-color="#82FFCA"/>
</linearGradient>
<linearGradient id="paint1_linear_261_293" x1="256" y1="44.1484" x2="256" y2="467.849" gradientUnits="userSpaceOnUse">
<stop stop-color="#52F3AD"/>
<stop offset="1" stop-color="#CCFAFF"/>
</linearGradient>
<linearGradient id="paint2_linear_261_293" x1="353.395" y1="184.854" x2="239.653" y2="392.818" gradientUnits="userSpaceOnUse">
<stop stop-color="#DE7EF8"/>
<stop offset="0.745306" stop-color="#6500AA"/>
</linearGradient>
<linearGradient id="paint3_linear_261_293" x1="214.015" y1="177.782" x2="102.212" y2="330.701" gradientUnits="userSpaceOnUse">
<stop stop-color="#FE9603"/>
<stop offset="1" stop-color="#FFFE10"/>
</linearGradient>
</defs>
</svg>
