<svg width="512" height="512" viewBox="0 0 512 512" fill="none" xmlns="http://www.w3.org/2000/svg">
<g clip-path="url(#clip0_261_275)">
<path d="M240 9.23689C249.9 3.52064 262.099 3.52065 272 9.2369L461.702 118.762C471.603 124.478 477.702 135.042 477.702 146.475L477.702 365.524C477.702 376.957 471.603 387.521 461.702 393.237L272 502.762C262.099 508.478 249.9 508.478 240 502.762L50.2969 393.237C40.396 387.521 34.2969 376.957 34.2969 365.524L34.2969 146.475C34.2969 135.042 40.396 124.478 50.2969 118.762L240 9.23689Z" fill="url(#paint0_linear_261_275)"/>
<g filter="url(#filter0_d_261_275)">
<path d="M242.498 47.7665C250.853 42.9428 261.147 42.9428 269.501 47.7665L429.584 140.19C437.939 145.014 443.085 153.928 443.085 163.576V348.423C443.085 358.07 437.939 366.985 429.584 371.808L269.501 464.232C261.147 469.056 250.853 469.056 242.498 464.232L82.4158 371.808C74.0609 366.985 68.9141 358.07 68.9141 348.423V163.576C68.9141 153.928 74.0609 145.014 82.4158 140.19L242.498 47.7665Z" fill="#52F3AD"/>
</g>
<mask id="mask0_261_275" style="mask-type:alpha" maskUnits="userSpaceOnUse" x="68" y="44" width="376" height="424">
<path d="M242.498 47.7662C250.853 42.9425 261.147 42.9425 269.501 47.7662L429.584 140.19C437.939 145.013 443.085 153.928 443.085 163.575V348.422C443.085 358.07 437.939 366.984 429.584 371.808L269.501 464.232C261.147 469.055 250.853 469.055 242.498 464.232L82.4158 371.808C74.0609 366.984 68.9141 358.07 68.9141 348.422V163.575C68.9141 153.928 74.0609 145.013 82.4158 140.19L242.498 47.7662Z" fill="url(#paint1_linear_261_275)"/>
</mask>
<g mask="url(#mask0_261_275)">
<path d="M447.953 -10.1206L308.958 217.243L567.714 153.531L321.624 255.773L568.411 356.322L309.223 294.389L449.777 520.793L276.493 318.342L257.126 584.121L235.934 318.481L64.0453 522.118L203.04 294.754L-55.7156 358.466L190.375 256.224L-56.4121 155.675L202.775 217.608L62.2219 -8.79577L235.506 193.656L254.872 -72.124L276.064 193.516L447.953 -10.1206Z" fill="white" fill-opacity="0.26"/>
</g>
<path d="M121.805 324.64V324.64C123.985 331.271 129.187 336.472 135.818 338.653V338.653V338.653C129.187 340.834 123.985 346.035 121.805 352.667V352.667V352.667C119.624 346.035 114.422 340.834 107.791 338.653V338.653V338.653C114.422 336.472 119.624 331.271 121.805 324.64V324.64Z" fill="white"/>
<path d="M405.16 217.265V217.265C407.069 223.071 411.623 227.624 417.429 229.534V229.534V229.534C411.623 231.443 407.069 235.997 405.16 241.803V241.803V241.803C403.25 235.997 398.697 231.443 392.891 229.534V229.534V229.534C398.697 227.624 403.25 223.071 405.16 217.265V217.265Z" fill="white"/>
<path d="M129.39 139.911V139.911C131.3 145.717 135.854 150.271 141.66 152.18V152.18V152.18C135.854 154.09 131.3 158.644 129.39 164.45V164.45V164.45C127.481 158.644 122.927 154.09 117.121 152.18V152.18V152.18C122.927 150.271 127.481 145.717 129.39 139.911V139.911Z" fill="white"/>
<path d="M279.199 372.436V372.436C281.109 378.242 285.662 382.795 291.468 384.705V384.705V384.705C285.662 386.614 281.109 391.168 279.199 396.974V396.974V396.974C277.29 391.168 272.736 386.614 266.93 384.705V384.705V384.705C272.736 382.795 277.29 378.242 279.199 372.436V372.436Z" fill="white"/>
<path d="M303.738 98.9023V98.9023C305.648 104.708 310.201 109.262 316.007 111.172V111.172V111.172C310.201 113.081 305.648 117.635 303.738 123.441V123.441V123.441C301.829 117.635 297.275 113.081 291.469 111.172V111.172V111.172C297.275 109.262 301.829 104.708 303.738 98.9023V98.9023Z" fill="white"/>
<g filter="url(#filter1_di_261_275)">
<path fill-rule="evenodd" clip-rule="evenodd" d="M205.939 184.714C204.089 180.101 198.849 177.86 194.236 179.711L65.3047 231.416C57.1031 234.705 53.1207 244.02 56.4098 252.222L105.51 374.656C108.799 382.857 118.114 386.84 126.315 383.551L255.247 331.845C259.86 329.995 262.1 324.756 260.25 320.142L245.684 283.821C263.022 276.868 271.441 257.176 264.488 239.838C257.534 222.5 237.843 214.081 220.505 221.034L205.939 184.714Z" fill="url(#paint2_linear_261_275)"/>
</g>
<g filter="url(#filter2_di_261_275)">
<path fill-rule="evenodd" clip-rule="evenodd" d="M441.892 257.993C450.093 254.703 454.076 245.388 450.787 237.187L401.687 114.753C398.398 106.551 389.083 102.569 380.881 105.858L254.734 156.446C248.583 158.913 245.596 165.9 248.063 172.051L261.512 205.587C278.85 198.634 298.542 207.053 305.495 224.391C312.448 241.729 304.03 261.421 286.692 268.374L300.141 301.91C302.608 308.061 309.594 311.048 315.745 308.581L441.892 257.993Z" fill="url(#paint3_linear_261_275)"/>
</g>
<path d="M399.055 217.264V217.264C400.964 223.071 405.518 227.625 411.325 229.534V229.534V229.534C405.518 231.444 400.964 235.998 399.055 241.804V241.804V241.804C397.145 235.998 392.591 231.444 386.785 229.534V229.534V229.534C392.591 227.625 397.145 223.071 399.055 217.264V217.264Z" fill="white"/>
</g>
<defs>
<filter id="filter0_d_261_275" x="59.9141" y="39.1487" width="392.171" height="441.701" filterUnits="userSpaceOnUse" color-interpolation-filters="sRGB">
<feFlood flood-opacity="0" result="BackgroundImageFix"/>
<feColorMatrix in="SourceAlpha" type="matrix" values="0 0 0 0 0 0 0 0 0 0 0 0 0 0 0 0 0 0 127 0" result="hardAlpha"/>
<feOffset dy="4"/>
<feGaussianBlur stdDeviation="4.5"/>
<feComposite in2="hardAlpha" operator="out"/>
<feColorMatrix type="matrix" values="0 0 0 0 0 0 0 0 0 0 0 0 0 0 0 0 0 0 0.25 0"/>
<feBlend mode="normal" in2="BackgroundImageFix" result="effect1_dropShadow_261_275"/>
<feBlend mode="normal" in="SourceGraphic" in2="effect1_dropShadow_261_275" result="shape"/>
</filter>
<filter id="filter1_di_261_275" x="-4.74414" y="143.062" width="331.671" height="325.643" filterUnits="userSpaceOnUse" color-interpolation-filters="sRGB">
<feFlood flood-opacity="0" result="BackgroundImageFix"/>
<feColorMatrix in="SourceAlpha" type="matrix" values="0 0 0 0 0 0 0 0 0 0 0 0 0 0 0 0 0 0 127 0" result="hardAlpha"/>
<feOffset dy="24"/>
<feGaussianBlur stdDeviation="30"/>
<feComposite in2="hardAlpha" operator="out"/>
<feColorMatrix type="matrix" values="0 0 0 0 0.698039 0 0 0 0 0.278431 0 0 0 0 0.815686 0 0 0 0.59 0"/>
<feBlend mode="normal" in2="BackgroundImageFix" result="effect1_dropShadow_261_275"/>
<feBlend mode="normal" in="SourceGraphic" in2="effect1_dropShadow_261_275" result="shape"/>
<feColorMatrix in="SourceAlpha" type="matrix" values="0 0 0 0 0 0 0 0 0 0 0 0 0 0 0 0 0 0 127 0" result="hardAlpha"/>
<feOffset dx="-7" dy="-19"/>
<feGaussianBlur stdDeviation="2"/>
<feComposite in2="hardAlpha" operator="arithmetic" k2="-1" k3="1"/>
<feColorMatrix type="matrix" values="0 0 0 0 0 0 0 0 0 0 0 0 0 0 0 0 0 0 0.25 0"/>
<feBlend mode="normal" in2="shape" result="effect2_innerShadow_261_275"/>
</filter>
<filter id="filter2_di_261_275" x="207.198" y="99.7039" width="260.742" height="260.743" filterUnits="userSpaceOnUse" color-interpolation-filters="sRGB">
<feFlood flood-opacity="0" result="BackgroundImageFix"/>
<feColorMatrix in="SourceAlpha" type="matrix" values="0 0 0 0 0 0 0 0 0 0 0 0 0 0 0 0 0 0 127 0" result="hardAlpha"/>
<feOffset dx="-12" dy="23"/>
<feGaussianBlur stdDeviation="14"/>
<feComposite in2="hardAlpha" operator="out"/>
<feColorMatrix type="matrix" values="0 0 0 0 0 0 0 0 0 0 0 0 0 0 0 0 0 0 0.36 0"/>
<feBlend mode="normal" in2="BackgroundImageFix" result="effect1_dropShadow_261_275"/>
<feBlend mode="normal" in="SourceGraphic" in2="effect1_dropShadow_261_275" result="shape"/>
<feColorMatrix in="SourceAlpha" type="matrix" values="0 0 0 0 0 0 0 0 0 0 0 0 0 0 0 0 0 0 127 0" result="hardAlpha"/>
<feOffset dx="4" dy="-22"/>
<feGaussianBlur stdDeviation="2"/>
<feComposite in2="hardAlpha" operator="arithmetic" k2="-1" k3="1"/>
<feColorMatrix type="matrix" values="0 0 0 0 0 0 0 0 0 0 0 0 0 0 0 0 0 0 0.25 0"/>
<feBlend mode="normal" in2="shape" result="effect2_innerShadow_261_275"/>
</filter>
<linearGradient id="paint0_linear_261_275" x1="256" y1="4.94971" x2="256" y2="507.049" gradientUnits="userSpaceOnUse">
<stop stop-color="#21D78A"/>
<stop offset="1" stop-color="#82FFCA"/>
</linearGradient>
<linearGradient id="paint1_linear_261_275" x1="256" y1="44.1484" x2="256" y2="467.849" gradientUnits="userSpaceOnUse">
<stop stop-color="#52F3AD"/>
<stop offset="1" stop-color="#CCFAFF"/>
</linearGradient>
<linearGradient id="paint2_linear_261_275" x1="204.228" y1="163.687" x2="88.4691" y2="384.508" gradientUnits="userSpaceOnUse">
<stop stop-color="#DE7EF8"/>
<stop offset="0.745306" stop-color="#6500AA"/>
</linearGradient>
<linearGradient id="paint3_linear_261_275" x1="350.17" y1="238.622" x2="389.08" y2="86.1858" gradientUnits="userSpaceOnUse">
<stop stop-color="#FE9603"/>
<stop offset="1" stop-color="#FFFE10"/>
</linearGradient>
<clipPath id="clip0_261_275">
<rect width="512" height="512" fill="white"/>
</clipPath>
</defs>
</svg>
