<svg width="512" height="512" viewBox="0 0 512 512" fill="none" xmlns="http://www.w3.org/2000/svg">
<path d="M240 9.23701C249.9 3.52077 262.099 3.52077 272 9.23702L461.702 118.762C471.603 124.478 477.702 135.042 477.702 146.475L477.702 365.525C477.702 376.957 471.603 387.521 461.702 393.237L272 502.762C262.099 508.478 249.9 508.478 240 502.762L50.2969 393.237C40.396 387.521 34.2969 376.957 34.2969 365.524L34.2969 146.475C34.2969 135.042 40.396 124.478 50.2969 118.762L240 9.23701Z" fill="url(#paint0_linear_261_62)"/>
<g filter="url(#filter0_d_261_62)">
<path d="M242.498 47.7663C250.853 42.9426 261.147 42.9426 269.501 47.7663L429.584 140.19C437.939 145.014 443.085 153.928 443.085 163.576V348.423C443.085 358.07 437.939 366.984 429.584 371.808L269.501 464.232C261.147 469.055 250.853 469.055 242.498 464.232L82.4158 371.808C74.0609 366.984 68.9141 358.07 68.9141 348.423V163.576C68.9141 153.928 74.0609 145.014 82.4158 140.19L242.498 47.7663Z" fill="url(#paint1_linear_261_62)"/>
</g>
<mask id="mask0_261_62" style="mask-type:alpha" maskUnits="userSpaceOnUse" x="68" y="44" width="376" height="424">
<path d="M242.498 47.7662C250.853 42.9425 261.147 42.9425 269.501 47.7662L429.584 140.19C437.939 145.013 443.085 153.928 443.085 163.575V348.422C443.085 358.07 437.939 366.984 429.584 371.808L269.501 464.232C261.147 469.055 250.853 469.055 242.498 464.232L82.4158 371.808C74.0609 366.984 68.9141 358.07 68.9141 348.422V163.575C68.9141 153.928 74.0609 145.013 82.4158 140.19L242.498 47.7662Z" fill="url(#paint2_linear_261_62)"/>
</mask>
<g mask="url(#mask0_261_62)">
<path d="M447.953 -10.1206L308.958 217.243L567.714 153.531L321.624 255.773L568.411 356.322L309.223 294.389L449.777 520.793L276.493 318.342L257.126 584.121L235.934 318.481L64.0453 522.118L203.04 294.754L-55.7156 358.466L190.375 256.224L-56.4121 155.675L202.775 217.608L62.2219 -8.79577L235.506 193.656L254.872 -72.124L276.064 193.516L447.953 -10.1206Z" fill="white" fill-opacity="0.32"/>
<path fill-rule="evenodd" clip-rule="evenodd" d="M147.285 325.068C160.498 333.821 174.532 340.708 189.151 343.962C197.185 345.75 206.416 345.681 216.873 342.743C221.432 341.943 225.909 344.394 229.289 347.557C229.547 347.799 229.812 348.037 230.083 348.269C230.246 348.409 230.406 348.55 230.565 348.691C230.689 348.8 230.814 348.91 230.94 349.019C233.041 350.844 243.014 358.414 259.442 354.026C260.234 353.814 261.096 354.117 261.506 354.827C269.474 368.638 289.998 377.932 313.977 379.51C324.028 380.174 333.22 378.49 341.325 375.222C338.525 378.699 335.646 382.07 332.784 385.421L332.56 385.685C326.979 392.223 321.208 398.985 315.772 406.753C313.534 409.978 309.825 422.373 306.491 436.881H318.855V468.183H193.148V436.881H205.543C202.241 422.404 198.547 410.04 196.293 406.816C190.749 399.038 184.956 392.274 179.364 385.745L179.328 385.703C165.289 369.384 150.862 352.581 147.285 325.068ZM302.954 515.135V483.834H209.049V515.135H302.954Z" fill="url(#paint3_linear_261_62)"/>
</g>
<path d="M104.072 302.874C106.253 309.505 111.454 314.707 118.086 316.888C111.454 319.068 106.253 324.27 104.072 330.901C101.891 324.27 96.69 319.068 90.0586 316.888C96.69 314.707 101.891 309.505 104.072 302.874Z" fill="white"/>
<path d="M405.16 217.265C407.069 223.071 411.623 227.624 417.429 229.534C411.623 231.443 407.069 235.997 405.16 241.803C403.25 235.997 398.697 231.443 392.891 229.534C398.697 227.624 403.25 223.071 405.16 217.265Z" fill="white"/>
<path d="M159.469 144.427C161.378 150.234 165.932 154.787 171.738 156.697C165.932 158.606 161.378 163.16 159.469 168.966C157.559 163.16 153.005 158.606 147.199 156.697C153.005 154.787 157.559 150.234 159.469 144.427Z" fill="white"/>
<path d="M363.044 301.35C363.071 303.879 362.418 307.187 361.739 309.913C356.993 329.085 335.917 350.599 306.251 348.642C279.365 346.872 257.467 333.965 257.467 315.865C257.467 297.766 279.312 283.089 306.251 283.089C333.191 283.089 362.874 283.25 363.044 301.35Z" fill="#A60020"/>
<path d="M306.242 286.127C291.771 286.127 258.745 290.131 251.165 290.131C237.776 290.131 226.916 298.533 226.916 308.901C226.916 313.889 229.472 318.393 233.566 321.754C233.566 321.754 242.558 330.773 258.754 326.447C265.842 324.552 277.372 310.483 297.67 308.249C307.779 307.131 326.719 314.952 360.005 315.14C361.435 312.065 361.73 309.929 361.73 309.929C361.73 291.811 333.181 286.127 306.242 286.127Z" fill="#BD0018"/>
<path d="M361.713 309.916C361.713 309.916 381.234 305.956 393.372 289.993C407.521 271.375 405.662 251.452 405.662 251.452C419.999 224.637 401.193 199.494 401.193 199.494C399.325 171.187 381.824 159.461 381.824 159.461C370.464 132.459 345.33 125.201 345.33 125.201C325.594 102.114 290.584 102.855 290.584 102.855C290.584 102.855 257.781 90.8337 212.751 104.348C205.305 106.583 180.35 111.794 162.098 122.966C104.572 158.182 100.22 213.098 101.024 222.027C105.484 271.929 140.495 280.867 162.84 286.078C168.051 300.227 187.232 326.3 221.68 316.62C264.136 309.174 282.012 296.509 292.443 296.509C302.874 296.509 331.922 307.681 361.713 309.916Z" fill="url(#paint4_linear_261_62)"/>
<path d="M254.357 229.674C275.165 218.456 286.445 219.502 296.402 220.405C299.566 220.691 302.56 220.914 305.59 220.896C323.323 220.494 337.687 213.022 344.042 205.791C344.771 204.892 345.123 203.747 345.026 202.594C344.929 201.441 344.389 200.371 343.52 199.607C342.651 198.843 341.52 198.445 340.365 198.497C339.209 198.548 338.118 199.045 337.32 199.883C332.422 205.46 320.347 211.619 305.384 211.958C302.703 212.039 300.013 211.771 297.224 211.511C286.543 210.519 273.279 209.304 250.111 221.808C244.167 225.017 236.016 226.206 227.185 227.099C207.548 198.757 219.364 174.07 222.743 168.188C223.073 168.206 223.395 168.313 223.735 168.313C227.31 168.313 230.903 167.437 234.157 165.596C235.148 164.993 235.865 164.028 236.158 162.905C236.45 161.782 236.294 160.589 235.723 159.579C235.151 158.569 234.21 157.821 233.097 157.492C231.984 157.164 230.787 157.282 229.759 157.82C226.947 159.368 223.655 159.798 220.54 159.024C217.424 158.25 214.716 156.33 212.955 153.646C212.291 152.709 211.291 152.063 210.163 151.844C209.035 151.625 207.866 151.849 206.898 152.469C205.931 153.089 205.24 154.057 204.968 155.174C204.696 156.29 204.864 157.468 205.438 158.464C207.557 161.78 210.542 164.273 213.912 165.945C209.255 175.401 200.415 200.267 217.237 228.074C205.403 229.236 193.551 230.907 184.273 236.887C177.752 241.159 172.064 246.584 167.487 252.895C161.865 251.93 141.281 246.862 137.687 224.016C139.922 222.282 141.727 219.994 142.845 217.169C143.061 216.623 143.167 216.04 143.158 215.453C143.148 214.867 143.024 214.287 142.79 213.749C142.557 213.21 142.22 212.722 141.798 212.314C141.377 211.906 140.879 211.584 140.333 211.368C139.787 211.152 139.204 211.046 138.617 211.055C138.03 211.065 137.451 211.19 136.912 211.423C136.374 211.656 135.886 211.993 135.478 212.415C135.07 212.836 134.748 213.334 134.532 213.88C134.194 214.819 133.656 215.674 132.956 216.386C132.255 217.097 131.409 217.648 130.474 218C129.528 218.315 128.524 218.422 127.533 218.314C126.541 218.206 125.584 217.886 124.727 217.375C124.214 217.09 123.65 216.908 123.067 216.841C122.484 216.774 121.893 216.822 121.329 216.983C120.189 217.308 119.225 218.073 118.649 219.109C118.073 220.145 117.932 221.367 118.257 222.507C118.583 223.647 119.347 224.611 120.383 225.187C122.922 226.599 125.639 227.314 128.338 227.314C128.669 227.314 128.982 227.162 129.312 227.144C133.567 248.712 150.612 258.186 162.669 261.055C161.091 264.415 160.091 268.017 159.711 271.71C159.607 272.89 159.976 274.064 160.737 274.972C161.498 275.881 162.588 276.45 163.769 276.554L164.171 276.572C165.288 276.572 166.365 276.153 167.189 275.399C168.012 274.645 168.524 273.609 168.622 272.496C169.588 261.654 179.929 250.33 189.117 244.386C197.734 238.835 210.345 237.664 222.555 236.529C234.398 235.448 245.588 234.411 254.357 229.674ZM369.355 216.231C369.073 216.746 368.895 217.312 368.832 217.896C368.769 218.479 368.822 219.07 368.987 219.634C369.152 220.197 369.427 220.723 369.795 221.18C370.163 221.638 370.618 222.018 371.133 222.3C371.649 222.581 372.214 222.759 372.798 222.822C373.382 222.885 373.973 222.832 374.536 222.667C375.674 222.334 376.633 221.562 377.202 220.521C377.372 220.217 393.666 189.693 363.16 169.18C362.177 168.519 360.97 168.276 359.807 168.504C358.644 168.731 357.619 169.412 356.957 170.396C356.296 171.38 356.053 172.586 356.28 173.749C356.508 174.913 357.189 175.938 358.173 176.599C381.805 192.491 369.873 215.265 369.355 216.231ZM184.094 144.064C184.803 144.067 185.503 143.899 186.134 143.576C186.766 143.252 187.311 142.782 187.723 142.205C200.683 124.177 218.631 130.344 219.391 130.63C220.492 130.994 221.691 130.915 222.734 130.411C223.778 129.907 224.586 129.017 224.986 127.929C225.386 126.841 225.348 125.64 224.879 124.58C224.411 123.52 223.548 122.683 222.474 122.246C213.894 119.064 194.078 118.063 180.465 136.994C179.987 137.662 179.703 138.448 179.642 139.267C179.582 140.086 179.749 140.906 180.124 141.636C180.498 142.366 181.067 142.979 181.768 143.408C182.468 143.836 183.273 144.063 184.094 144.064ZM300.933 127.189C320.821 125.571 329.866 139.989 330.277 140.668C330.878 141.691 331.861 142.433 333.009 142.731C333.577 142.879 334.169 142.913 334.751 142.832C335.333 142.751 335.893 142.556 336.4 142.259C336.906 141.961 337.349 141.567 337.703 141.098C338.057 140.629 338.315 140.096 338.463 139.527C338.611 138.958 338.645 138.366 338.564 137.785C338.483 137.203 338.288 136.643 337.991 136.136C337.508 135.323 326.014 116.311 300.236 118.278C299.651 118.324 299.081 118.484 298.557 118.75C298.034 119.017 297.569 119.383 297.188 119.829C296.417 120.73 296.037 121.9 296.129 123.082C296.221 124.264 296.78 125.36 297.681 126.131C298.581 126.901 299.752 127.282 300.933 127.189ZM382.717 257.784C380.518 257.659 378.096 259.402 377.899 261.869C377.882 262.03 376.46 277.233 360.828 282.373C359.805 282.694 358.933 283.372 358.37 284.284C357.807 285.195 357.591 286.279 357.761 287.337C357.931 288.395 358.477 289.356 359.298 290.044C360.118 290.733 361.16 291.103 362.231 291.087C362.705 291.087 363.175 291.012 363.625 290.864C384.826 283.91 386.739 263.478 386.811 262.611C386.905 261.428 386.527 260.257 385.76 259.353C384.993 258.448 383.899 257.884 382.717 257.784Z" fill="white" fill-opacity="0.78"/>
<path d="M161.485 214.358C161.31 214.931 161.251 215.534 161.313 216.131C161.375 216.727 161.557 217.305 161.847 217.83C162.137 218.355 162.53 218.816 163.003 219.186C163.475 219.556 164.017 219.827 164.596 219.983C165.175 220.139 165.779 220.176 166.373 220.094C166.968 220.011 167.539 219.81 168.054 219.502C168.568 219.194 169.016 218.786 169.369 218.301C169.722 217.816 169.975 217.266 170.111 216.681C170.971 213.585 172.973 210.928 175.712 209.247C178.451 207.566 181.726 206.984 184.877 207.618C185.451 207.739 186.044 207.744 186.621 207.636C187.197 207.527 187.747 207.306 188.239 206.985C188.73 206.663 189.153 206.249 189.484 205.764C189.815 205.279 190.048 204.734 190.168 204.159C190.288 203.585 190.294 202.992 190.185 202.415C190.077 201.838 189.855 201.288 189.534 200.797C189.213 200.306 188.798 199.882 188.313 199.551C187.829 199.22 187.283 198.988 186.709 198.868C182.989 198.113 179.135 198.379 175.554 199.636C165.132 181.814 167.161 164.242 167.188 164.054C167.341 162.88 167.023 161.694 166.305 160.753C165.587 159.812 164.526 159.193 163.354 159.031C162.183 158.88 161 159.196 160.06 159.91C159.12 160.624 158.499 161.679 158.33 162.847C158.214 163.714 155.828 183.548 167.832 204.088C164.767 206.825 162.563 210.392 161.485 214.358ZM261.405 192.28C263.189 190.657 265.521 189.768 267.934 189.793C270.346 189.818 272.659 190.755 274.41 192.414C275.263 193.235 276.406 193.685 277.59 193.667C278.773 193.648 279.902 193.163 280.729 192.316C281.555 191.466 282.01 190.323 281.993 189.138C281.976 187.953 281.489 186.823 280.64 185.997C278.621 184.076 276.181 182.653 273.516 181.841C276.162 172.76 275.116 168.728 272.658 161.176C272.171 159.698 271.703 158.214 271.255 156.725L270.986 155.831C267.733 145.033 265.579 137.91 271.764 127.854C272.385 126.845 272.58 125.629 272.305 124.476C272.03 123.323 271.308 122.326 270.298 121.705C269.288 121.084 268.073 120.889 266.92 121.164C265.767 121.439 264.77 122.161 264.149 123.171C255.854 136.65 258.902 146.741 262.433 158.423L262.701 159.317C263.228 161.051 263.711 162.57 264.158 163.938C266.365 170.74 267.036 173.019 264.336 181.242C260.961 181.856 257.829 183.419 255.309 185.747C254.473 186.562 253.99 187.673 253.963 188.84C253.936 190.008 254.367 191.139 255.163 191.993C255.96 192.847 257.059 193.355 258.225 193.409C259.392 193.462 260.533 193.057 261.405 192.28ZM318.296 165.6C320.95 165.608 323.573 165.025 325.974 163.893C327.046 163.388 327.875 162.478 328.276 161.362C328.677 160.247 328.619 159.017 328.114 157.945C327.609 156.872 326.699 156.044 325.584 155.642C324.468 155.241 323.239 155.299 322.166 155.804C319.969 156.808 317.474 156.945 315.18 156.187C312.886 155.43 310.963 153.834 309.796 151.719C309.53 151.182 309.159 150.704 308.705 150.313C308.251 149.922 307.723 149.627 307.152 149.444C306.582 149.262 305.98 149.196 305.384 149.25C304.787 149.305 304.208 149.478 303.679 149.761C303.151 150.044 302.686 150.43 302.31 150.897C301.934 151.364 301.656 151.901 301.492 152.477C301.328 153.053 301.281 153.657 301.355 154.251C301.429 154.846 301.621 155.419 301.921 155.938C303.53 158.941 305.926 161.31 308.714 162.954C303.914 174.619 306.641 187.007 308.866 193.576C309.036 194.153 309.321 194.689 309.703 195.153C310.086 195.617 310.558 195.999 311.091 196.276C311.624 196.553 312.208 196.72 312.807 196.767C313.407 196.813 314.009 196.738 314.579 196.546C315.149 196.354 315.674 196.049 316.123 195.65C316.572 195.25 316.936 194.764 317.193 194.221C317.45 193.677 317.594 193.088 317.618 192.487C317.642 191.886 317.544 191.287 317.331 190.725C315.829 186.274 312.915 175.03 317.313 165.466C317.652 165.484 317.965 165.6 318.296 165.6ZM361.172 249.878C361.138 249.291 360.988 248.716 360.73 248.188C360.472 247.659 360.112 247.187 359.671 246.799C359.229 246.411 358.715 246.114 358.158 245.926C357.601 245.738 357.012 245.662 356.426 245.704C354.283 245.852 352.131 245.575 350.096 244.889C348.06 244.204 346.179 243.123 344.562 241.708C342.945 240.294 341.623 238.574 340.673 236.648C339.722 234.721 339.162 232.626 339.023 230.482C338.923 229.307 338.37 228.216 337.481 227.441C336.592 226.666 335.437 226.266 334.259 226.326C333.078 226.411 331.978 226.959 331.2 227.851C330.421 228.744 330.027 229.908 330.103 231.09C330.47 236.363 332.481 241.118 335.537 244.988C328.351 253.444 318.939 255.848 313.693 256.465C309.054 257.019 304.996 256.545 300.303 255.991C296.004 255.5 291.142 254.937 285.127 255.115L285.082 255.124C284.903 252.568 284.295 248.841 282.356 245.739C281.689 244.821 280.698 244.19 279.584 243.974C278.47 243.758 277.315 243.973 276.353 244.576C275.392 245.179 274.695 246.124 274.404 247.221C274.113 248.318 274.249 249.485 274.785 250.485C275.983 252.407 276.206 255.473 276.206 256.966C271.701 258.583 267.804 260.961 264.283 263.258C257.99 267.352 253.03 270.587 245.566 268.907C238.809 267.361 232.043 267.048 226.305 267.852C225.411 265.609 223.999 262.927 221.818 260.863C220.956 260.048 219.806 259.61 218.621 259.643C217.436 259.677 216.313 260.18 215.499 261.041C214.684 261.903 214.246 263.053 214.279 264.238C214.313 265.423 214.816 266.546 215.677 267.361C216.446 268.085 217.054 269.139 217.545 270.194C207.687 274.252 202.744 281.036 202.511 281.367C202.037 282.034 201.756 282.819 201.698 283.636C201.641 284.452 201.809 285.269 202.185 285.997C202.56 286.724 203.129 287.334 203.828 287.76C204.528 288.185 205.331 288.41 206.149 288.41C206.856 288.412 207.553 288.247 208.183 287.928C208.814 287.61 209.36 287.147 209.778 286.578C209.823 286.506 214.73 279.937 224.41 277.282C229.415 275.905 236.593 276.022 243.591 277.613C245.549 278.06 247.363 278.211 249.124 278.238C249.955 280.187 250.277 282.502 250.321 283.36C250.388 284.499 250.886 285.57 251.715 286.354C252.544 287.138 253.641 287.576 254.782 287.579L255.023 287.57C256.202 287.507 257.309 286.98 258.101 286.105C258.893 285.229 259.307 284.075 259.251 282.895C259.101 280.813 258.712 278.756 258.089 276.764C262.209 275.271 265.793 272.938 269.163 270.748C274.276 267.414 279.111 264.259 285.43 264.053C290.722 263.866 295.084 264.375 299.293 264.867C303.53 265.358 307.695 265.68 312.289 265.412C313.103 267.673 313.04 270.695 312.915 271.705C312.839 272.334 312.898 272.972 313.086 273.577C313.275 274.182 313.589 274.741 314.008 275.216C314.428 275.691 314.943 276.073 315.52 276.335C316.097 276.597 316.723 276.734 317.357 276.737C318.441 276.735 319.487 276.34 320.301 275.625C321.115 274.909 321.641 273.923 321.782 272.849C322.109 269.917 321.931 266.951 321.254 264.08C329.409 261.917 336.717 257.333 342.214 250.932C346.645 253.669 351.818 254.959 357.016 254.624C357.6 254.585 358.172 254.432 358.697 254.172C359.222 253.913 359.691 253.552 360.077 253.112C360.463 252.671 360.758 252.159 360.946 251.604C361.134 251.049 361.211 250.462 361.172 249.878Z" fill="white" fill-opacity="0.78"/>
<path d="M328.633 64.6053C331.492 73.3006 338.312 80.1205 347.008 82.9802C338.312 85.8399 331.492 92.6598 328.633 101.355C325.773 92.6598 318.953 85.8399 310.258 82.9802C318.953 80.1205 325.773 73.3006 328.633 64.6053Z" fill="white"/>
<defs>
<filter id="filter0_d_261_62" x="59.9141" y="39.1486" width="392.171" height="441.701" filterUnits="userSpaceOnUse" color-interpolation-filters="sRGB">
<feFlood flood-opacity="0" result="BackgroundImageFix"/>
<feColorMatrix in="SourceAlpha" type="matrix" values="0 0 0 0 0 0 0 0 0 0 0 0 0 0 0 0 0 0 127 0" result="hardAlpha"/>
<feOffset dy="4"/>
<feGaussianBlur stdDeviation="4.5"/>
<feComposite in2="hardAlpha" operator="out"/>
<feColorMatrix type="matrix" values="0 0 0 0 0 0 0 0 0 0 0 0 0 0 0 0 0 0 0.25 0"/>
<feBlend mode="normal" in2="BackgroundImageFix" result="effect1_dropShadow_261_62"/>
<feBlend mode="normal" in="SourceGraphic" in2="effect1_dropShadow_261_62" result="shape"/>
</filter>
<linearGradient id="paint0_linear_261_62" x1="256" y1="4.94983" x2="256" y2="507.049" gradientUnits="userSpaceOnUse">
<stop stop-color="#FF2F63"/>
<stop offset="1" stop-color="#FFA800"/>
</linearGradient>
<linearGradient id="paint1_linear_261_62" x1="256" y1="44.1486" x2="256" y2="467.849" gradientUnits="userSpaceOnUse">
<stop stop-color="#FFD475"/>
<stop offset="1" stop-color="#FFD475"/>
</linearGradient>
<linearGradient id="paint2_linear_261_62" x1="256" y1="44.1484" x2="256" y2="467.849" gradientUnits="userSpaceOnUse">
<stop stop-color="#52F3AD"/>
<stop offset="1" stop-color="#CCFAFF"/>
</linearGradient>
<linearGradient id="paint3_linear_261_62" x1="244.305" y1="325.068" x2="244.305" y2="515.135" gradientUnits="userSpaceOnUse">
<stop stop-color="#300398"/>
<stop offset="1" stop-color="#BC9EFF"/>
</linearGradient>
<linearGradient id="paint4_linear_261_62" x1="255.998" y1="97.9287" x2="255.998" y2="318.723" gradientUnits="userSpaceOnUse">
<stop stop-color="#FF639B"/>
<stop offset="1" stop-color="#EC000E"/>
</linearGradient>
</defs>
</svg>
