<svg width="512" height="512" viewBox="0 0 512 512" fill="none" xmlns="http://www.w3.org/2000/svg">
<path d="M240 9.23701C249.9 3.52077 262.099 3.52077 272 9.23702L461.702 118.762C471.603 124.478 477.702 135.042 477.702 146.475L477.702 365.525C477.702 376.957 471.603 387.521 461.702 393.237L272 502.762C262.099 508.478 249.9 508.478 240 502.762L50.2969 393.237C40.396 387.521 34.2969 376.957 34.2969 365.524L34.2969 146.475C34.2969 135.042 40.396 124.478 50.2969 118.762L240 9.23701Z" fill="url(#paint0_linear_261_121)"/>
<g filter="url(#filter0_d_261_121)">
<path d="M242.498 47.7663C250.853 42.9426 261.147 42.9426 269.501 47.7663L429.584 140.19C437.939 145.014 443.085 153.928 443.085 163.576V348.423C443.085 358.07 437.939 366.984 429.584 371.808L269.501 464.232C261.147 469.055 250.853 469.055 242.498 464.232L82.4158 371.808C74.0609 366.984 68.9141 358.07 68.9141 348.423V163.576C68.9141 153.928 74.0609 145.014 82.4158 140.19L242.498 47.7663Z" fill="url(#paint1_linear_261_121)"/>
</g>
<mask id="mask0_261_121" style="mask-type:alpha" maskUnits="userSpaceOnUse" x="68" y="44" width="376" height="424">
<path d="M242.498 47.7662C250.853 42.9425 261.147 42.9425 269.501 47.7662L429.584 140.19C437.939 145.013 443.085 153.928 443.085 163.575V348.422C443.085 358.07 437.939 366.984 429.584 371.808L269.501 464.232C261.147 469.055 250.853 469.055 242.498 464.232L82.4158 371.808C74.0609 366.984 68.9141 358.07 68.9141 348.422V163.575C68.9141 153.928 74.0609 145.013 82.4158 140.19L242.498 47.7662Z" fill="url(#paint2_linear_261_121)"/>
</mask>
<g mask="url(#mask0_261_121)">
<path d="M447.953 -10.1206L308.958 217.243L567.714 153.531L321.624 255.773L568.411 356.322L309.223 294.389L449.777 520.793L276.493 318.342L257.126 584.121L235.934 318.481L64.0453 522.118L203.04 294.754L-55.7156 358.466L190.375 256.224L-56.4121 155.675L202.775 217.608L62.2219 -8.79577L235.506 193.656L254.872 -72.124L276.064 193.516L447.953 -10.1206Z" fill="white" fill-opacity="0.46"/>
<path d="M78.2292 313.731L-154.966 658.125C-155.808 659.28 -156.106 660.744 -155.783 662.137L-98.5855 908.795C-98.1688 910.592 -96.7824 912.006 -94.9936 912.457L290.123 1009.64C291.637 1010.02 293.244 1009.66 294.451 1008.67L675.99 695.519C677.897 693.954 678.351 691.219 677.053 689.121L435.912 303.395C434.082 300.438 429.846 300.258 427.772 303.049L367.248 384.517C365.132 387.365 360.791 387.108 359.025 384.032L286.61 247.588C285.732 246.058 284.103 245.115 282.34 245.115H234.41C232.555 245.115 230.858 246.157 230.019 247.812L153.452 395.952C151.776 399.254 147.192 399.595 145.047 396.576L86.2225 313.779C84.2741 311.037 80.2104 311.012 78.2292 313.731Z" fill="url(#paint3_linear_261_121)"/>
<path d="M78.6142 314.861L-154.97 658.125C-155.811 659.28 -156.11 660.744 -155.787 662.137L-98.5894 908.795C-98.1727 910.592 -96.7863 912.006 -94.9975 912.457L285.258 1008.41C288.693 1009.28 291.892 1006.34 291.323 1002.84L213.812 526.604C213.628 525.478 213.842 524.323 214.416 523.337L284.999 402.022C285.887 400.496 285.889 398.61 285.005 397.082L253.831 343.158C253.122 341.931 252.975 340.459 253.429 339.117L282.991 251.615C284.069 248.423 281.695 245.115 278.326 245.115H234.406C232.551 245.115 230.854 246.157 230.015 247.812L153.837 397.082C152.161 400.384 147.577 400.725 145.432 397.706L86.6075 314.909C84.6591 312.167 80.5954 312.142 78.6142 314.861Z" fill="black" fill-opacity="0.32"/>
</g>
<path d="M105.396 280.683C107.577 287.314 112.778 292.515 119.41 294.696C112.778 296.877 107.577 302.078 105.396 308.71C103.215 302.078 98.0142 296.877 91.3828 294.696C98.0142 292.515 103.215 287.314 105.396 280.683Z" fill="white"/>
<path d="M414.065 184.825C415.975 190.631 420.529 195.185 426.335 197.094C420.529 199.004 415.975 203.557 414.065 209.363C412.156 203.557 407.602 199.004 401.796 197.094C407.602 195.185 412.156 190.631 414.065 184.825Z" fill="white"/>
<path d="M159.469 144.427C161.378 150.234 165.932 154.787 171.738 156.697C165.932 158.606 161.378 163.16 159.469 168.966C157.559 163.16 153.005 158.606 147.199 156.697C153.005 154.787 157.559 150.234 159.469 144.427Z" fill="white"/>
<path d="M298.924 168.337C301.74 168.337 304.022 170.619 304.022 173.435L-nan -nanL304.022 173.435C304.022 176.251 301.74 178.534 298.924 178.534H273.431V244.815H263.234V214.224H253.036V244.815H242.839V204.027H235.191V178.534C235.191 175.829 236.266 173.236 238.178 171.323C240.09 169.411 242.684 168.337 245.389 168.337H298.924ZM268.332 153.041C268.332 155.745 267.258 158.339 265.345 160.251C263.433 162.164 260.839 163.238 258.135 163.238C255.431 163.238 252.837 162.164 250.925 160.251C249.012 158.339 247.938 155.745 247.938 153.041C247.938 150.336 249.012 147.743 250.925 145.83C252.837 143.918 255.431 142.844 258.135 142.844C260.839 142.844 263.433 143.918 265.345 145.83C267.258 147.743 268.332 150.336 268.332 153.041Z" fill="url(#paint4_linear_261_121)"/>
<path d="M351.203 93.2879C351.486 93.477 351.717 93.7329 351.878 94.0329C352.038 94.3329 352.123 94.6678 352.123 95.008V126.095C352.123 126.509 351.999 126.914 351.767 127.256C351.535 127.599 351.206 127.865 350.821 128.019L350.809 128.023L350.784 128.035L350.689 128.073C350.144 128.289 349.595 128.496 349.043 128.694C347.949 129.088 346.428 129.619 344.703 130.145C341.321 131.19 336.915 132.313 333.471 132.313C329.96 132.313 327.054 131.152 324.526 130.137L324.41 130.095C321.782 129.038 319.543 128.168 316.891 128.168C313.989 128.168 310.101 129.121 306.789 130.145C305.307 130.607 303.837 131.112 302.383 131.658V175.094C302.383 175.643 302.165 176.171 301.776 176.559C301.388 176.948 300.86 177.166 300.311 177.166C299.761 177.166 299.234 176.948 298.845 176.559C298.457 176.171 298.238 175.643 298.238 175.094L298.238 95.008C298.238 94.4584 298.457 93.9312 298.845 93.5426C299.234 93.1539 299.761 92.9355 300.311 92.9355C300.86 92.9355 301.388 93.1539 301.776 93.5426C302.165 93.9312 302.383 94.4584 302.383 95.008V96.1769C303.32 95.8495 304.439 95.4723 305.658 95.0992C309.04 94.063 313.45 92.9355 316.891 92.9355C320.372 92.9355 323.208 94.0837 325.682 95.0868L325.86 95.1614C328.439 96.2018 330.685 97.0805 333.471 97.0805C336.372 97.0805 340.26 96.1272 343.572 95.1034C345.459 94.514 347.324 93.8559 349.163 93.1304L349.242 93.1013L349.259 93.0931H349.263" fill="url(#paint5_linear_261_121)"/>
<path d="M325.18 105.131C326.316 108.586 329.026 111.296 332.481 112.432C329.026 113.568 326.316 116.278 325.18 119.733C324.044 116.278 321.334 113.568 317.879 112.432C321.334 111.296 324.044 108.586 325.18 105.131Z" fill="white"/>
<g filter="url(#filter1_d_261_121)">
<path d="M267.683 182.465H264.293L263.262 183.914L267.683 182.465Z" fill="#F8C55E"/>
<path d="M267.683 182.464L264.945 184.462L263.263 183.913L267.683 182.464Z" fill="#F8B019"/>
<path d="M263.261 179.251L262.234 182.481L263.261 183.91L263.261 179.251Z" fill="url(#paint6_linear_261_121)"/>
<path d="M263.265 179.252L264.311 182.473L263.266 183.928L263.265 179.252Z" fill="url(#paint7_linear_261_121)"/>
<path d="M258.848 182.48L261.586 184.478L263.253 183.915L258.848 182.48Z" fill="#F7D04C"/>
<path d="M258.848 182.48L262.237 182.48L263.267 183.919L258.848 182.48Z" fill="url(#paint8_linear_261_121)"/>
<path d="M260.527 187.681L263.26 185.676L263.26 183.897L260.527 187.681Z" fill="url(#paint9_linear_261_121)"/>
<path d="M260.525 187.681L261.578 184.462L263.271 183.904L260.525 187.681Z" fill="url(#paint10_linear_261_121)"/>
<path d="M265.983 187.691L264.943 184.465L263.263 183.91L265.983 187.691Z" fill="url(#paint11_linear_261_121)"/>
<path d="M265.983 187.691L263.261 185.676L263.261 183.904L265.983 187.691Z" fill="url(#paint12_linear_261_121)"/>
</g>
<defs>
<filter id="filter0_d_261_121" x="59.9141" y="39.1486" width="392.171" height="441.701" filterUnits="userSpaceOnUse" color-interpolation-filters="sRGB">
<feFlood flood-opacity="0" result="BackgroundImageFix"/>
<feColorMatrix in="SourceAlpha" type="matrix" values="0 0 0 0 0 0 0 0 0 0 0 0 0 0 0 0 0 0 127 0" result="hardAlpha"/>
<feOffset dy="4"/>
<feGaussianBlur stdDeviation="4.5"/>
<feComposite in2="hardAlpha" operator="out"/>
<feColorMatrix type="matrix" values="0 0 0 0 0 0 0 0 0 0 0 0 0 0 0 0 0 0 0.25 0"/>
<feBlend mode="normal" in2="BackgroundImageFix" result="effect1_dropShadow_261_121"/>
<feBlend mode="normal" in="SourceGraphic" in2="effect1_dropShadow_261_121" result="shape"/>
</filter>
<filter id="filter1_d_261_121" x="208.848" y="149.251" width="118.836" height="118.44" filterUnits="userSpaceOnUse" color-interpolation-filters="sRGB">
<feFlood flood-opacity="0" result="BackgroundImageFix"/>
<feColorMatrix in="SourceAlpha" type="matrix" values="0 0 0 0 0 0 0 0 0 0 0 0 0 0 0 0 0 0 127 0" result="hardAlpha"/>
<feOffset dx="5" dy="25"/>
<feGaussianBlur stdDeviation="27.5"/>
<feComposite in2="hardAlpha" operator="out"/>
<feColorMatrix type="matrix" values="0 0 0 0 0 0 0 0 0 0 0 0 0 0 0 0 0 0 0.47 0"/>
<feBlend mode="normal" in2="BackgroundImageFix" result="effect1_dropShadow_261_121"/>
<feBlend mode="normal" in="SourceGraphic" in2="effect1_dropShadow_261_121" result="shape"/>
</filter>
<linearGradient id="paint0_linear_261_121" x1="256" y1="4.94983" x2="256" y2="507.049" gradientUnits="userSpaceOnUse">
<stop stop-color="#FF2F63"/>
<stop offset="1" stop-color="#FFA800"/>
</linearGradient>
<linearGradient id="paint1_linear_261_121" x1="256" y1="44.1486" x2="256" y2="467.849" gradientUnits="userSpaceOnUse">
<stop stop-color="#FFD475"/>
<stop offset="1" stop-color="#FFD475"/>
</linearGradient>
<linearGradient id="paint2_linear_261_121" x1="256" y1="44.1484" x2="256" y2="467.849" gradientUnits="userSpaceOnUse">
<stop stop-color="#52F3AD"/>
<stop offset="1" stop-color="#CCFAFF"/>
</linearGradient>
<linearGradient id="paint3_linear_261_121" x1="261.511" y1="243.964" x2="261.511" y2="1010.24" gradientUnits="userSpaceOnUse">
<stop stop-color="#300398"/>
<stop offset="1" stop-color="#BC9EFF"/>
</linearGradient>
<linearGradient id="paint4_linear_261_121" x1="304.024" y1="169.319" x2="249.058" y2="235.006" gradientUnits="userSpaceOnUse">
<stop stop-color="#FF639B"/>
<stop offset="1" stop-color="#EC000E"/>
</linearGradient>
<linearGradient id="paint5_linear_261_121" x1="325.181" y1="92.9355" x2="325.181" y2="177.166" gradientUnits="userSpaceOnUse">
<stop stop-color="#EC000E"/>
<stop offset="1" stop-color="#FF639B"/>
</linearGradient>
<linearGradient id="paint6_linear_261_121" x1="262.863" y1="179.82" x2="263.121" y2="183.626" gradientUnits="userSpaceOnUse">
<stop stop-color="#FFE37E"/>
<stop offset="1" stop-color="#F8E9B3"/>
</linearGradient>
<linearGradient id="paint7_linear_261_121" x1="263.518" y1="183.435" x2="263.266" y2="179.491" gradientUnits="userSpaceOnUse">
<stop stop-color="#F7A607"/>
<stop offset="1" stop-color="#FFB016"/>
</linearGradient>
<linearGradient id="paint8_linear_261_121" x1="259.508" y1="182.269" x2="263.061" y2="183.637" gradientUnits="userSpaceOnUse">
<stop stop-color="#F8E9B3"/>
<stop offset="1" stop-color="#FFE37E"/>
</linearGradient>
<linearGradient id="paint9_linear_261_121" x1="260.299" y1="187.518" x2="263.251" y2="184.354" gradientUnits="userSpaceOnUse">
<stop stop-color="#F8AA21"/>
<stop offset="1" stop-color="#FFC560"/>
</linearGradient>
<linearGradient id="paint10_linear_261_121" x1="260.715" y1="187.229" x2="262.095" y2="184.687" gradientUnits="userSpaceOnUse">
<stop stop-color="#F8E995"/>
<stop offset="1" stop-color="#FFE553"/>
</linearGradient>
<linearGradient id="paint11_linear_261_121" x1="266.003" y1="187.629" x2="263.619" y2="184.244" gradientUnits="userSpaceOnUse">
<stop stop-color="#FFE49C"/>
<stop offset="1" stop-color="#F8C230"/>
</linearGradient>
<linearGradient id="paint12_linear_261_121" x1="265.917" y1="187.691" x2="263.419" y2="184.384" gradientUnits="userSpaceOnUse">
<stop stop-color="#F8C230"/>
<stop offset="1" stop-color="#FFE49C"/>
</linearGradient>
</defs>
</svg>
