<svg width="512" height="512" viewBox="0 0 512 512" fill="none" xmlns="http://www.w3.org/2000/svg">
<path d="M240 9.23701C249.9 3.52077 262.099 3.52077 272 9.23702L461.702 118.762C471.603 124.478 477.702 135.042 477.702 146.475L477.702 365.525C477.702 376.957 471.603 387.521 461.702 393.237L272 502.762C262.099 508.478 249.9 508.478 240 502.762L50.2969 393.237C40.396 387.521 34.2969 376.957 34.2969 365.524L34.2969 146.475C34.2969 135.042 40.396 124.478 50.2969 118.762L240 9.23701Z" fill="url(#paint0_linear_261_85)"/>
<g filter="url(#filter0_d_261_85)">
<path d="M242.498 47.7663C250.853 42.9426 261.147 42.9426 269.501 47.7663L429.584 140.19C437.939 145.014 443.085 153.928 443.085 163.576V348.423C443.085 358.07 437.939 366.984 429.584 371.808L269.501 464.232C261.147 469.055 250.853 469.055 242.498 464.232L82.4158 371.808C74.0609 366.984 68.9141 358.07 68.9141 348.423V163.576C68.9141 153.928 74.0609 145.014 82.4158 140.19L242.498 47.7663Z" fill="url(#paint1_linear_261_85)"/>
</g>
<mask id="mask0_261_85" style="mask-type:alpha" maskUnits="userSpaceOnUse" x="68" y="44" width="376" height="424">
<path d="M242.498 47.7662C250.853 42.9425 261.147 42.9425 269.501 47.7662L429.584 140.19C437.939 145.013 443.085 153.928 443.085 163.575V348.422C443.085 358.07 437.939 366.984 429.584 371.808L269.501 464.232C261.147 469.055 250.853 469.055 242.498 464.232L82.4158 371.808C74.0609 366.984 68.9141 358.07 68.9141 348.422V163.575C68.9141 153.928 74.0609 145.013 82.4158 140.19L242.498 47.7662Z" fill="url(#paint2_linear_261_85)"/>
</mask>
<g mask="url(#mask0_261_85)">
<path d="M447.953 -10.1206L308.958 217.243L567.714 153.531L321.624 255.773L568.411 356.322L309.223 294.389L449.777 520.793L276.493 318.342L257.126 584.121L235.934 318.481L64.0453 522.118L203.04 294.754L-55.7156 358.466L190.375 256.224L-56.4121 155.675L202.775 217.608L62.2219 -8.79577L235.506 193.656L254.872 -72.124L276.064 193.516L447.953 -10.1206Z" fill="white" fill-opacity="0.46"/>
<path d="M406.101 225.031H113.147C102.047 225.031 91.4022 229.44 83.5537 237.289C75.7052 245.137 71.2959 255.782 71.2959 266.882L71.2959 423.822C71.2959 434.921 75.7052 445.566 83.5537 453.414C91.4022 461.263 102.047 465.672 113.147 465.672H232.588C238.029 471.908 248.042 476.135 259.624 476.135C271.206 476.135 281.229 471.908 286.659 465.672H406.101C417.201 465.672 427.846 461.263 435.694 453.414C443.543 445.566 447.952 434.921 447.952 423.822V266.882C447.952 255.782 443.543 245.137 435.694 237.289C427.846 229.44 417.201 225.031 406.101 225.031Z" fill="url(#paint3_linear_261_85)"/>
<path d="M280.547 434.284C280.547 439.834 278.342 445.156 274.418 449.081C270.494 453.005 265.171 455.21 259.622 455.21C254.072 455.21 248.749 453.005 244.825 449.081C240.901 445.156 238.696 439.834 238.696 434.284V245.956C238.696 240.406 240.901 235.084 244.825 231.16C248.749 227.236 254.072 225.031 259.622 225.031C265.171 225.031 270.494 227.236 274.418 231.16C278.342 235.084 280.547 240.406 280.547 245.956V434.284Z" fill="#292F33"/>
<path d="M259.626 423.822C259.626 429.372 257.422 434.694 253.497 438.619C249.573 442.543 244.251 444.748 238.701 444.748H113.149C107.599 444.748 102.277 442.543 98.3525 438.619C94.4283 434.694 92.2236 429.372 92.2236 423.822V235.494C92.2236 229.944 94.4283 224.622 98.3525 220.698C102.277 216.773 107.599 214.569 113.149 214.569H238.701C244.251 214.569 249.573 216.773 253.497 220.698C257.422 224.622 259.626 229.944 259.626 235.494V423.822Z" fill="url(#paint4_linear_261_85)"/>
<path d="M259.622 423.822C249.17 402.917 221.36 402.896 217.771 402.896C196.846 402.896 165.458 423.822 134.07 423.822C123.607 423.822 113.145 414.447 113.145 402.896V235.493C113.145 223.943 123.607 214.568 134.07 214.568C168.126 214.568 196.846 193.643 217.771 193.643C249.159 193.643 259.622 213.48 259.622 225.031V423.822Z" fill="#E1E8ED"/>
<path d="M259.622 423.822C249.17 402.917 221.36 402.896 217.771 402.896C196.846 402.896 165.458 423.822 134.07 423.822C123.607 423.822 113.145 414.447 113.145 402.896V235.493C113.145 223.943 123.607 214.568 134.07 214.568C168.126 214.568 196.846 193.643 217.771 193.643C249.159 193.643 259.622 213.48 259.622 225.031V423.822Z" fill="url(#paint5_linear_261_85)"/>
<path d="M427.027 423.822C427.027 429.372 424.822 434.694 420.898 438.619C416.974 442.543 411.651 444.748 406.101 444.748H280.549C275 444.748 269.677 442.543 265.753 438.619C261.829 434.694 259.624 429.372 259.624 423.822V235.494C259.624 229.944 261.829 224.622 265.753 220.698C269.677 216.773 275 214.569 280.549 214.569H406.101C411.651 214.569 416.974 216.773 420.898 220.698C424.822 224.622 427.027 229.944 427.027 235.494V423.822Z" fill="url(#paint6_linear_261_85)"/>
<path d="M259.624 423.822C270.076 402.917 297.886 402.896 301.475 402.896C322.4 402.896 353.788 423.822 385.176 423.822C395.639 423.822 406.101 414.447 406.101 402.896V235.493C406.101 223.943 395.639 214.568 385.176 214.568C351.11 214.568 322.4 193.643 301.475 193.643C270.087 193.643 259.624 213.48 259.624 225.031V423.822Z" fill="url(#paint7_linear_261_85)"/>
<path d="M259.624 423.822C270.076 402.917 297.886 402.896 301.475 402.896C322.4 402.896 353.788 423.822 385.176 423.822C395.639 423.822 406.101 414.447 406.101 402.896V235.493C406.101 223.943 395.639 214.568 385.176 214.568C351.11 214.568 322.4 193.643 301.475 193.643C270.087 193.643 259.624 213.48 259.624 225.031V423.822Z" fill="url(#paint8_linear_261_85)"/>
</g>
<path d="M93.2586 304.146C95.4396 310.778 100.641 315.979 107.272 318.16C100.641 320.341 95.4396 325.542 93.2586 332.173C91.0777 325.542 85.8765 320.341 79.2451 318.16C85.8765 315.979 91.0777 310.778 93.2586 304.146Z" fill="white"/>
<path d="M414.065 184.825C415.975 190.631 420.529 195.185 426.335 197.094C420.529 199.004 415.975 203.557 414.065 209.363C412.156 203.557 407.602 199.004 401.796 197.094C407.602 195.185 412.156 190.631 414.065 184.825Z" fill="white"/>
<path d="M159.469 144.427C161.378 150.234 165.932 154.787 171.738 156.697C165.932 158.606 161.378 163.16 159.469 168.966C157.559 163.16 153.005 158.606 147.199 156.697C153.005 154.787 157.559 150.234 159.469 144.427Z" fill="white"/>
<path d="M339.251 241.185C339.272 243.152 338.764 245.724 338.236 247.845C334.545 262.755 318.154 279.487 295.082 277.965C274.172 276.588 257.142 266.551 257.142 252.474C257.142 238.398 274.131 226.984 295.082 226.984C316.033 226.984 339.119 227.109 339.251 241.185Z" fill="#A60020"/>
<path d="M295.071 229.346C283.817 229.346 258.132 232.46 252.237 232.46C241.824 232.46 233.378 238.994 233.378 247.058C233.378 250.937 235.366 254.44 238.55 257.054C238.55 257.054 245.543 264.068 258.139 260.703C263.651 259.23 272.618 248.288 288.405 246.55C296.267 245.681 310.997 251.764 336.883 251.91C337.996 249.518 338.225 247.857 338.225 247.857C338.225 233.767 316.022 229.346 295.071 229.346Z" fill="#BD0018"/>
<path d="M338.214 247.847C338.214 247.847 353.396 244.767 362.836 232.352C373.84 217.873 372.394 202.378 372.394 202.378C383.544 181.524 368.918 161.97 368.918 161.97C367.465 139.955 353.855 130.835 353.855 130.835C345.019 109.835 325.472 104.19 325.472 104.19C310.124 86.2351 282.895 86.8121 282.895 86.8121C282.895 86.8121 257.384 77.4625 222.363 87.973C216.573 89.7108 197.165 93.7634 182.97 102.453C138.231 129.841 134.846 172.55 135.471 179.494C138.94 218.304 166.169 225.255 183.547 229.308C187.599 240.312 202.517 260.589 229.308 253.06C262.326 247.27 276.229 237.42 284.341 237.42C292.453 237.42 315.045 246.109 338.214 247.847Z" fill="url(#paint9_linear_261_85)"/>
<path d="M254.72 185.441C270.903 176.717 279.676 177.531 287.42 178.233C289.88 178.455 292.209 178.629 294.566 178.615C308.357 178.302 319.528 172.491 324.47 166.867C325.037 166.168 325.311 165.277 325.236 164.381C325.16 163.484 324.74 162.652 324.065 162.058C323.389 161.464 322.509 161.154 321.61 161.194C320.712 161.234 319.863 161.621 319.243 162.272C315.433 166.61 306.042 171.4 294.406 171.664C292.32 171.726 290.228 171.518 288.059 171.316C279.752 170.544 269.436 169.599 251.419 179.324C246.796 181.82 240.456 182.744 233.588 183.439C218.316 161.397 227.506 142.197 230.134 137.623C230.391 137.637 230.641 137.72 230.905 137.72C233.686 137.72 236.48 137.039 239.01 135.607C239.781 135.138 240.339 134.387 240.567 133.514C240.794 132.64 240.673 131.713 240.228 130.927C239.784 130.142 239.052 129.56 238.186 129.305C237.321 129.049 236.39 129.141 235.59 129.559C233.404 130.763 230.843 131.098 228.42 130.496C225.998 129.894 223.891 128.4 222.522 126.313C222.005 125.584 221.227 125.082 220.35 124.912C219.473 124.741 218.564 124.915 217.811 125.397C217.059 125.88 216.521 126.633 216.31 127.501C216.098 128.369 216.229 129.286 216.676 130.06C218.323 132.639 220.645 134.578 223.266 135.878C219.644 143.233 212.769 162.571 225.852 184.197C216.648 185.101 207.431 186.4 200.215 191.051C195.144 194.374 190.72 198.593 187.16 203.501C182.788 202.75 166.779 198.809 163.985 181.041C165.722 179.692 167.127 177.913 167.996 175.716C168.164 175.292 168.246 174.838 168.239 174.382C168.232 173.926 168.135 173.475 167.953 173.056C167.772 172.637 167.51 172.258 167.182 171.94C166.854 171.623 166.467 171.373 166.042 171.205C165.618 171.037 165.164 170.954 164.708 170.961C164.251 170.969 163.801 171.066 163.382 171.247C162.963 171.429 162.584 171.691 162.266 172.019C161.949 172.346 161.699 172.734 161.531 173.158C161.268 173.889 160.85 174.554 160.305 175.107C159.76 175.66 159.101 176.089 158.375 176.363C157.639 176.607 156.858 176.691 156.087 176.607C155.316 176.523 154.572 176.274 153.905 175.876C153.506 175.654 153.068 175.513 152.614 175.461C152.161 175.409 151.701 175.446 151.262 175.571C150.376 175.824 149.626 176.419 149.178 177.225C148.73 178.03 148.621 178.981 148.874 179.867C149.127 180.754 149.721 181.504 150.527 181.952C152.501 183.05 154.614 183.606 156.714 183.606C156.971 183.606 157.214 183.488 157.471 183.474C160.78 200.248 174.036 207.616 183.414 209.847C182.186 212.46 181.408 215.262 181.113 218.133C181.032 219.051 181.319 219.964 181.911 220.671C182.502 221.377 183.351 221.82 184.269 221.901L184.581 221.915C185.45 221.915 186.287 221.589 186.928 221.003C187.569 220.416 187.967 219.61 188.043 218.745C188.794 210.313 196.837 201.506 203.983 196.883C210.684 192.566 220.492 191.656 229.988 190.773C239.198 189.932 247.901 189.125 254.72 185.441ZM344.156 174.986C343.937 175.387 343.799 175.827 343.75 176.281C343.701 176.735 343.742 177.195 343.871 177.633C343.999 178.071 344.213 178.48 344.499 178.836C344.785 179.191 345.139 179.487 345.54 179.706C345.94 179.925 346.38 180.063 346.835 180.113C347.289 180.162 347.748 180.121 348.186 179.992C349.071 179.733 349.817 179.132 350.26 178.323C350.392 178.087 363.064 154.348 339.339 138.395C338.574 137.88 337.636 137.691 336.731 137.868C335.827 138.045 335.029 138.575 334.515 139.34C334.001 140.105 333.811 141.043 333.988 141.948C334.166 142.853 334.695 143.65 335.46 144.164C353.84 156.524 344.56 174.236 344.156 174.986ZM200.076 118.861C200.628 118.863 201.172 118.733 201.663 118.481C202.154 118.23 202.577 117.864 202.898 117.415C212.978 103.395 226.936 108.191 227.527 108.413C228.383 108.696 229.315 108.635 230.127 108.243C230.939 107.851 231.567 107.159 231.878 106.313C232.189 105.467 232.16 104.533 231.795 103.708C231.431 102.883 230.76 102.233 229.925 101.893C223.252 99.4184 207.841 98.6398 197.254 113.363C196.882 113.882 196.661 114.494 196.614 115.13C196.567 115.767 196.696 116.405 196.988 116.973C197.28 117.541 197.722 118.018 198.267 118.351C198.811 118.684 199.437 118.861 200.076 118.861ZM290.944 105.737C306.411 104.479 313.445 115.691 313.765 116.22C314.233 117.015 314.997 117.593 315.89 117.825C316.332 117.94 316.792 117.966 317.245 117.903C317.697 117.84 318.133 117.689 318.527 117.457C318.921 117.226 319.265 116.919 319.541 116.554C319.816 116.19 320.017 115.775 320.132 115.333C320.247 114.89 320.273 114.43 320.21 113.977C320.147 113.525 319.996 113.089 319.764 112.695C319.389 112.063 310.449 97.2774 290.402 98.8067C289.947 98.8423 289.503 98.9672 289.096 99.1742C288.689 99.3812 288.327 99.6664 288.031 100.013C287.432 100.714 287.136 101.624 287.208 102.543C287.279 103.462 287.714 104.315 288.414 104.914C289.115 105.513 290.025 105.809 290.944 105.737ZM354.549 207.303C352.839 207.206 350.955 208.561 350.802 210.48C350.788 210.605 349.683 222.429 337.525 226.426C336.73 226.676 336.051 227.204 335.614 227.913C335.176 228.621 335.007 229.464 335.14 230.287C335.272 231.11 335.697 231.857 336.335 232.393C336.973 232.928 337.783 233.216 338.616 233.204C338.985 233.204 339.351 233.145 339.701 233.03C356.189 227.622 357.677 211.731 357.732 211.057C357.805 210.137 357.512 209.226 356.915 208.523C356.318 207.82 355.468 207.381 354.549 207.303Z" fill="white" fill-opacity="0.78"/>
<path d="M182.493 173.53C182.356 173.976 182.311 174.445 182.359 174.908C182.408 175.372 182.549 175.822 182.775 176.23C183 176.638 183.306 176.997 183.673 177.285C184.04 177.572 184.462 177.783 184.912 177.904C185.362 178.026 185.833 178.055 186.295 177.991C186.757 177.927 187.201 177.77 187.601 177.531C188.002 177.291 188.349 176.973 188.624 176.596C188.899 176.22 189.095 175.791 189.201 175.337C189.871 172.928 191.427 170.863 193.557 169.555C195.688 168.247 198.234 167.795 200.685 168.288C201.132 168.382 201.593 168.387 202.041 168.302C202.49 168.217 202.917 168.045 203.3 167.796C203.682 167.546 204.011 167.223 204.268 166.846C204.526 166.469 204.706 166.045 204.8 165.598C204.894 165.151 204.898 164.69 204.814 164.242C204.729 163.793 204.557 163.366 204.307 162.983C204.057 162.601 203.735 162.272 203.358 162.015C202.981 161.757 202.557 161.577 202.11 161.483C199.217 160.896 196.219 161.103 193.435 162.081C185.329 148.22 186.907 134.553 186.928 134.407C187.047 133.495 186.8 132.572 186.241 131.84C185.683 131.108 184.858 130.627 183.946 130.501C183.036 130.384 182.116 130.629 181.385 131.185C180.654 131.74 180.171 132.561 180.039 133.469C179.949 134.143 178.093 149.568 187.429 165.543C185.045 167.671 183.331 170.446 182.493 173.53ZM260.202 156.36C261.59 155.097 263.404 154.406 265.28 154.426C267.156 154.445 268.955 155.173 270.316 156.464C270.98 157.102 271.869 157.452 272.789 157.438C273.71 157.424 274.588 157.046 275.231 156.388C275.873 155.727 276.227 154.838 276.214 153.916C276.201 152.994 275.822 152.116 275.161 151.473C273.591 149.979 271.694 148.872 269.621 148.241C271.679 141.178 270.866 138.043 268.954 132.169C268.576 131.02 268.212 129.866 267.863 128.707L267.654 128.012C265.124 119.615 263.448 114.075 268.259 106.255C268.742 105.469 268.893 104.524 268.679 103.627C268.465 102.73 267.904 101.955 267.119 101.472C266.333 100.989 265.388 100.838 264.491 101.052C263.595 101.265 262.819 101.827 262.336 102.612C255.885 113.095 258.256 120.943 261.002 130.028L261.21 130.723C261.62 132.072 261.996 133.254 262.343 134.317C264.06 139.607 264.582 141.38 262.482 147.775C259.857 148.253 257.422 149.468 255.461 151.278C254.812 151.913 254.436 152.776 254.415 153.684C254.394 154.592 254.729 155.472 255.348 156.136C255.968 156.8 256.822 157.195 257.73 157.237C258.637 157.279 259.524 156.964 260.202 156.36ZM304.447 135.61C306.512 135.616 308.552 135.163 310.419 134.282C311.253 133.89 311.897 133.182 312.209 132.314C312.521 131.447 312.476 130.49 312.083 129.656C311.691 128.822 310.983 128.178 310.115 127.866C309.248 127.553 308.292 127.599 307.457 127.991C305.749 128.772 303.808 128.879 302.024 128.29C300.24 127.7 298.745 126.459 297.837 124.815C297.63 124.397 297.342 124.025 296.989 123.721C296.635 123.417 296.225 123.187 295.781 123.045C295.337 122.903 294.869 122.852 294.405 122.894C293.941 122.937 293.491 123.072 293.08 123.292C292.669 123.512 292.307 123.812 292.015 124.175C291.722 124.538 291.506 124.956 291.378 125.404C291.251 125.852 291.215 126.321 291.272 126.784C291.33 127.246 291.479 127.692 291.713 128.096C292.964 130.431 294.827 132.273 296.996 133.552C293.263 142.624 295.383 152.259 297.114 157.368C297.246 157.816 297.468 158.233 297.765 158.594C298.062 158.955 298.429 159.252 298.844 159.467C299.259 159.683 299.713 159.813 300.179 159.849C300.645 159.885 301.114 159.827 301.557 159.677C302 159.528 302.408 159.291 302.757 158.98C303.107 158.67 303.39 158.292 303.589 157.869C303.789 157.446 303.902 156.988 303.92 156.521C303.939 156.053 303.863 155.587 303.697 155.15C302.529 151.689 300.263 142.944 303.683 135.506C303.947 135.52 304.19 135.61 304.447 135.61ZM337.793 201.154C337.767 200.698 337.65 200.251 337.449 199.84C337.249 199.429 336.969 199.062 336.626 198.76C336.282 198.458 335.882 198.227 335.449 198.081C335.016 197.935 334.558 197.876 334.102 197.908C332.435 198.023 330.762 197.808 329.179 197.275C327.595 196.741 326.133 195.901 324.875 194.801C323.618 193.701 322.59 192.363 321.851 190.865C321.111 189.367 320.675 187.737 320.568 186.07C320.489 185.156 320.059 184.308 319.368 183.705C318.677 183.102 317.779 182.791 316.863 182.837C315.944 182.903 315.089 183.33 314.483 184.024C313.877 184.718 313.571 185.623 313.63 186.543C313.915 190.644 315.479 194.342 317.857 197.352C312.268 203.928 304.948 205.798 300.868 206.277C297.26 206.708 294.104 206.34 290.454 205.909C287.111 205.527 283.329 205.089 278.651 205.228L278.616 205.235C278.477 203.247 278.005 200.348 276.496 197.936C275.978 197.221 275.207 196.731 274.341 196.563C273.474 196.395 272.576 196.562 271.828 197.031C271.08 197.5 270.538 198.235 270.312 199.088C270.085 199.942 270.191 200.849 270.608 201.627C271.54 203.121 271.714 205.506 271.714 206.667C268.21 207.925 265.179 209.774 262.441 211.56C257.547 214.744 253.689 217.26 247.884 215.954C242.629 214.751 237.367 214.508 232.904 215.133C232.209 213.389 231.111 211.303 229.415 209.697C228.745 209.064 227.85 208.723 226.929 208.749C226.007 208.775 225.133 209.166 224.5 209.836C223.867 210.507 223.526 211.401 223.552 212.323C223.578 213.244 223.969 214.118 224.639 214.751C225.237 215.314 225.71 216.134 226.092 216.955C218.425 220.111 214.581 225.387 214.4 225.644C214.031 226.163 213.812 226.773 213.767 227.409C213.723 228.044 213.853 228.679 214.146 229.245C214.438 229.81 214.88 230.285 215.424 230.616C215.968 230.947 216.592 231.122 217.229 231.121C217.778 231.123 218.32 230.995 218.811 230.747C219.301 230.499 219.726 230.139 220.051 229.696C220.086 229.641 223.902 224.532 231.431 222.467C235.323 221.397 240.905 221.487 246.348 222.724C247.871 223.072 249.282 223.19 250.651 223.211C251.298 224.726 251.548 226.527 251.583 227.194C251.634 228.08 252.021 228.913 252.666 229.522C253.311 230.132 254.164 230.473 255.051 230.475L255.239 230.468C256.156 230.419 257.017 230.01 257.633 229.329C258.249 228.647 258.57 227.75 258.527 226.832C258.411 225.213 258.108 223.613 257.623 222.064C260.828 220.903 263.615 219.089 266.236 217.386C270.212 214.793 273.973 212.339 278.887 212.179C283.003 212.033 286.395 212.429 289.669 212.812C292.964 213.194 296.203 213.444 299.776 213.236C300.409 214.994 300.36 217.344 300.263 218.129C300.204 218.619 300.249 219.115 300.396 219.586C300.542 220.057 300.787 220.491 301.113 220.86C301.439 221.23 301.84 221.526 302.289 221.73C302.738 221.934 303.225 222.041 303.718 222.043C304.56 222.042 305.374 221.734 306.007 221.178C306.64 220.622 307.049 219.855 307.158 219.019C307.413 216.739 307.274 214.433 306.748 212.2C313.091 210.517 318.774 206.952 323.049 201.974C326.495 204.103 330.519 205.106 334.561 204.845C335.015 204.815 335.46 204.696 335.868 204.494C336.277 204.292 336.641 204.012 336.941 203.669C337.242 203.327 337.471 202.928 337.617 202.497C337.764 202.065 337.823 201.609 337.793 201.154Z" fill="white" fill-opacity="0.78"/>
<path d="M328.633 64.6053C331.492 73.3006 338.312 80.1205 347.008 82.9802C338.312 85.8399 331.492 92.6598 328.633 101.355C325.773 92.6598 318.953 85.8399 310.258 82.9802C318.953 80.1205 325.773 73.3006 328.633 64.6053Z" fill="white"/>
<path fill-rule="evenodd" clip-rule="evenodd" d="M135.59 274.066C135.689 271.859 137.559 270.15 139.766 270.249L230.211 274.312C232.418 274.411 234.127 276.281 234.028 278.487C233.928 280.694 232.059 282.403 229.852 282.304L139.406 278.241C137.2 278.142 135.491 276.272 135.59 274.066Z" fill="black" fill-opacity="0.06"/>
<path fill-rule="evenodd" clip-rule="evenodd" d="M135.59 295.729C135.689 293.522 137.559 291.813 139.766 291.912L230.211 295.975C232.418 296.074 234.127 297.944 234.028 300.151C233.928 302.357 232.059 304.066 229.852 303.967L139.406 299.904C137.2 299.805 135.491 297.936 135.59 295.729Z" fill="black" fill-opacity="0.06"/>
<path fill-rule="evenodd" clip-rule="evenodd" d="M135.59 317.392C135.689 315.185 137.559 313.476 139.766 313.575L230.211 317.638C232.418 317.737 234.127 319.607 234.028 321.814C233.928 324.021 232.059 325.729 229.852 325.63L139.406 321.567C137.2 321.468 135.491 319.599 135.59 317.392Z" fill="black" fill-opacity="0.06"/>
<path fill-rule="evenodd" clip-rule="evenodd" d="M135.59 339.055C135.689 336.848 137.559 335.139 139.766 335.238L230.211 339.301C232.418 339.4 234.127 341.27 234.028 343.477C233.928 345.684 232.059 347.392 229.852 347.293L139.406 343.23C137.2 343.131 135.491 341.262 135.59 339.055Z" fill="black" fill-opacity="0.06"/>
<path fill-rule="evenodd" clip-rule="evenodd" d="M135.59 360.718C135.689 358.511 137.559 356.802 139.766 356.901L230.211 360.964C232.418 361.063 234.127 362.933 234.028 365.14C233.928 367.347 232.059 369.055 229.852 368.956L139.406 364.893C137.2 364.794 135.491 362.925 135.59 360.718Z" fill="black" fill-opacity="0.06"/>
<path fill-rule="evenodd" clip-rule="evenodd" d="M384.06 274.066C383.961 271.859 382.092 270.15 379.885 270.249L289.439 274.312C287.232 274.411 285.524 276.281 285.623 278.487C285.722 280.694 287.591 282.403 289.798 282.304L380.244 278.241C382.451 278.142 384.159 276.272 384.06 274.066Z" fill="black" fill-opacity="0.06"/>
<path fill-rule="evenodd" clip-rule="evenodd" d="M384.06 295.729C383.961 293.522 382.092 291.813 379.885 291.912L289.439 295.975C287.232 296.074 285.524 297.944 285.623 300.151C285.722 302.357 287.591 304.066 289.798 303.967L380.244 299.904C382.451 299.805 384.159 297.936 384.06 295.729Z" fill="black" fill-opacity="0.06"/>
<path fill-rule="evenodd" clip-rule="evenodd" d="M384.06 317.392C383.961 315.185 382.092 313.476 379.885 313.575L289.439 317.638C287.232 317.737 285.524 319.607 285.623 321.814C285.722 324.021 287.591 325.729 289.798 325.63L380.244 321.567C382.451 321.468 384.159 319.599 384.06 317.392Z" fill="black" fill-opacity="0.06"/>
<path fill-rule="evenodd" clip-rule="evenodd" d="M384.06 339.055C383.961 336.848 382.092 335.139 379.885 335.238L289.439 339.301C287.232 339.4 285.524 341.27 285.623 343.477C285.722 345.684 287.591 347.392 289.798 347.293L380.244 343.23C382.451 343.131 384.159 341.262 384.06 339.055Z" fill="black" fill-opacity="0.06"/>
<path fill-rule="evenodd" clip-rule="evenodd" d="M384.06 360.718C383.961 358.511 382.092 356.802 379.885 356.901L289.439 360.964C287.232 361.063 285.524 362.933 285.623 365.14C285.722 367.347 287.591 369.055 289.798 368.956L380.244 364.893C382.451 364.794 384.159 362.925 384.06 360.718Z" fill="black" fill-opacity="0.06"/>
<defs>
<filter id="filter0_d_261_85" x="59.9141" y="39.1486" width="392.171" height="441.701" filterUnits="userSpaceOnUse" color-interpolation-filters="sRGB">
<feFlood flood-opacity="0" result="BackgroundImageFix"/>
<feColorMatrix in="SourceAlpha" type="matrix" values="0 0 0 0 0 0 0 0 0 0 0 0 0 0 0 0 0 0 127 0" result="hardAlpha"/>
<feOffset dy="4"/>
<feGaussianBlur stdDeviation="4.5"/>
<feComposite in2="hardAlpha" operator="out"/>
<feColorMatrix type="matrix" values="0 0 0 0 0 0 0 0 0 0 0 0 0 0 0 0 0 0 0.25 0"/>
<feBlend mode="normal" in2="BackgroundImageFix" result="effect1_dropShadow_261_85"/>
<feBlend mode="normal" in="SourceGraphic" in2="effect1_dropShadow_261_85" result="shape"/>
</filter>
<linearGradient id="paint0_linear_261_85" x1="256" y1="4.94983" x2="256" y2="507.049" gradientUnits="userSpaceOnUse">
<stop stop-color="#FF2F63"/>
<stop offset="1" stop-color="#FFA800"/>
</linearGradient>
<linearGradient id="paint1_linear_261_85" x1="256" y1="44.1486" x2="256" y2="467.849" gradientUnits="userSpaceOnUse">
<stop stop-color="#FFD475"/>
<stop offset="1" stop-color="#FFD475"/>
</linearGradient>
<linearGradient id="paint2_linear_261_85" x1="256" y1="44.1484" x2="256" y2="467.849" gradientUnits="userSpaceOnUse">
<stop stop-color="#52F3AD"/>
<stop offset="1" stop-color="#CCFAFF"/>
</linearGradient>
<linearGradient id="paint3_linear_261_85" x1="259.624" y1="225.031" x2="259.624" y2="476.135" gradientUnits="userSpaceOnUse">
<stop stop-color="#300398"/>
<stop offset="1" stop-color="#BC9EFF"/>
</linearGradient>
<linearGradient id="paint4_linear_261_85" x1="175.925" y1="214.569" x2="175.925" y2="444.748" gradientUnits="userSpaceOnUse">
<stop stop-color="#FFF0D1"/>
<stop offset="1" stop-color="#FFE2A4"/>
</linearGradient>
<linearGradient id="paint5_linear_261_85" x1="145.423" y1="391.605" x2="259.621" y2="252.805" gradientUnits="userSpaceOnUse">
<stop stop-color="white"/>
<stop offset="1" stop-color="#FFEDC7"/>
</linearGradient>
<linearGradient id="paint6_linear_261_85" x1="343.325" y1="214.569" x2="343.325" y2="444.748" gradientUnits="userSpaceOnUse">
<stop stop-color="#FFF0D1"/>
<stop offset="1" stop-color="#FFE2A4"/>
</linearGradient>
<linearGradient id="paint7_linear_261_85" x1="332.863" y1="193.643" x2="406.101" y2="423.822" gradientUnits="userSpaceOnUse">
<stop stop-color="white"/>
<stop offset="1" stop-color="#FFF7E4"/>
</linearGradient>
<linearGradient id="paint8_linear_261_85" x1="291.903" y1="391.605" x2="406.101" y2="252.805" gradientUnits="userSpaceOnUse">
<stop stop-color="#FFEDC7"/>
<stop offset="1" stop-color="white"/>
</linearGradient>
<linearGradient id="paint9_linear_261_85" x1="255.998" y1="82.9805" x2="255.998" y2="254.696" gradientUnits="userSpaceOnUse">
<stop stop-color="#FF639B"/>
<stop offset="1" stop-color="#EC000E"/>
</linearGradient>
</defs>
</svg>
