<svg width="512" height="512" viewBox="0 0 512 512" fill="none" xmlns="http://www.w3.org/2000/svg">
<path d="M240 9.23701C249.9 3.52077 262.099 3.52077 272 9.23702L461.702 118.762C471.603 124.478 477.702 135.042 477.702 146.475L477.702 365.525C477.702 376.957 471.603 387.521 461.702 393.237L272 502.762C262.099 508.478 249.9 508.478 240 502.762L50.2969 393.237C40.396 387.521 34.2969 376.957 34.2969 365.524L34.2969 146.475C34.2969 135.042 40.396 124.478 50.2969 118.762L240 9.23701Z" fill="url(#paint0_linear_261_146)"/>
<g filter="url(#filter0_d_261_146)">
<path d="M242.498 47.7663C250.853 42.9426 261.147 42.9426 269.501 47.7663L429.584 140.19C437.939 145.014 443.085 153.928 443.085 163.576V348.423C443.085 358.07 437.939 366.984 429.584 371.808L269.501 464.232C261.147 469.055 250.853 469.055 242.498 464.232L82.4158 371.808C74.0609 366.984 68.9141 358.07 68.9141 348.423V163.576C68.9141 153.928 74.0609 145.014 82.4158 140.19L242.498 47.7663Z" fill="url(#paint1_linear_261_146)"/>
</g>
<mask id="mask0_261_146" style="mask-type:alpha" maskUnits="userSpaceOnUse" x="68" y="44" width="376" height="424">
<path d="M242.498 47.7662C250.853 42.9425 261.147 42.9425 269.501 47.7662L429.584 140.19C437.939 145.013 443.085 153.928 443.085 163.575V348.422C443.085 358.07 437.939 366.984 429.584 371.808L269.501 464.232C261.147 469.055 250.853 469.055 242.498 464.232L82.4158 371.808C74.0609 366.984 68.9141 358.07 68.9141 348.422V163.575C68.9141 153.928 74.0609 145.013 82.4158 140.19L242.498 47.7662Z" fill="url(#paint2_linear_261_146)"/>
</mask>
<g mask="url(#mask0_261_146)">
<path d="M447.953 -10.1206L308.958 217.243L567.714 153.531L321.624 255.773L568.411 356.322L309.223 294.389L449.777 520.793L276.493 318.342L257.126 584.121L235.934 318.481L64.0453 522.118L203.04 294.754L-55.7156 358.466L190.375 256.224L-56.4121 155.675L202.775 217.608L62.2219 -8.79577L235.506 193.656L254.872 -72.124L276.064 193.516L447.953 -10.1206Z" fill="white" fill-opacity="0.46"/>
<path fill-rule="evenodd" clip-rule="evenodd" d="M272.652 167.271H276.87C275.471 167.399 274.059 167.4 272.652 167.271ZM270.971 167.271L263.14 193.739C266.684 195.779 269.628 198.717 271.674 202.257C273.721 205.796 274.799 209.813 274.799 213.902C274.799 217.991 273.721 222.008 271.674 225.548C269.628 229.087 266.684 232.025 263.14 234.065L271.032 260.738C275.282 260.047 279.642 260.551 283.623 262.192C287.604 263.834 291.052 266.549 293.58 270.035C296.109 273.521 297.62 277.641 297.944 281.935C298.268 286.23 297.393 290.53 295.416 294.356L318.175 312.206C321.188 309.76 324.766 308.107 328.581 307.398C332.397 306.689 336.329 306.946 340.02 308.146C343.711 309.347 347.042 311.452 349.711 314.27C352.379 317.088 354.299 320.53 355.297 324.28L391.661 324.375C392.644 320.601 394.561 317.135 397.234 314.297C399.908 311.458 403.253 309.337 406.961 308.13C409.265 307.38 411.662 306.998 414.067 306.988V388.454C414.067 397.242 406.875 404.371 398.387 404.371H271.807V435.984H335.034V467.598H176.967V435.984H240.194V404.371H113.614C111.539 404.359 109.486 403.937 107.574 403.129C105.661 402.322 103.927 401.146 102.471 399.667C101.014 398.188 99.8634 396.437 99.085 394.512C98.3065 392.588 97.9155 390.529 97.9342 388.454V183.189C97.9342 174.4 105.126 167.271 113.614 167.271H270.971Z" fill="url(#paint3_linear_261_146)"/>
</g>
<path d="M465.266 198.619C462.355 200.249 459.931 202.626 458.244 205.505C456.557 208.384 455.668 211.66 455.668 214.997C455.668 218.333 456.557 221.61 458.244 224.489C459.931 227.367 462.355 229.744 465.266 231.375L458.873 252.822C455.418 252.225 451.865 252.608 448.616 253.928C445.368 255.248 442.555 257.451 440.496 260.289C438.436 263.127 437.213 266.485 436.966 269.982C436.718 273.48 437.455 276.976 439.094 280.076L420.717 294.365C418.283 292.371 415.386 291.021 412.294 290.439C409.201 289.858 406.012 290.064 403.02 291.038C400.027 292.012 397.328 293.723 395.171 296.014C393.013 298.305 391.467 301.101 390.673 304.146L361.33 304.07C360.526 301.044 358.976 298.267 356.823 295.993C354.67 293.719 351.981 292.02 349.003 291.051C346.025 290.083 342.852 289.875 339.773 290.447C336.694 291.019 333.807 292.353 331.376 294.327L313.011 279.923C314.606 276.836 315.312 273.366 315.051 269.901C314.789 266.436 313.57 263.111 311.53 260.298C309.489 257.485 306.708 255.294 303.495 253.97C300.282 252.645 296.765 252.239 293.335 252.796L286.967 231.273C289.826 229.627 292.202 227.257 293.853 224.4C295.505 221.544 296.375 218.303 296.375 215.003C296.375 211.704 295.505 208.463 293.853 205.606C292.202 202.75 289.826 200.379 286.967 198.733L293.335 177.21C296.765 177.768 300.282 177.361 303.495 176.037C306.708 174.712 309.489 172.521 311.53 169.708C313.57 166.895 314.789 163.571 315.051 160.106C315.312 156.64 314.606 153.171 313.011 150.083L331.376 135.654C333.807 137.631 336.695 138.967 339.776 139.541C342.856 140.115 346.031 139.908 349.011 138.939C351.991 137.97 354.681 136.27 356.835 133.994C358.99 131.719 360.539 128.94 361.343 125.911L390.673 125.847C391.468 128.89 393.014 131.684 395.171 133.973C397.327 136.262 400.025 137.972 403.015 138.946C406.005 139.92 409.192 140.127 412.283 139.547C415.374 138.967 418.27 137.62 420.704 135.628L439.094 149.918C437.455 153.017 436.718 156.514 436.966 160.011C437.213 163.509 438.436 166.867 440.496 169.704C442.555 172.542 445.368 174.746 448.616 176.066C451.865 177.386 455.418 177.769 458.873 177.172L465.266 198.619ZM376.116 253.204C381.134 253.204 386.102 252.216 390.738 250.295C395.373 248.375 399.585 245.561 403.133 242.013C406.681 238.465 409.495 234.253 411.415 229.618C413.335 224.983 414.323 220.014 414.323 214.997C414.323 209.979 413.335 205.011 411.415 200.376C409.495 195.74 406.681 191.528 403.133 187.98C399.585 184.433 395.373 181.618 390.738 179.698C386.102 177.778 381.134 176.79 376.116 176.79C365.983 176.79 356.265 180.815 349.1 187.98C341.935 195.146 337.909 204.864 337.909 214.997C337.909 225.13 341.935 234.848 349.1 242.013C356.265 249.178 365.983 253.204 376.116 253.204Z" fill="url(#paint4_linear_261_146)"/>
<path d="M93.2586 304.146C95.4396 310.778 100.641 315.979 107.272 318.16C100.641 320.341 95.4396 325.542 93.2586 332.173C91.0777 325.542 85.8765 320.341 79.2451 318.16C85.8765 315.979 91.0777 310.778 93.2586 304.146Z" fill="white"/>
<path d="M344.273 101.309C346.183 107.115 350.737 111.669 356.543 113.578C350.737 115.488 346.183 120.042 344.273 125.848C342.364 120.042 337.81 115.488 332.004 113.578C337.81 111.669 342.364 107.115 344.273 101.309Z" fill="white"/>
<path d="M159.469 144.427C161.378 150.234 165.932 154.787 171.738 156.697C165.932 158.606 161.378 163.16 159.469 168.966C157.559 163.16 153.005 158.606 147.199 156.697C153.005 154.787 157.559 150.234 159.469 144.427Z" fill="white"/>
<line x1="140.245" y1="289.683" x2="226.418" y2="289.683" stroke="white" stroke-width="10" stroke-linecap="round"/>
<line x1="140.245" y1="311.404" x2="220.403" y2="311.404" stroke="white" stroke-width="10" stroke-linecap="round"/>
<line x1="140.245" y1="333.125" x2="244.462" y2="333.125" stroke="white" stroke-width="10" stroke-linecap="round"/>
<line x1="140.245" y1="354.845" x2="186.59" y2="354.845" stroke="white" stroke-width="10" stroke-linecap="round"/>
<g filter="url(#filter1_di_261_146)">
<path d="M376.504 264.904C404.067 264.904 426.412 242.56 426.412 214.996C426.412 187.433 404.067 165.089 376.504 165.089C348.94 165.089 326.596 187.433 326.596 214.996C326.596 242.56 348.94 264.904 376.504 264.904Z" fill="#52F3AD"/>
<g filter="url(#filter2_di_261_146)">
<path d="M356.544 217.492L371.516 232.464L396.47 202.52" stroke="white" stroke-width="8" stroke-linecap="round" stroke-linejoin="round" shape-rendering="crispEdges"/>
</g>
</g>
<defs>
<filter id="filter0_d_261_146" x="59.9141" y="39.1486" width="392.171" height="441.701" filterUnits="userSpaceOnUse" color-interpolation-filters="sRGB">
<feFlood flood-opacity="0" result="BackgroundImageFix"/>
<feColorMatrix in="SourceAlpha" type="matrix" values="0 0 0 0 0 0 0 0 0 0 0 0 0 0 0 0 0 0 127 0" result="hardAlpha"/>
<feOffset dy="4"/>
<feGaussianBlur stdDeviation="4.5"/>
<feComposite in2="hardAlpha" operator="out"/>
<feColorMatrix type="matrix" values="0 0 0 0 0 0 0 0 0 0 0 0 0 0 0 0 0 0 0.25 0"/>
<feBlend mode="normal" in2="BackgroundImageFix" result="effect1_dropShadow_261_146"/>
<feBlend mode="normal" in="SourceGraphic" in2="effect1_dropShadow_261_146" result="shape"/>
</filter>
<filter id="filter1_di_261_146" x="303.596" y="146.089" width="145.815" height="145.816" filterUnits="userSpaceOnUse" color-interpolation-filters="sRGB">
<feFlood flood-opacity="0" result="BackgroundImageFix"/>
<feColorMatrix in="SourceAlpha" type="matrix" values="0 0 0 0 0 0 0 0 0 0 0 0 0 0 0 0 0 0 127 0" result="hardAlpha"/>
<feOffset dy="4"/>
<feGaussianBlur stdDeviation="11.5"/>
<feComposite in2="hardAlpha" operator="out"/>
<feColorMatrix type="matrix" values="0 0 0 0 0 0 0 0 0 0 0 0 0 0 0 0 0 0 0.25 0"/>
<feBlend mode="normal" in2="BackgroundImageFix" result="effect1_dropShadow_261_146"/>
<feBlend mode="normal" in="SourceGraphic" in2="effect1_dropShadow_261_146" result="shape"/>
<feColorMatrix in="SourceAlpha" type="matrix" values="0 0 0 0 0 0 0 0 0 0 0 0 0 0 0 0 0 0 127 0" result="hardAlpha"/>
<feOffset dx="-4" dy="-4"/>
<feGaussianBlur stdDeviation="4.5"/>
<feComposite in2="hardAlpha" operator="arithmetic" k2="-1" k3="1"/>
<feColorMatrix type="matrix" values="0 0 0 0 0 0 0 0 0 0.254167 0 0 0 0 0.143659 0 0 0 0.48 0"/>
<feBlend mode="normal" in2="shape" result="effect2_innerShadow_261_146"/>
</filter>
<filter id="filter2_di_261_146" x="340.544" y="190.519" width="71.9268" height="61.9448" filterUnits="userSpaceOnUse" color-interpolation-filters="sRGB">
<feFlood flood-opacity="0" result="BackgroundImageFix"/>
<feColorMatrix in="SourceAlpha" type="matrix" values="0 0 0 0 0 0 0 0 0 0 0 0 0 0 0 0 0 0 127 0" result="hardAlpha"/>
<feOffset dy="4"/>
<feGaussianBlur stdDeviation="6"/>
<feComposite in2="hardAlpha" operator="out"/>
<feColorMatrix type="matrix" values="0 0 0 0 0 0 0 0 0 0 0 0 0 0 0 0 0 0 0.25 0"/>
<feBlend mode="normal" in2="BackgroundImageFix" result="effect1_dropShadow_261_146"/>
<feBlend mode="normal" in="SourceGraphic" in2="effect1_dropShadow_261_146" result="shape"/>
<feColorMatrix in="SourceAlpha" type="matrix" values="0 0 0 0 0 0 0 0 0 0 0 0 0 0 0 0 0 0 127 0" result="hardAlpha"/>
<feOffset dy="2"/>
<feGaussianBlur stdDeviation="2"/>
<feComposite in2="hardAlpha" operator="arithmetic" k2="-1" k3="1"/>
<feColorMatrix type="matrix" values="0 0 0 0 0 0 0 0 0 0 0 0 0 0 0 0 0 0 0.25 0"/>
<feBlend mode="normal" in2="shape" result="effect2_innerShadow_261_146"/>
</filter>
<linearGradient id="paint0_linear_261_146" x1="256" y1="4.94983" x2="256" y2="507.049" gradientUnits="userSpaceOnUse">
<stop stop-color="#FF2F63"/>
<stop offset="1" stop-color="#FFA800"/>
</linearGradient>
<linearGradient id="paint1_linear_261_146" x1="256" y1="44.1486" x2="256" y2="467.849" gradientUnits="userSpaceOnUse">
<stop stop-color="#FFD475"/>
<stop offset="1" stop-color="#FFD475"/>
</linearGradient>
<linearGradient id="paint2_linear_261_146" x1="256" y1="44.1484" x2="256" y2="467.849" gradientUnits="userSpaceOnUse">
<stop stop-color="#52F3AD"/>
<stop offset="1" stop-color="#CCFAFF"/>
</linearGradient>
<linearGradient id="paint3_linear_261_146" x1="256" y1="167.271" x2="256" y2="467.598" gradientUnits="userSpaceOnUse">
<stop stop-color="#FF639B"/>
<stop offset="1" stop-color="#EC000E"/>
</linearGradient>
<linearGradient id="paint4_linear_261_146" x1="376.116" y1="125.847" x2="376.116" y2="304.146" gradientUnits="userSpaceOnUse">
<stop stop-color="#300398"/>
<stop offset="1" stop-color="#BC9EFF"/>
</linearGradient>
</defs>
</svg>
