<svg width="512" height="512" viewBox="0 0 512 512" fill="none" xmlns="http://www.w3.org/2000/svg">
<path d="M240 9.23689C249.9 3.52064 262.099 3.52065 272 9.2369L461.702 118.762C471.603 124.478 477.702 135.042 477.702 146.475L477.702 365.524C477.702 376.957 471.603 387.521 461.702 393.237L272 502.762C262.099 508.478 249.9 508.478 240 502.762L50.2969 393.237C40.396 387.521 34.2969 376.957 34.2969 365.524L34.2969 146.475C34.2969 135.042 40.396 124.478 50.2969 118.762L240 9.23689Z" fill="url(#paint0_linear_261_238)"/>
<g filter="url(#filter0_d_261_238)">
<path d="M242.498 47.7665C250.853 42.9428 261.147 42.9428 269.501 47.7665L429.584 140.19C437.939 145.014 443.085 153.928 443.085 163.576V348.423C443.085 358.07 437.939 366.985 429.584 371.808L269.501 464.232C261.147 469.056 250.853 469.056 242.498 464.232L82.4158 371.808C74.0609 366.985 68.9141 358.07 68.9141 348.423V163.576C68.9141 153.928 74.0609 145.014 82.4158 140.19L242.498 47.7665Z" fill="url(#paint1_linear_261_238)"/>
</g>
<mask id="mask0_261_238" style="mask-type:alpha" maskUnits="userSpaceOnUse" x="68" y="44" width="376" height="424">
<path d="M242.498 47.7662C250.853 42.9425 261.147 42.9425 269.501 47.7662L429.584 140.19C437.939 145.013 443.085 153.928 443.085 163.575V348.422C443.085 358.07 437.939 366.984 429.584 371.808L269.501 464.232C261.147 469.055 250.853 469.055 242.498 464.232L82.4158 371.808C74.0609 366.984 68.9141 358.07 68.9141 348.422V163.575C68.9141 153.928 74.0609 145.013 82.4158 140.19L242.498 47.7662Z" fill="url(#paint2_linear_261_238)"/>
</mask>
<g mask="url(#mask0_261_238)">
<path d="M464.544 2.6708L266.367 246.428L525.158 68.3293L268.565 249.58L565.809 147.906L269.831 253.208L583.484 235.5L270.071 257.043L576.87 324.615L269.267 260.801L546.459 408.64L267.48 264.202L494.506 481.344L264.841 266.995L424.864 537.336L261.546 268.972L342.698 572.462L257.84 269.988L254.103 584.118L253.998 269.966L165.648 571.438L250.304 268.907L83.8935 535.364L247.033 266.892L14.9038 478.571L244.426 264.069L-36.2048 405.27L242.678 260.647L-65.642 320.899L241.918 256.88L-71.2245 231.714L242.203 253.048L-52.5382 144.331L243.51 249.435L-10.969 65.229L245.744 246.309L50.4001 0.275853L248.739 243.901L127.018 -45.7115L252.272 242.391L213.201 -69.3223L256.082 241.89L302.559 -68.8056L259.885 242.435L388.463 -44.1996L263.401 243.986L464.544 2.6708Z" fill="white" fill-opacity="0.24"/>
</g>
<path d="M365.855 345.576C367.765 351.382 372.319 355.936 378.125 357.846C372.319 359.755 367.765 364.309 365.855 370.115C363.946 364.309 359.392 359.755 353.586 357.846C359.392 355.936 363.946 351.382 365.855 345.576Z" fill="white"/>
<path d="M333.621 71.2864C336.481 79.9816 343.301 86.8015 351.996 89.6612C343.301 92.5209 336.481 99.3408 333.621 108.036C330.761 99.3408 323.941 92.5209 315.246 89.6612C323.941 86.8015 330.761 79.9816 333.621 71.2864Z" fill="white"/>
<path d="M121.828 341.065C124.009 347.697 129.21 352.898 135.842 355.079C129.21 357.26 124.009 362.461 121.828 369.092C119.647 362.461 114.446 357.26 107.814 355.079C114.446 352.898 119.647 347.697 121.828 341.065Z" fill="white"/>
<path d="M134.099 136.208C136.009 142.014 140.563 146.568 146.369 148.477C140.563 150.387 136.009 154.941 134.099 160.747C132.19 154.941 127.636 150.387 121.83 148.477C127.636 146.568 132.19 142.014 134.099 136.208Z" fill="white"/>
<g filter="url(#filter1_d_261_238)">
<g filter="url(#filter2_i_261_238)">
<path d="M378.151 265.398L256.135 386.243L134.119 265.398C126.071 257.566 119.731 248.153 115.5 237.751C111.268 227.349 109.236 216.184 109.532 204.958C109.828 193.732 112.445 182.689 117.218 172.525C121.991 162.36 128.817 153.294 137.266 145.896C145.716 138.499 155.605 132.932 166.312 129.545C177.018 126.157 188.31 125.024 199.477 126.215C210.643 127.406 221.442 130.896 231.193 136.466C240.944 142.035 249.436 149.564 256.135 158.577C262.863 149.629 271.365 142.167 281.109 136.656C290.854 131.146 301.631 127.706 312.766 126.552C323.901 125.398 335.154 126.555 345.821 129.95C356.489 133.345 366.341 138.906 374.76 146.283C383.18 153.661 389.986 162.697 394.752 172.826C399.519 182.956 402.144 193.96 402.462 205.15C402.78 216.34 400.785 227.475 396.602 237.859C392.419 248.243 386.138 257.651 378.151 265.496" fill="url(#paint3_radial_261_238)"/>
</g>
<path d="M378.151 265.398L256.135 386.243L134.119 265.398C126.071 257.566 119.731 248.153 115.5 237.751C111.268 227.349 109.236 216.184 109.532 204.958C109.828 193.732 112.445 182.689 117.218 172.525C121.991 162.36 128.817 153.294 137.266 145.896C145.716 138.499 155.605 132.932 166.312 129.545C177.018 126.157 188.31 125.024 199.477 126.215C210.643 127.406 221.442 130.896 231.193 136.466C240.944 142.035 249.436 149.564 256.135 158.577C262.863 149.629 271.365 142.167 281.109 136.656C290.854 131.146 301.631 127.706 312.766 126.552C323.901 125.398 335.154 126.555 345.821 129.95C356.489 133.345 366.341 138.906 374.76 146.283C383.18 153.661 389.986 162.697 394.752 172.827C399.519 182.956 402.144 193.96 402.462 205.15C402.78 216.34 400.785 227.475 396.602 237.859C392.419 248.243 386.138 257.651 378.151 265.496" stroke="url(#paint4_linear_261_238)" stroke-width="16" stroke-linecap="round" stroke-linejoin="round"/>
<path d="M256.112 158.484L202.539 212.057C199.489 215.108 197.775 219.246 197.775 223.56C197.775 227.873 199.489 232.011 202.539 235.062L211.373 243.896C222.598 255.121 240.819 255.121 252.045 243.896L268.314 227.627C278.022 217.919 291.189 212.465 304.919 212.465C318.648 212.465 331.815 217.919 341.523 227.627L378.128 264.232M264.246 313.038L296.784 345.576M304.919 272.366L337.456 304.904" stroke="url(#paint5_linear_261_238)" stroke-width="16" stroke-linecap="round" stroke-linejoin="round"/>
</g>
<g filter="url(#filter3_d_261_238)">
<path d="M180.627 135.57H144.926L134.063 150.839L180.627 135.57Z" fill="#F8C55E"/>
<path d="M180.628 135.57L151.785 156.609L134.074 150.829L180.628 135.57Z" fill="#F8B019"/>
<path d="M134.064 101.729L123.248 135.752L134.064 150.802L134.064 101.729Z" fill="url(#paint6_linear_261_238)"/>
<path d="M134.068 101.73L145.085 135.652L134.073 150.981L134.068 101.73Z" fill="url(#paint7_linear_261_238)"/>
<path d="M87.5838 135.725L116.426 156.766L133.976 150.842L87.5838 135.725Z" fill="#F7D04C"/>
<path d="M87.5692 135.726L123.27 135.728L134.11 150.878L87.5692 135.726Z" fill="url(#paint8_linear_261_238)"/>
<path d="M105.255 190.505L134.044 169.393L134.04 150.656L105.255 190.505Z" fill="url(#paint9_linear_261_238)"/>
<path d="M105.248 190.502L116.34 156.604L134.176 150.728L105.248 190.502Z" fill="url(#paint10_linear_261_238)"/>
<path d="M162.708 190.61L151.756 156.631L134.064 150.789L162.708 190.61Z" fill="url(#paint11_linear_261_238)"/>
<path d="M162.704 190.612L134.036 169.392L134.04 150.728L162.704 190.612Z" fill="url(#paint12_linear_261_238)"/>
</g>
<defs>
<filter id="filter0_d_261_238" x="59.9141" y="39.1487" width="392.171" height="441.701" filterUnits="userSpaceOnUse" color-interpolation-filters="sRGB">
<feFlood flood-opacity="0" result="BackgroundImageFix"/>
<feColorMatrix in="SourceAlpha" type="matrix" values="0 0 0 0 0 0 0 0 0 0 0 0 0 0 0 0 0 0 127 0" result="hardAlpha"/>
<feOffset dy="4"/>
<feGaussianBlur stdDeviation="4.5"/>
<feComposite in2="hardAlpha" operator="out"/>
<feColorMatrix type="matrix" values="0 0 0 0 0 0 0 0 0 0 0 0 0 0 0 0 0 0 0.25 0"/>
<feBlend mode="normal" in2="BackgroundImageFix" result="effect1_dropShadow_261_238"/>
<feBlend mode="normal" in="SourceGraphic" in2="effect1_dropShadow_261_238" result="shape"/>
</filter>
<filter id="filter1_d_261_238" x="49.5039" y="107.756" width="412.991" height="380.487" filterUnits="userSpaceOnUse" color-interpolation-filters="sRGB">
<feFlood flood-opacity="0" result="BackgroundImageFix"/>
<feColorMatrix in="SourceAlpha" type="matrix" values="0 0 0 0 0 0 0 0 0 0 0 0 0 0 0 0 0 0 127 0" result="hardAlpha"/>
<feOffset dy="42"/>
<feGaussianBlur stdDeviation="26"/>
<feComposite in2="hardAlpha" operator="out"/>
<feColorMatrix type="matrix" values="0 0 0 0 0 0 0 0 0 0 0 0 0 0 0 0 0 0 0.25 0"/>
<feBlend mode="normal" in2="BackgroundImageFix" result="effect1_dropShadow_261_238"/>
<feBlend mode="normal" in="SourceGraphic" in2="effect1_dropShadow_261_238" result="shape"/>
</filter>
<filter id="filter2_i_261_238" x="101.504" y="100.756" width="308.991" height="293.487" filterUnits="userSpaceOnUse" color-interpolation-filters="sRGB">
<feFlood flood-opacity="0" result="BackgroundImageFix"/>
<feBlend mode="normal" in="SourceGraphic" in2="BackgroundImageFix" result="shape"/>
<feColorMatrix in="SourceAlpha" type="matrix" values="0 0 0 0 0 0 0 0 0 0 0 0 0 0 0 0 0 0 127 0" result="hardAlpha"/>
<feOffset dy="-50"/>
<feGaussianBlur stdDeviation="8.5"/>
<feComposite in2="hardAlpha" operator="arithmetic" k2="-1" k3="1"/>
<feColorMatrix type="matrix" values="0 0 0 0 0 0 0 0 0 0 0 0 0 0 0 0 0 0 0.25 0"/>
<feBlend mode="normal" in2="shape" result="effect1_innerShadow_261_238"/>
</filter>
<filter id="filter3_d_261_238" x="37.5693" y="71.729" width="203.059" height="198.883" filterUnits="userSpaceOnUse" color-interpolation-filters="sRGB">
<feFlood flood-opacity="0" result="BackgroundImageFix"/>
<feColorMatrix in="SourceAlpha" type="matrix" values="0 0 0 0 0 0 0 0 0 0 0 0 0 0 0 0 0 0 127 0" result="hardAlpha"/>
<feOffset dx="5" dy="25"/>
<feGaussianBlur stdDeviation="27.5"/>
<feComposite in2="hardAlpha" operator="out"/>
<feColorMatrix type="matrix" values="0 0 0 0 0 0 0 0 0 0 0 0 0 0 0 0 0 0 0.47 0"/>
<feBlend mode="normal" in2="BackgroundImageFix" result="effect1_dropShadow_261_238"/>
<feBlend mode="normal" in="SourceGraphic" in2="effect1_dropShadow_261_238" result="shape"/>
</filter>
<linearGradient id="paint0_linear_261_238" x1="256" y1="4.94971" x2="256" y2="507.049" gradientUnits="userSpaceOnUse">
<stop stop-color="#82E1FD"/>
<stop offset="1" stop-color="#1394DE"/>
</linearGradient>
<linearGradient id="paint1_linear_261_238" x1="256" y1="44.1487" x2="256" y2="467.85" gradientUnits="userSpaceOnUse">
<stop stop-color="#069BFF"/>
<stop offset="1" stop-color="#B3DFFF"/>
</linearGradient>
<linearGradient id="paint2_linear_261_238" x1="256" y1="44.1484" x2="256" y2="467.849" gradientUnits="userSpaceOnUse">
<stop stop-color="#059EFE"/>
<stop offset="1" stop-color="#CCFAFF"/>
</linearGradient>
<radialGradient id="paint3_radial_261_238" cx="0" cy="0" r="1" gradientUnits="userSpaceOnUse" gradientTransform="translate(143.227 193.671) rotate(31.1198) scale(302.853 219.907)">
<stop offset="0.328125" stop-color="#FE3260"/>
<stop offset="1" stop-color="#A70021"/>
</radialGradient>
<linearGradient id="paint4_linear_261_238" x1="255.999" y1="125.756" x2="255.999" y2="386.243" gradientUnits="userSpaceOnUse">
<stop stop-color="white"/>
<stop offset="1" stop-color="#FFE6E6"/>
</linearGradient>
<linearGradient id="paint5_linear_261_238" x1="287.952" y1="158.484" x2="287.952" y2="345.576" gradientUnits="userSpaceOnUse">
<stop stop-color="white"/>
<stop offset="1" stop-color="#FFE6E6"/>
</linearGradient>
<linearGradient id="paint6_linear_261_238" x1="129.866" y1="107.728" x2="132.581" y2="147.807" gradientUnits="userSpaceOnUse">
<stop stop-color="#FFE37E"/>
<stop offset="1" stop-color="#F8E9B3"/>
</linearGradient>
<linearGradient id="paint7_linear_261_238" x1="136.728" y1="145.789" x2="134.07" y2="104.25" gradientUnits="userSpaceOnUse">
<stop stop-color="#F7A607"/>
<stop offset="1" stop-color="#FFB016"/>
</linearGradient>
<linearGradient id="paint8_linear_261_238" x1="94.5241" y1="133.501" x2="131.949" y2="147.908" gradientUnits="userSpaceOnUse">
<stop stop-color="#F8E9B3"/>
<stop offset="1" stop-color="#FFE37E"/>
</linearGradient>
<linearGradient id="paint9_linear_261_238" x1="102.855" y1="188.794" x2="133.946" y2="155.466" gradientUnits="userSpaceOnUse">
<stop stop-color="#F8AA21"/>
<stop offset="1" stop-color="#FFC560"/>
</linearGradient>
<linearGradient id="paint10_linear_261_238" x1="107.254" y1="185.743" x2="121.789" y2="158.975" gradientUnits="userSpaceOnUse">
<stop stop-color="#F8E995"/>
<stop offset="1" stop-color="#FFE553"/>
</linearGradient>
<linearGradient id="paint11_linear_261_238" x1="162.915" y1="189.955" x2="137.806" y2="154.307" gradientUnits="userSpaceOnUse">
<stop stop-color="#FFE49C"/>
<stop offset="1" stop-color="#F8C230"/>
</linearGradient>
<linearGradient id="paint12_linear_261_238" x1="162.012" y1="190.612" x2="135.705" y2="155.782" gradientUnits="userSpaceOnUse">
<stop stop-color="#F8C230"/>
<stop offset="1" stop-color="#FFE49C"/>
</linearGradient>
</defs>
</svg>
