<svg width="512" height="512" viewBox="0 0 512 512" fill="none" xmlns="http://www.w3.org/2000/svg">
<path d="M240 9.23689C249.9 3.52064 262.099 3.52065 272 9.2369L461.702 118.762C471.603 124.478 477.702 135.042 477.702 146.475L477.702 365.524C477.702 376.957 471.603 387.521 461.702 393.237L272 502.762C262.099 508.478 249.9 508.478 240 502.762L50.2969 393.237C40.396 387.521 34.2969 376.957 34.2969 365.524L34.2969 146.475C34.2969 135.042 40.396 124.478 50.2969 118.762L240 9.23689Z" fill="url(#paint0_linear_261_166)"/>
<g filter="url(#filter0_d_261_166)">
<path d="M242.498 47.7665C250.853 42.9428 261.147 42.9428 269.501 47.7665L429.584 140.19C437.939 145.014 443.085 153.928 443.085 163.576V348.423C443.085 358.07 437.939 366.985 429.584 371.808L269.501 464.232C261.147 469.056 250.853 469.056 242.498 464.232L82.4158 371.808C74.0609 366.985 68.9141 358.07 68.9141 348.423V163.576C68.9141 153.928 74.0609 145.014 82.4158 140.19L242.498 47.7665Z" fill="url(#paint1_linear_261_166)"/>
</g>
<mask id="mask0_261_166" style="mask-type:alpha" maskUnits="userSpaceOnUse" x="68" y="44" width="376" height="424">
<path d="M242.498 47.7662C250.853 42.9425 261.147 42.9425 269.501 47.7662L429.584 140.19C437.939 145.013 443.085 153.928 443.085 163.575V348.422C443.085 358.07 437.939 366.984 429.584 371.808L269.501 464.232C261.147 469.055 250.853 469.055 242.498 464.232L82.4158 371.808C74.0609 366.984 68.9141 358.07 68.9141 348.422V163.575C68.9141 153.928 74.0609 145.013 82.4158 140.19L242.498 47.7662Z" fill="url(#paint2_linear_261_166)"/>
</mask>
<g mask="url(#mask0_261_166)">
<path d="M464.544 2.6708L266.367 246.428L525.158 68.3293L268.565 249.58L565.809 147.906L269.831 253.208L583.484 235.5L270.071 257.043L576.87 324.615L269.267 260.801L546.459 408.64L267.48 264.202L494.506 481.344L264.841 266.995L424.864 537.336L261.546 268.972L342.698 572.462L257.84 269.988L254.103 584.118L253.998 269.966L165.648 571.438L250.304 268.907L83.8935 535.364L247.033 266.892L14.9038 478.571L244.426 264.069L-36.2048 405.27L242.678 260.647L-65.642 320.899L241.918 256.88L-71.2245 231.714L242.203 253.048L-52.5382 144.331L243.51 249.435L-10.969 65.229L245.744 246.309L50.4001 0.275853L248.739 243.901L127.018 -45.7115L252.272 242.391L213.201 -69.3223L256.082 241.89L302.559 -68.8056L259.885 242.435L388.463 -44.1996L263.401 243.986L464.544 2.6708Z" fill="white" fill-opacity="0.24"/>
</g>
<g filter="url(#filter1_d_261_166)">
<path d="M106.84 173.497C106.84 163.607 110.769 154.123 117.762 147.129C124.755 140.136 134.24 136.208 144.13 136.208H367.868C377.758 136.208 387.242 140.136 394.236 147.129C401.229 154.123 405.157 163.607 405.157 173.497V322.656C405.157 332.546 401.229 342.031 394.236 349.024C387.242 356.017 377.758 359.946 367.868 359.946H321.256C318.361 359.946 315.506 360.62 312.917 361.914C310.328 363.209 308.076 365.088 306.34 367.404L270.915 414.631C269.178 416.947 266.926 418.826 264.337 420.121C261.748 421.415 258.893 422.089 255.999 422.089C253.104 422.089 250.249 421.415 247.66 420.121C245.071 418.826 242.819 416.947 241.083 414.631L205.658 367.404C203.921 365.088 201.669 363.209 199.08 361.914C196.491 360.62 193.636 359.946 190.742 359.946H144.13C134.24 359.946 124.755 356.017 117.762 349.024C110.769 342.031 106.84 332.546 106.84 322.656V173.497Z" fill="url(#paint3_linear_261_166)"/>
</g>
<g filter="url(#filter2_d_261_166)">
<path d="M405.156 214.621H290.711L255.89 263.57L405.156 214.621Z" fill="#F8C55E"/>
<path d="M405.159 214.621L312.698 282.065L255.922 263.538L405.159 214.621Z" fill="#F8B019"/>
<path d="M255.89 106.139L221.218 215.205L255.891 263.453L255.89 106.139Z" fill="url(#paint4_linear_261_166)"/>
<path d="M255.902 106.141L291.219 214.886L255.919 264.024L255.902 106.141Z" fill="url(#paint5_linear_261_166)"/>
<path d="M106.89 215.12L199.347 282.568L255.609 263.578L106.89 215.12Z" fill="#F7D04C"/>
<path d="M106.842 215.122L221.287 215.127L256.036 263.694L106.842 215.122Z" fill="url(#paint6_linear_261_166)"/>
<path d="M163.536 390.725L255.825 323.047L255.814 262.983L163.536 390.725Z" fill="url(#paint7_linear_261_166)"/>
<path d="M163.518 390.717L199.076 282.05L256.253 263.214L163.518 390.717Z" fill="url(#paint8_linear_261_166)"/>
<path d="M347.716 391.063L312.608 282.136L255.893 263.408L347.716 391.063Z" fill="url(#paint9_linear_261_166)"/>
<path d="M347.703 391.068L255.803 323.044L255.815 263.214L347.703 391.068Z" fill="url(#paint10_linear_261_166)"/>
</g>
<path d="M405.156 264.89C407.066 270.696 411.619 275.249 417.425 277.159C411.619 279.068 407.066 283.622 405.156 289.428C403.247 283.622 398.693 279.068 392.887 277.159C398.693 275.249 403.247 270.696 405.156 264.89Z" fill="white"/>
<path d="M333.621 80.1914C336.481 88.8866 343.301 95.7066 351.996 98.5663C343.301 101.426 336.481 108.246 333.621 116.941C330.761 108.246 323.941 101.426 315.246 98.5663C323.941 95.7066 330.761 88.8866 333.621 80.1914Z" fill="white"/>
<path d="M121.828 341.065C124.009 347.697 129.21 352.898 135.842 355.079C129.21 357.26 124.009 362.461 121.828 369.092C119.647 362.461 114.446 357.26 107.814 355.079C114.446 352.898 119.647 347.697 121.828 341.065Z" fill="white"/>
<path d="M134.099 136.208C136.009 142.014 140.563 146.568 146.369 148.477C140.563 150.387 136.009 154.941 134.099 160.747C132.19 154.941 127.636 150.387 121.83 148.477C127.636 146.568 132.19 142.014 134.099 136.208Z" fill="white"/>
<defs>
<filter id="filter0_d_261_166" x="59.9141" y="39.1487" width="392.171" height="441.701" filterUnits="userSpaceOnUse" color-interpolation-filters="sRGB">
<feFlood flood-opacity="0" result="BackgroundImageFix"/>
<feColorMatrix in="SourceAlpha" type="matrix" values="0 0 0 0 0 0 0 0 0 0 0 0 0 0 0 0 0 0 127 0" result="hardAlpha"/>
<feOffset dy="4"/>
<feGaussianBlur stdDeviation="4.5"/>
<feComposite in2="hardAlpha" operator="out"/>
<feColorMatrix type="matrix" values="0 0 0 0 0 0 0 0 0 0 0 0 0 0 0 0 0 0 0.25 0"/>
<feBlend mode="normal" in2="BackgroundImageFix" result="effect1_dropShadow_261_166"/>
<feBlend mode="normal" in="SourceGraphic" in2="effect1_dropShadow_261_166" result="shape"/>
</filter>
<filter id="filter1_d_261_166" x="34.8398" y="85.2075" width="420.317" height="407.881" filterUnits="userSpaceOnUse" color-interpolation-filters="sRGB">
<feFlood flood-opacity="0" result="BackgroundImageFix"/>
<feColorMatrix in="SourceAlpha" type="matrix" values="0 0 0 0 0 0 0 0 0 0 0 0 0 0 0 0 0 0 127 0" result="hardAlpha"/>
<feOffset dx="-11" dy="10"/>
<feGaussianBlur stdDeviation="30.5"/>
<feComposite in2="hardAlpha" operator="out"/>
<feColorMatrix type="matrix" values="0 0 0 0 0 0 0 0 0 0 0 0 0 0 0 0 0 0 0.25 0"/>
<feBlend mode="normal" in2="BackgroundImageFix" result="effect1_dropShadow_261_166"/>
<feBlend mode="normal" in="SourceGraphic" in2="effect1_dropShadow_261_166" result="shape"/>
</filter>
<filter id="filter2_d_261_166" x="56.8418" y="76.1387" width="408.316" height="394.929" filterUnits="userSpaceOnUse" color-interpolation-filters="sRGB">
<feFlood flood-opacity="0" result="BackgroundImageFix"/>
<feColorMatrix in="SourceAlpha" type="matrix" values="0 0 0 0 0 0 0 0 0 0 0 0 0 0 0 0 0 0 127 0" result="hardAlpha"/>
<feOffset dx="5" dy="25"/>
<feGaussianBlur stdDeviation="27.5"/>
<feComposite in2="hardAlpha" operator="out"/>
<feColorMatrix type="matrix" values="0 0 0 0 0 0 0 0 0 0 0 0 0 0 0 0 0 0 0.47 0"/>
<feBlend mode="normal" in2="BackgroundImageFix" result="effect1_dropShadow_261_166"/>
<feBlend mode="normal" in="SourceGraphic" in2="effect1_dropShadow_261_166" result="shape"/>
</filter>
<linearGradient id="paint0_linear_261_166" x1="256" y1="4.94971" x2="256" y2="507.049" gradientUnits="userSpaceOnUse">
<stop stop-color="#82E1FD"/>
<stop offset="1" stop-color="#1394DE"/>
</linearGradient>
<linearGradient id="paint1_linear_261_166" x1="256" y1="44.1487" x2="256" y2="467.85" gradientUnits="userSpaceOnUse">
<stop stop-color="#069BFF"/>
<stop offset="1" stop-color="#B3DFFF"/>
</linearGradient>
<linearGradient id="paint2_linear_261_166" x1="256" y1="44.1484" x2="256" y2="467.849" gradientUnits="userSpaceOnUse">
<stop stop-color="#059EFE"/>
<stop offset="1" stop-color="#CCFAFF"/>
</linearGradient>
<linearGradient id="paint3_linear_261_166" x1="179.934" y1="158.178" x2="255.999" y2="422.089" gradientUnits="userSpaceOnUse">
<stop stop-color="#FF9D9D"/>
<stop offset="1" stop-color="#F51111"/>
</linearGradient>
<linearGradient id="paint4_linear_261_166" x1="242.432" y1="125.368" x2="251.136" y2="253.851" gradientUnits="userSpaceOnUse">
<stop stop-color="#FFE37E"/>
<stop offset="1" stop-color="#F8E9B3"/>
</linearGradient>
<linearGradient id="paint5_linear_261_166" x1="264.43" y1="247.382" x2="255.91" y2="114.219" gradientUnits="userSpaceOnUse">
<stop stop-color="#F7A607"/>
<stop offset="1" stop-color="#FFB016"/>
</linearGradient>
<linearGradient id="paint6_linear_261_166" x1="129.137" y1="207.99" x2="249.109" y2="254.174" gradientUnits="userSpaceOnUse">
<stop stop-color="#F8E9B3"/>
<stop offset="1" stop-color="#FFE37E"/>
</linearGradient>
<linearGradient id="paint7_linear_261_166" x1="155.845" y1="385.241" x2="255.511" y2="278.402" gradientUnits="userSpaceOnUse">
<stop stop-color="#F8AA21"/>
<stop offset="1" stop-color="#FFC560"/>
</linearGradient>
<linearGradient id="paint8_linear_261_166" x1="169.949" y1="375.459" x2="216.544" y2="289.65" gradientUnits="userSpaceOnUse">
<stop stop-color="#F8E995"/>
<stop offset="1" stop-color="#FFE553"/>
</linearGradient>
<linearGradient id="paint9_linear_261_166" x1="348.379" y1="388.962" x2="267.888" y2="274.687" gradientUnits="userSpaceOnUse">
<stop stop-color="#FFE49C"/>
<stop offset="1" stop-color="#F8C230"/>
</linearGradient>
<linearGradient id="paint10_linear_261_166" x1="345.484" y1="391.068" x2="261.152" y2="279.416" gradientUnits="userSpaceOnUse">
<stop stop-color="#F8C230"/>
<stop offset="1" stop-color="#FFE49C"/>
</linearGradient>
</defs>
</svg>
