<svg width="512" height="512" viewBox="0 0 512 512" fill="none" xmlns="http://www.w3.org/2000/svg">
<path d="M240 9.23689C249.9 3.52064 262.099 3.52065 272 9.2369L461.702 118.762C471.603 124.478 477.702 135.042 477.702 146.475L477.702 365.524C477.702 376.957 471.603 387.521 461.702 393.237L272 502.762C262.099 508.478 249.9 508.478 240 502.762L50.2969 393.237C40.396 387.521 34.2969 376.957 34.2969 365.524L34.2969 146.475C34.2969 135.042 40.396 124.478 50.2969 118.762L240 9.23689Z" fill="url(#paint0_linear_261_188)"/>
<g filter="url(#filter0_d_261_188)">
<path d="M242.498 47.7665C250.853 42.9428 261.147 42.9428 269.501 47.7665L429.584 140.19C437.939 145.014 443.085 153.928 443.085 163.576V348.423C443.085 358.07 437.939 366.985 429.584 371.808L269.501 464.232C261.147 469.056 250.853 469.056 242.498 464.232L82.4158 371.808C74.0609 366.985 68.9141 358.07 68.9141 348.423V163.576C68.9141 153.928 74.0609 145.014 82.4158 140.19L242.498 47.7665Z" fill="url(#paint1_linear_261_188)"/>
</g>
<mask id="mask0_261_188" style="mask-type:alpha" maskUnits="userSpaceOnUse" x="68" y="44" width="376" height="424">
<path d="M242.498 47.7662C250.853 42.9425 261.147 42.9425 269.501 47.7662L429.584 140.19C437.939 145.013 443.085 153.928 443.085 163.575V348.422C443.085 358.07 437.939 366.984 429.584 371.808L269.501 464.232C261.147 469.055 250.853 469.055 242.498 464.232L82.4158 371.808C74.0609 366.984 68.9141 358.07 68.9141 348.422V163.575C68.9141 153.928 74.0609 145.013 82.4158 140.19L242.498 47.7662Z" fill="url(#paint2_linear_261_188)"/>
</mask>
<g mask="url(#mask0_261_188)">
<path d="M464.544 2.6708L266.367 246.428L525.158 68.3293L268.565 249.58L565.809 147.906L269.831 253.208L583.484 235.5L270.071 257.043L576.87 324.615L269.267 260.801L546.459 408.64L267.48 264.202L494.506 481.344L264.841 266.995L424.864 537.336L261.546 268.972L342.698 572.462L257.84 269.988L254.103 584.118L253.998 269.966L165.648 571.438L250.304 268.907L83.8935 535.364L247.033 266.892L14.9038 478.571L244.426 264.069L-36.2048 405.27L242.678 260.647L-65.642 320.899L241.918 256.88L-71.2245 231.714L242.203 253.048L-52.5382 144.331L243.51 249.435L-10.969 65.229L245.744 246.309L50.4001 0.275853L248.739 243.901L127.018 -45.7115L252.272 242.391L213.201 -69.3223L256.082 241.89L302.559 -68.8056L259.885 242.435L388.463 -44.1996L263.401 243.986L464.544 2.6708Z" fill="white" fill-opacity="0.24"/>
</g>
<path d="M139.164 261.706C139.164 256.553 141.211 251.61 144.855 247.966C148.499 244.322 153.442 242.275 158.595 242.275H275.182C280.336 242.275 285.278 244.322 288.922 247.966C292.566 251.61 294.613 256.553 294.613 261.706V339.431C294.613 344.584 292.566 349.527 288.922 353.171C285.278 356.815 280.336 358.862 275.182 358.862H250.893C249.385 358.862 247.897 359.213 246.548 359.888C245.199 360.562 244.026 361.541 243.121 362.748L224.661 387.358C223.756 388.564 222.583 389.544 221.234 390.218C219.885 390.893 218.397 391.244 216.889 391.244C215.38 391.244 213.893 390.893 212.544 390.218C211.195 389.544 210.021 388.564 209.116 387.358L190.657 362.748C189.752 361.541 188.578 360.562 187.229 359.888C185.88 359.213 184.392 358.862 182.884 358.862H158.595C153.442 358.862 148.499 356.815 144.855 353.171C141.211 349.527 139.164 344.584 139.164 339.431V261.706Z" fill="url(#paint3_linear_261_188)"/>
<line x1="162.977" y1="278.926" x2="270.789" y2="278.926" stroke="white" stroke-width="12" stroke-linecap="round"/>
<line x1="162.977" y1="314.926" x2="217.843" y2="314.926" stroke="white" stroke-width="12" stroke-linecap="round"/>
<line x1="162.977" y1="296.926" x2="270.789" y2="296.926" stroke="white" stroke-width="12" stroke-linecap="round"/>
<g filter="url(#filter1_d_261_188)">
<path d="M250.793 299.826C250.793 295.874 252.363 292.084 255.157 289.289C257.952 286.495 261.741 284.925 265.693 284.925H355.095C359.047 284.925 362.837 286.495 365.631 289.289C368.425 292.084 369.995 295.874 369.995 299.826V359.427C369.995 363.378 368.425 367.168 365.631 369.963C362.837 372.757 359.047 374.327 355.095 374.327H336.47C335.313 374.327 334.172 374.596 333.138 375.113C332.103 375.631 331.203 376.382 330.509 377.307L316.354 396.178C315.66 397.103 314.76 397.854 313.726 398.372C312.691 398.889 311.551 399.158 310.394 399.158C309.237 399.158 308.097 398.889 307.062 398.372C306.028 397.854 305.128 397.103 304.434 396.178L290.279 377.307C289.585 376.382 288.685 375.631 287.65 375.113C286.616 374.596 285.475 374.327 284.319 374.327H265.693C261.741 374.327 257.952 372.757 255.157 369.963C252.363 367.168 250.793 363.378 250.793 359.427V299.826Z" fill="url(#paint4_linear_261_188)"/>
</g>
<path d="M405.156 264.89C407.066 270.696 411.619 275.249 417.425 277.159C411.619 279.068 407.066 283.622 405.156 289.428C403.247 283.622 398.693 279.068 392.887 277.159C398.693 275.249 403.247 270.696 405.156 264.89Z" fill="white"/>
<path d="M268.59 431.1C271.449 439.795 278.269 446.615 286.965 449.475C278.269 452.334 271.449 459.154 268.59 467.85C265.73 459.154 258.91 452.334 250.215 449.475C258.91 446.615 265.73 439.795 268.59 431.1Z" fill="white"/>
<path d="M121.828 341.065C124.009 347.697 129.21 352.898 135.842 355.079C129.21 357.26 124.009 362.461 121.828 369.092C119.647 362.461 114.446 357.26 107.814 355.079C114.446 352.898 119.647 347.697 121.828 341.065Z" fill="white"/>
<path d="M124.019 114.983C125.929 120.789 130.483 125.343 136.289 127.253C130.483 129.162 125.929 133.716 124.019 139.522C122.11 133.716 117.556 129.162 111.75 127.253C117.556 125.343 122.11 120.789 124.019 114.983Z" fill="white" fill-opacity="0.54"/>
<g filter="url(#filter2_d_261_188)">
<path d="M321.977 128.175H271.355L255.953 149.826L321.977 128.175Z" fill="#F8C55E"/>
<path d="M321.976 128.175L281.079 158.007L255.966 149.812L321.976 128.175Z" fill="#F8B019"/>
<path d="M255.956 80.1914L240.62 128.434L255.957 149.775L255.956 80.1914Z" fill="url(#paint5_linear_261_188)"/>
<path d="M255.957 80.192L271.579 128.293L255.965 150.028L255.957 80.192Z" fill="url(#paint6_linear_261_188)"/>
<path d="M190.047 128.396L230.943 158.23L255.829 149.83L190.047 128.396Z" fill="#F7D04C"/>
<path d="M190.029 128.396L240.65 128.398L256.021 149.881L190.029 128.396Z" fill="url(#paint7_linear_261_188)"/>
<path d="M215.101 206.07L255.923 176.135L255.917 149.567L215.101 206.07Z" fill="url(#paint8_linear_261_188)"/>
<path d="M215.095 206.066L230.823 158.001L256.114 149.669L215.095 206.066Z" fill="url(#paint9_linear_261_188)"/>
<path d="M296.567 206.22L281.038 158.04L255.952 149.755L296.567 206.22Z" fill="url(#paint10_linear_261_188)"/>
<path d="M296.562 206.221L255.913 176.132L255.918 149.668L296.562 206.221Z" fill="url(#paint11_linear_261_188)"/>
</g>
<g filter="url(#filter3_d_261_188)">
<path d="M375.721 171.845H352.688L345.68 181.697L375.721 171.845Z" fill="#F8C55E"/>
<path d="M375.72 171.845L357.112 185.419L345.685 181.69L375.72 171.845Z" fill="#F8B019"/>
<path d="M345.681 150.013L338.703 171.963L345.681 181.673L345.681 150.013Z" fill="url(#paint12_linear_261_188)"/>
<path d="M345.681 150.013L352.789 171.899L345.685 181.788L345.681 150.013Z" fill="url(#paint13_linear_261_188)"/>
<path d="M315.692 171.946L334.3 185.521L345.623 181.699L315.692 171.946Z" fill="#F7D04C"/>
<path d="M315.684 171.946L338.717 171.947L345.711 181.722L315.684 171.946Z" fill="url(#paint14_linear_261_188)"/>
<path d="M327.092 207.288L345.666 193.667L345.663 181.578L327.092 207.288Z" fill="url(#paint15_linear_261_188)"/>
<path d="M327.089 207.286L334.245 185.416L345.752 181.625L327.089 207.286Z" fill="url(#paint16_linear_261_188)"/>
<path d="M364.159 207.356L357.094 185.434L345.679 181.664L364.159 207.356Z" fill="url(#paint17_linear_261_188)"/>
<path d="M364.158 207.356L345.662 193.666L345.665 181.624L364.158 207.356Z" fill="url(#paint18_linear_261_188)"/>
</g>
<g filter="url(#filter4_d_261_188)">
<path d="M196.318 171.845H173.285L166.277 181.697L196.318 171.845Z" fill="#F8C55E"/>
<path d="M196.318 171.845L177.709 185.419L166.283 181.69L196.318 171.845Z" fill="#F8B019"/>
<path d="M166.279 150.013L159.301 171.963L166.279 181.673L166.279 150.013Z" fill="url(#paint19_linear_261_188)"/>
<path d="M166.279 150.013L173.387 171.899L166.283 181.788L166.279 150.013Z" fill="url(#paint20_linear_261_188)"/>
<path d="M136.29 171.946L154.897 185.521L166.22 181.699L136.29 171.946Z" fill="#F7D04C"/>
<path d="M136.282 171.946L159.315 171.947L166.308 181.722L136.282 171.946Z" fill="url(#paint21_linear_261_188)"/>
<path d="M147.689 207.288L166.263 193.667L166.261 181.578L147.689 207.288Z" fill="url(#paint22_linear_261_188)"/>
<path d="M147.687 207.286L154.843 185.416L166.35 181.625L147.687 207.286Z" fill="url(#paint23_linear_261_188)"/>
<path d="M184.757 207.356L177.691 185.434L166.277 181.664L184.757 207.356Z" fill="url(#paint24_linear_261_188)"/>
<path d="M184.755 207.356L166.26 193.666L166.262 181.624L184.755 207.356Z" fill="url(#paint25_linear_261_188)"/>
</g>
<line x1="282.789" y1="321.685" x2="338.004" y2="321.685" stroke="white" stroke-width="12" stroke-linecap="round"/>
<line x1="282.789" y1="338.405" x2="338.004" y2="338.405" stroke="white" stroke-width="12" stroke-linecap="round"/>
<defs>
<filter id="filter0_d_261_188" x="59.9141" y="39.1487" width="392.171" height="441.701" filterUnits="userSpaceOnUse" color-interpolation-filters="sRGB">
<feFlood flood-opacity="0" result="BackgroundImageFix"/>
<feColorMatrix in="SourceAlpha" type="matrix" values="0 0 0 0 0 0 0 0 0 0 0 0 0 0 0 0 0 0 127 0" result="hardAlpha"/>
<feOffset dy="4"/>
<feGaussianBlur stdDeviation="4.5"/>
<feComposite in2="hardAlpha" operator="out"/>
<feColorMatrix type="matrix" values="0 0 0 0 0 0 0 0 0 0 0 0 0 0 0 0 0 0 0.25 0"/>
<feBlend mode="normal" in2="BackgroundImageFix" result="effect1_dropShadow_261_188"/>
<feBlend mode="normal" in="SourceGraphic" in2="effect1_dropShadow_261_188" result="shape"/>
</filter>
<filter id="filter1_d_261_188" x="178.793" y="233.925" width="241.202" height="236.233" filterUnits="userSpaceOnUse" color-interpolation-filters="sRGB">
<feFlood flood-opacity="0" result="BackgroundImageFix"/>
<feColorMatrix in="SourceAlpha" type="matrix" values="0 0 0 0 0 0 0 0 0 0 0 0 0 0 0 0 0 0 127 0" result="hardAlpha"/>
<feOffset dx="-11" dy="10"/>
<feGaussianBlur stdDeviation="30.5"/>
<feComposite in2="hardAlpha" operator="out"/>
<feColorMatrix type="matrix" values="0 0 0 0 0 0 0 0 0 0 0 0 0 0 0 0 0 0 0.25 0"/>
<feBlend mode="normal" in2="BackgroundImageFix" result="effect1_dropShadow_261_188"/>
<feBlend mode="normal" in="SourceGraphic" in2="effect1_dropShadow_261_188" result="shape"/>
</filter>
<filter id="filter2_d_261_188" x="140.028" y="50.1914" width="241.949" height="236.029" filterUnits="userSpaceOnUse" color-interpolation-filters="sRGB">
<feFlood flood-opacity="0" result="BackgroundImageFix"/>
<feColorMatrix in="SourceAlpha" type="matrix" values="0 0 0 0 0 0 0 0 0 0 0 0 0 0 0 0 0 0 127 0" result="hardAlpha"/>
<feOffset dx="5" dy="25"/>
<feGaussianBlur stdDeviation="27.5"/>
<feComposite in2="hardAlpha" operator="out"/>
<feColorMatrix type="matrix" values="0 0 0 0 0 0 0 0 0 0 0 0 0 0 0 0 0 0 0.47 0"/>
<feBlend mode="normal" in2="BackgroundImageFix" result="effect1_dropShadow_261_188"/>
<feBlend mode="normal" in="SourceGraphic" in2="effect1_dropShadow_261_188" result="shape"/>
</filter>
<filter id="filter3_d_261_188" x="265.685" y="120.013" width="170.036" height="167.344" filterUnits="userSpaceOnUse" color-interpolation-filters="sRGB">
<feFlood flood-opacity="0" result="BackgroundImageFix"/>
<feColorMatrix in="SourceAlpha" type="matrix" values="0 0 0 0 0 0 0 0 0 0 0 0 0 0 0 0 0 0 127 0" result="hardAlpha"/>
<feOffset dx="5" dy="25"/>
<feGaussianBlur stdDeviation="27.5"/>
<feComposite in2="hardAlpha" operator="out"/>
<feColorMatrix type="matrix" values="0 0 0 0 0 0 0 0 0 0 0 0 0 0 0 0 0 0 0.47 0"/>
<feBlend mode="normal" in2="BackgroundImageFix" result="effect1_dropShadow_261_188"/>
<feBlend mode="normal" in="SourceGraphic" in2="effect1_dropShadow_261_188" result="shape"/>
</filter>
<filter id="filter4_d_261_188" x="86.2822" y="120.013" width="170.036" height="167.344" filterUnits="userSpaceOnUse" color-interpolation-filters="sRGB">
<feFlood flood-opacity="0" result="BackgroundImageFix"/>
<feColorMatrix in="SourceAlpha" type="matrix" values="0 0 0 0 0 0 0 0 0 0 0 0 0 0 0 0 0 0 127 0" result="hardAlpha"/>
<feOffset dx="5" dy="25"/>
<feGaussianBlur stdDeviation="27.5"/>
<feComposite in2="hardAlpha" operator="out"/>
<feColorMatrix type="matrix" values="0 0 0 0 0 0 0 0 0 0 0 0 0 0 0 0 0 0 0.47 0"/>
<feBlend mode="normal" in2="BackgroundImageFix" result="effect1_dropShadow_261_188"/>
<feBlend mode="normal" in="SourceGraphic" in2="effect1_dropShadow_261_188" result="shape"/>
</filter>
<linearGradient id="paint0_linear_261_188" x1="256" y1="4.94971" x2="256" y2="507.049" gradientUnits="userSpaceOnUse">
<stop stop-color="#82E1FD"/>
<stop offset="1" stop-color="#1394DE"/>
</linearGradient>
<linearGradient id="paint1_linear_261_188" x1="256" y1="44.1487" x2="256" y2="467.85" gradientUnits="userSpaceOnUse">
<stop stop-color="#069BFF"/>
<stop offset="1" stop-color="#B3DFFF"/>
</linearGradient>
<linearGradient id="paint2_linear_261_188" x1="256" y1="44.1484" x2="256" y2="467.849" gradientUnits="userSpaceOnUse">
<stop stop-color="#059EFE"/>
<stop offset="1" stop-color="#CCFAFF"/>
</linearGradient>
<linearGradient id="paint3_linear_261_188" x1="177.252" y1="253.723" x2="216.889" y2="391.244" gradientUnits="userSpaceOnUse">
<stop stop-color="#FFC7A8"/>
<stop offset="1" stop-color="#FF5B00"/>
</linearGradient>
<linearGradient id="paint4_linear_261_188" x1="280" y1="293.704" x2="310.394" y2="399.158" gradientUnits="userSpaceOnUse">
<stop stop-color="#FF9D9D"/>
<stop offset="1" stop-color="#F51111"/>
</linearGradient>
<linearGradient id="paint5_linear_261_188" x1="250.003" y1="88.6972" x2="253.854" y2="145.528" gradientUnits="userSpaceOnUse">
<stop stop-color="#FFE37E"/>
<stop offset="1" stop-color="#F8E9B3"/>
</linearGradient>
<linearGradient id="paint6_linear_261_188" x1="259.73" y1="142.666" x2="255.961" y2="83.7654" gradientUnits="userSpaceOnUse">
<stop stop-color="#F7A607"/>
<stop offset="1" stop-color="#FFB016"/>
</linearGradient>
<linearGradient id="paint7_linear_261_188" x1="199.89" y1="125.242" x2="252.957" y2="145.67" gradientUnits="userSpaceOnUse">
<stop stop-color="#F8E9B3"/>
<stop offset="1" stop-color="#FFE37E"/>
</linearGradient>
<linearGradient id="paint8_linear_261_188" x1="211.699" y1="203.644" x2="255.784" y2="156.387" gradientUnits="userSpaceOnUse">
<stop stop-color="#F8AA21"/>
<stop offset="1" stop-color="#FFC560"/>
</linearGradient>
<linearGradient id="paint9_linear_261_188" x1="217.939" y1="199.318" x2="238.549" y2="161.362" gradientUnits="userSpaceOnUse">
<stop stop-color="#F8E995"/>
<stop offset="1" stop-color="#FFE553"/>
</linearGradient>
<linearGradient id="paint10_linear_261_188" x1="296.86" y1="205.291" x2="261.257" y2="154.744" gradientUnits="userSpaceOnUse">
<stop stop-color="#FFE49C"/>
<stop offset="1" stop-color="#F8C230"/>
</linearGradient>
<linearGradient id="paint11_linear_261_188" x1="295.581" y1="206.221" x2="258.279" y2="156.835" gradientUnits="userSpaceOnUse">
<stop stop-color="#F8C230"/>
<stop offset="1" stop-color="#FFE49C"/>
</linearGradient>
<linearGradient id="paint12_linear_261_188" x1="342.973" y1="153.883" x2="344.724" y2="179.741" gradientUnits="userSpaceOnUse">
<stop stop-color="#FFE37E"/>
<stop offset="1" stop-color="#F8E9B3"/>
</linearGradient>
<linearGradient id="paint13_linear_261_188" x1="347.398" y1="178.439" x2="345.683" y2="151.639" gradientUnits="userSpaceOnUse">
<stop stop-color="#F7A607"/>
<stop offset="1" stop-color="#FFB016"/>
</linearGradient>
<linearGradient id="paint14_linear_261_188" x1="320.171" y1="170.511" x2="344.316" y2="179.806" gradientUnits="userSpaceOnUse">
<stop stop-color="#F8E9B3"/>
<stop offset="1" stop-color="#FFE37E"/>
</linearGradient>
<linearGradient id="paint15_linear_261_188" x1="325.544" y1="206.184" x2="345.602" y2="184.682" gradientUnits="userSpaceOnUse">
<stop stop-color="#F8AA21"/>
<stop offset="1" stop-color="#FFC560"/>
</linearGradient>
<linearGradient id="paint16_linear_261_188" x1="328.383" y1="204.215" x2="337.761" y2="186.945" gradientUnits="userSpaceOnUse">
<stop stop-color="#F8E995"/>
<stop offset="1" stop-color="#FFE553"/>
</linearGradient>
<linearGradient id="paint17_linear_261_188" x1="364.293" y1="206.933" x2="348.093" y2="183.934" gradientUnits="userSpaceOnUse">
<stop stop-color="#FFE49C"/>
<stop offset="1" stop-color="#F8C230"/>
</linearGradient>
<linearGradient id="paint18_linear_261_188" x1="363.711" y1="207.356" x2="346.739" y2="184.885" gradientUnits="userSpaceOnUse">
<stop stop-color="#F8C230"/>
<stop offset="1" stop-color="#FFE49C"/>
</linearGradient>
<linearGradient id="paint19_linear_261_188" x1="163.57" y1="153.883" x2="165.322" y2="179.741" gradientUnits="userSpaceOnUse">
<stop stop-color="#FFE37E"/>
<stop offset="1" stop-color="#F8E9B3"/>
</linearGradient>
<linearGradient id="paint20_linear_261_188" x1="167.996" y1="178.439" x2="166.281" y2="151.639" gradientUnits="userSpaceOnUse">
<stop stop-color="#F7A607"/>
<stop offset="1" stop-color="#FFB016"/>
</linearGradient>
<linearGradient id="paint21_linear_261_188" x1="140.769" y1="170.511" x2="164.914" y2="179.806" gradientUnits="userSpaceOnUse">
<stop stop-color="#F8E9B3"/>
<stop offset="1" stop-color="#FFE37E"/>
</linearGradient>
<linearGradient id="paint22_linear_261_188" x1="146.142" y1="206.184" x2="166.2" y2="184.682" gradientUnits="userSpaceOnUse">
<stop stop-color="#F8AA21"/>
<stop offset="1" stop-color="#FFC560"/>
</linearGradient>
<linearGradient id="paint23_linear_261_188" x1="148.981" y1="204.215" x2="158.358" y2="186.945" gradientUnits="userSpaceOnUse">
<stop stop-color="#F8E995"/>
<stop offset="1" stop-color="#FFE553"/>
</linearGradient>
<linearGradient id="paint24_linear_261_188" x1="184.89" y1="206.933" x2="168.691" y2="183.934" gradientUnits="userSpaceOnUse">
<stop stop-color="#FFE49C"/>
<stop offset="1" stop-color="#F8C230"/>
</linearGradient>
<linearGradient id="paint25_linear_261_188" x1="184.309" y1="207.356" x2="167.336" y2="184.885" gradientUnits="userSpaceOnUse">
<stop stop-color="#F8C230"/>
<stop offset="1" stop-color="#FFE49C"/>
</linearGradient>
</defs>
</svg>
