<svg width="512" height="512" viewBox="0 0 512 512" fill="none" xmlns="http://www.w3.org/2000/svg">
<path d="M240 9.23695C249.9 3.5207 262.099 3.52071 272 9.23696L461.702 118.762C471.603 124.478 477.702 135.042 477.702 146.475L477.702 365.524C477.702 376.957 471.603 387.521 461.702 393.237L272 502.762C262.099 508.478 249.9 508.478 240 502.762L50.2969 393.237C40.396 387.521 34.2969 376.957 34.2969 365.524L34.2969 146.475C34.2969 135.042 40.396 124.478 50.2969 118.762L240 9.23695Z" fill="url(#paint0_linear_261_48)"/>
<g filter="url(#filter0_d_261_48)">
<path d="M242.498 47.7664C250.853 42.9427 261.147 42.9427 269.501 47.7664L429.584 140.19C437.939 145.014 443.085 153.928 443.085 163.576V348.423C443.085 358.07 437.939 366.985 429.584 371.808L269.501 464.232C261.147 469.055 250.853 469.055 242.498 464.232L82.4158 371.808C74.0609 366.985 68.9141 358.07 68.9141 348.423V163.576C68.9141 153.928 74.0609 145.014 82.4158 140.19L242.498 47.7664Z" fill="#FFCCE7"/>
</g>
<mask id="mask0_261_48" style="mask-type:alpha" maskUnits="userSpaceOnUse" x="68" y="44" width="376" height="424">
<path d="M242.498 47.7662C250.853 42.9425 261.147 42.9425 269.501 47.7662L429.584 140.19C437.939 145.013 443.085 153.928 443.085 163.575V348.422C443.085 358.07 437.939 366.984 429.584 371.808L269.501 464.232C261.147 469.055 250.853 469.055 242.498 464.232L82.4158 371.808C74.0609 366.984 68.9141 358.07 68.9141 348.422V163.575C68.9141 153.928 74.0609 145.013 82.4158 140.19L242.498 47.7662Z" fill="url(#paint1_linear_261_48)"/>
</mask>
<g mask="url(#mask0_261_48)">
<path d="M447.953 -10.1206L308.958 217.243L567.714 153.531L321.624 255.773L568.411 356.322L309.223 294.389L449.777 520.793L276.493 318.341L257.126 584.121L235.934 318.481L64.0453 522.118L203.04 294.754L-55.7156 358.466L190.375 256.224L-56.4121 155.675L202.775 217.608L62.2219 -8.79584L235.506 193.655L254.872 -72.1241L276.064 193.516L447.953 -10.1206Z" fill="white" fill-opacity="0.32"/>
<g filter="url(#filter1_i_261_48)">
<path d="M289.528 262.764V187.297C289.528 182.664 285.776 178.912 281.143 178.912H264.372C259.739 178.912 255.987 182.664 255.987 187.297V264.299C258.618 263.366 261.406 262.764 264.357 262.764H289.528ZM356.61 313.07C356.604 294.549 341.59 279.534 323.074 279.534H264.304C259.703 279.534 255.971 283.239 255.971 287.841V288.134C255.971 301.902 267.134 313.075 280.902 313.075H299.381C304.454 313.075 306.298 314.951 306.298 317.268V325.758C306.298 328.006 304.417 329.835 302.169 329.95C278.837 331.145 268.544 342.9 251.831 367.972L248.524 372.935C248.219 373.393 247.827 373.787 247.37 374.093C246.912 374.4 246.399 374.613 245.859 374.721C245.32 374.829 244.764 374.83 244.224 374.723C243.684 374.616 243.17 374.404 242.712 374.098L235.737 369.445C235.279 369.14 234.885 368.747 234.579 368.29C234.272 367.833 234.059 367.319 233.951 366.78C233.843 366.24 233.842 365.684 233.949 365.144C234.056 364.604 234.268 364.091 234.573 363.633L237.88 358.67C246.124 346.301 253.707 335.998 262.674 328.231C253.623 325.344 246.218 318.735 242.303 310.177C238.85 311.964 234.987 313.07 230.842 313.07H214.071C207.604 313.07 201.761 310.549 197.301 306.529C192.836 310.554 186.992 313.075 180.531 313.075H163.76C160.804 313.075 158.011 312.472 155.375 311.529V352.37C155.375 370.163 162.44 387.221 175.023 399.804L188.911 413.698V542.78H323.063V413.719L341.883 394.894C351.321 385.454 356.622 372.652 356.62 359.304L356.61 313.07ZM339.834 265.856V204.067C339.834 199.434 336.082 195.682 331.449 195.682H314.678C310.045 195.682 306.293 199.434 306.293 204.067V262.764H323.063C328.975 262.764 334.562 263.974 339.834 265.856ZM163.76 296.305H180.531C185.163 296.305 188.916 292.552 188.916 287.919V220.838C188.916 216.205 185.163 212.453 180.531 212.453H163.76C159.127 212.453 155.375 216.205 155.375 220.838V287.919C155.375 292.552 159.127 296.305 163.76 296.305ZM214.066 296.305H230.837C235.469 296.305 239.222 292.552 239.222 287.919V204.067C239.222 199.434 235.469 195.682 230.837 195.682H214.066C209.433 195.682 205.681 199.434 205.681 204.067V287.919C205.681 292.552 209.433 296.305 214.066 296.305Z" fill="url(#paint2_radial_261_48)"/>
</g>
</g>
<path d="M104.072 302.874C106.253 309.505 111.454 314.707 118.086 316.888C111.454 319.068 106.253 324.27 104.072 330.901C101.891 324.27 96.69 319.068 90.0586 316.888C96.69 314.707 101.891 309.505 104.072 302.874Z" fill="white"/>
<path d="M405.16 217.265C407.069 223.071 411.623 227.624 417.429 229.534C411.623 231.443 407.069 235.997 405.16 241.803C403.25 235.997 398.697 231.443 392.891 229.534C398.697 227.624 403.25 223.071 405.16 217.265Z" fill="white"/>
<path d="M118.086 130.937C119.995 136.743 124.549 141.296 130.355 143.206C124.549 145.115 119.995 149.669 118.086 155.475C116.176 149.669 111.622 145.115 105.816 143.206C111.622 141.296 116.176 136.743 118.086 130.937Z" fill="white"/>
<path d="M350.63 342.471C353.489 351.166 360.309 357.986 369.005 360.846C360.309 363.705 353.489 370.525 350.63 379.221C347.77 370.525 340.95 363.705 332.255 360.846C340.95 357.986 347.77 351.166 350.63 342.471Z" fill="white"/>
<path d="M256 87.4961L256 142.915" stroke="url(#paint3_linear_261_48)" stroke-width="14" stroke-linecap="round"/>
<path d="M172.953 127.356L190.92 158.476" stroke="url(#paint4_linear_261_48)" stroke-width="14" stroke-linecap="round"/>
<path d="M335.328 127.356L317.361 158.476" stroke="url(#paint5_linear_261_48)" stroke-width="14" stroke-linecap="round"/>
<defs>
<filter id="filter0_d_261_48" x="59.9141" y="39.1486" width="392.171" height="441.701" filterUnits="userSpaceOnUse" color-interpolation-filters="sRGB">
<feFlood flood-opacity="0" result="BackgroundImageFix"/>
<feColorMatrix in="SourceAlpha" type="matrix" values="0 0 0 0 0 0 0 0 0 0 0 0 0 0 0 0 0 0 127 0" result="hardAlpha"/>
<feOffset dy="4"/>
<feGaussianBlur stdDeviation="4.5"/>
<feComposite in2="hardAlpha" operator="out"/>
<feColorMatrix type="matrix" values="0 0 0 0 0 0 0 0 0 0 0 0 0 0 0 0 0 0 0.25 0"/>
<feBlend mode="normal" in2="BackgroundImageFix" result="effect1_dropShadow_261_48"/>
<feBlend mode="normal" in="SourceGraphic" in2="effect1_dropShadow_261_48" result="shape"/>
</filter>
<filter id="filter1_i_261_48" x="143.375" y="169.912" width="213.245" height="372.868" filterUnits="userSpaceOnUse" color-interpolation-filters="sRGB">
<feFlood flood-opacity="0" result="BackgroundImageFix"/>
<feBlend mode="normal" in="SourceGraphic" in2="BackgroundImageFix" result="shape"/>
<feColorMatrix in="SourceAlpha" type="matrix" values="0 0 0 0 0 0 0 0 0 0 0 0 0 0 0 0 0 0 127 0" result="hardAlpha"/>
<feOffset dx="-12" dy="-9"/>
<feGaussianBlur stdDeviation="10.5"/>
<feComposite in2="hardAlpha" operator="arithmetic" k2="-1" k3="1"/>
<feColorMatrix type="matrix" values="0 0 0 0 0 0 0 0 0 0 0 0 0 0 0 0 0 0 0.25 0"/>
<feBlend mode="normal" in2="shape" result="effect1_innerShadow_261_48"/>
</filter>
<linearGradient id="paint0_linear_261_48" x1="256" y1="4.94977" x2="256" y2="507.049" gradientUnits="userSpaceOnUse">
<stop stop-color="#F9326B"/>
<stop offset="1" stop-color="#FE8AB7"/>
</linearGradient>
<linearGradient id="paint1_linear_261_48" x1="256" y1="44.1484" x2="256" y2="467.849" gradientUnits="userSpaceOnUse">
<stop stop-color="#52F3AD"/>
<stop offset="1" stop-color="#CCFAFF"/>
</linearGradient>
<radialGradient id="paint2_radial_261_48" cx="0" cy="0" r="1" gradientUnits="userSpaceOnUse" gradientTransform="translate(178.538 248.87) rotate(42.1573) scale(240.229 196.153)">
<stop offset="0.203125" stop-color="#FE3260"/>
<stop offset="1" stop-color="#A70021"/>
</radialGradient>
<linearGradient id="paint3_linear_261_48" x1="260.75" y1="142.629" x2="259.642" y2="71.3103" gradientUnits="userSpaceOnUse">
<stop stop-color="#370A9E"/>
<stop offset="1" stop-color="#B495F9"/>
</linearGradient>
<linearGradient id="paint4_linear_261_48" x1="193.494" y1="156.775" x2="169.751" y2="117.087" gradientUnits="userSpaceOnUse">
<stop stop-color="#370A9E"/>
<stop offset="1" stop-color="#B495F9"/>
</linearGradient>
<linearGradient id="paint5_linear_261_48" x1="320.121" y1="159.855" x2="342.621" y2="119.449" gradientUnits="userSpaceOnUse">
<stop stop-color="#370A9E"/>
<stop offset="1" stop-color="#B495F9"/>
</linearGradient>
</defs>
</svg>
