<svg width="512" height="512" viewBox="0 0 512 512" fill="none" xmlns="http://www.w3.org/2000/svg">
<path d="M240 9.23695C249.9 3.5207 262.099 3.52071 272 9.23696L461.702 118.762C471.603 124.478 477.702 135.042 477.702 146.475L477.702 365.524C477.702 376.957 471.603 387.521 461.702 393.237L272 502.762C262.099 508.478 249.9 508.478 240 502.762L50.2969 393.237C40.396 387.521 34.2969 376.957 34.2969 365.524L34.2969 146.475C34.2969 135.042 40.396 124.478 50.2969 118.762L240 9.23695Z" fill="url(#paint0_linear_261_20)"/>
<g filter="url(#filter0_d_261_20)">
<path d="M242.498 47.7664C250.853 42.9427 261.147 42.9427 269.501 47.7664L429.584 140.19C437.939 145.014 443.085 153.928 443.085 163.576V348.423C443.085 358.07 437.939 366.985 429.584 371.808L269.501 464.232C261.147 469.055 250.853 469.055 242.498 464.232L82.4158 371.808C74.0609 366.985 68.9141 358.07 68.9141 348.423V163.576C68.9141 153.928 74.0609 145.014 82.4158 140.19L242.498 47.7664Z" fill="#FFCCE7"/>
</g>
<mask id="mask0_261_20" style="mask-type:alpha" maskUnits="userSpaceOnUse" x="68" y="44" width="376" height="424">
<path d="M242.498 47.7662C250.853 42.9425 261.147 42.9425 269.501 47.7662L429.584 140.19C437.939 145.013 443.085 153.928 443.085 163.575V348.422C443.085 358.07 437.939 366.984 429.584 371.808L269.501 464.232C261.147 469.055 250.853 469.055 242.498 464.232L82.4158 371.808C74.0609 366.984 68.9141 358.07 68.9141 348.422V163.575C68.9141 153.928 74.0609 145.013 82.4158 140.19L242.498 47.7662Z" fill="url(#paint1_linear_261_20)"/>
</mask>
<g mask="url(#mask0_261_20)">
<path d="M447.953 -10.1206L308.958 217.243L567.714 153.531L321.624 255.773L568.411 356.322L309.223 294.389L449.777 520.793L276.493 318.341L257.126 584.121L235.934 318.481L64.0453 522.118L203.04 294.754L-55.7156 358.466L190.375 256.224L-56.4121 155.675L202.775 217.608L62.2219 -8.79584L235.506 193.655L254.872 -72.1241L276.064 193.516L447.953 -10.1206Z" fill="white" fill-opacity="0.32"/>
<path d="M372.811 340.283C365.266 330.042 350.88 327.828 340.65 335.413L271.822 386.112H202.475C197.445 386.112 193.793 381.943 193.793 377.429C193.793 372.4 197.962 368.747 202.475 368.747H247.47C256.153 368.747 265.151 362.496 266.658 353.44C268.527 342.457 259.689 331.952 248.476 331.952H155.974C140.967 331.952 125.43 337.271 113.355 347.046L86.6166 368.747L54.7782 368.732C49.7481 368.732 46.0956 372.916 46.0956 377.944L46.0898 432.112C46.0898 437.172 50.2592 441.312 54.7725 441.312H253.784C266.451 441.312 279.038 437.18 289.262 429.651L366.945 372.432C378.158 364.894 380.343 350.518 372.811 340.283Z" fill="url(#paint2_linear_261_20)"/>
</g>
<path d="M104.072 302.874C106.253 309.505 111.454 314.707 118.086 316.888C111.454 319.068 106.253 324.27 104.072 330.901C101.891 324.27 96.69 319.068 90.0586 316.888C96.69 314.707 101.891 309.505 104.072 302.874Z" fill="white"/>
<path d="M405.16 217.265C407.069 223.071 411.623 227.624 417.429 229.534C411.623 231.443 407.069 235.997 405.16 241.803C403.25 235.997 398.697 231.443 392.891 229.534C398.697 227.624 403.25 223.071 405.16 217.265Z" fill="white"/>
<path d="M159.469 144.427C161.378 150.234 165.932 154.787 171.738 156.697C165.932 158.606 161.378 163.16 159.469 168.966C157.559 163.16 153.005 158.606 147.199 156.697C153.005 154.787 157.559 150.234 159.469 144.427Z" fill="white"/>
<g filter="url(#filter1_d_261_20)">
<g filter="url(#filter2_i_261_20)">
<path d="M340.971 212.255L261.724 290.741C258.606 293.829 253.583 293.829 250.465 290.741L171.217 212.255C165.619 206.807 161.209 200.259 158.266 193.023C155.322 185.787 153.909 178.02 154.114 170.211C154.32 162.403 156.14 154.721 159.461 147.65C162.781 140.579 167.529 134.272 173.407 129.127C179.284 123.981 186.164 120.109 193.611 117.752C201.059 115.396 208.914 114.607 216.682 115.436C224.449 116.265 231.961 118.692 238.744 122.567C245.527 126.441 251.435 131.678 256.094 137.948C260.774 131.724 266.688 126.532 273.467 122.699C280.245 118.866 287.742 116.473 295.488 115.67C303.234 114.868 311.062 115.672 318.482 118.034C325.902 120.396 332.756 124.264 338.612 129.396C344.469 134.528 349.204 140.814 352.519 147.86C355.835 154.906 357.661 162.561 357.882 170.345C358.104 178.129 356.716 185.875 353.806 193.098C350.896 200.321 346.527 206.866 340.971 212.323" fill="url(#paint3_radial_261_20)"/>
</g>
</g>
<path d="M202.964 144.428C205.823 153.123 212.643 159.943 221.339 162.803C212.643 165.662 205.823 172.482 202.964 181.177C200.104 172.482 193.284 165.662 184.589 162.803C193.284 159.943 200.104 153.123 202.964 144.428Z" fill="white"/>
<defs>
<filter id="filter0_d_261_20" x="59.9141" y="39.1486" width="392.171" height="441.701" filterUnits="userSpaceOnUse" color-interpolation-filters="sRGB">
<feFlood flood-opacity="0" result="BackgroundImageFix"/>
<feColorMatrix in="SourceAlpha" type="matrix" values="0 0 0 0 0 0 0 0 0 0 0 0 0 0 0 0 0 0 127 0" result="hardAlpha"/>
<feOffset dy="4"/>
<feGaussianBlur stdDeviation="4.5"/>
<feComposite in2="hardAlpha" operator="out"/>
<feColorMatrix type="matrix" values="0 0 0 0 0 0 0 0 0 0 0 0 0 0 0 0 0 0 0.25 0"/>
<feBlend mode="normal" in2="BackgroundImageFix" result="effect1_dropShadow_261_20"/>
<feBlend mode="normal" in="SourceGraphic" in2="effect1_dropShadow_261_20" result="shape"/>
</filter>
<filter id="filter1_d_261_20" x="107.095" y="110.117" width="297.811" height="271.941" filterUnits="userSpaceOnUse" color-interpolation-filters="sRGB">
<feFlood flood-opacity="0" result="BackgroundImageFix"/>
<feColorMatrix in="SourceAlpha" type="matrix" values="0 0 0 0 0 0 0 0 0 0 0 0 0 0 0 0 0 0 127 0" result="hardAlpha"/>
<feOffset dy="42"/>
<feGaussianBlur stdDeviation="23.5"/>
<feComposite in2="hardAlpha" operator="out"/>
<feColorMatrix type="matrix" values="0 0 0 0 0 0 0 0 0 0 0 0 0 0 0 0 0 0 0.25 0"/>
<feBlend mode="normal" in2="BackgroundImageFix" result="effect1_dropShadow_261_20"/>
<feBlend mode="normal" in="SourceGraphic" in2="effect1_dropShadow_261_20" result="shape"/>
</filter>
<filter id="filter2_i_261_20" x="154.095" y="98.1167" width="203.811" height="194.941" filterUnits="userSpaceOnUse" color-interpolation-filters="sRGB">
<feFlood flood-opacity="0" result="BackgroundImageFix"/>
<feBlend mode="normal" in="SourceGraphic" in2="BackgroundImageFix" result="shape"/>
<feColorMatrix in="SourceAlpha" type="matrix" values="0 0 0 0 0 0 0 0 0 0 0 0 0 0 0 0 0 0 127 0" result="hardAlpha"/>
<feOffset dy="-29"/>
<feGaussianBlur stdDeviation="8.5"/>
<feComposite in2="hardAlpha" operator="arithmetic" k2="-1" k3="1"/>
<feColorMatrix type="matrix" values="0 0 0 0 0.708333 0 0 0 0 0 0 0 0 0 0.150136 0 0 0 1 0"/>
<feBlend mode="normal" in2="shape" result="effect1_innerShadow_261_20"/>
</filter>
<linearGradient id="paint0_linear_261_20" x1="256" y1="4.94977" x2="256" y2="507.049" gradientUnits="userSpaceOnUse">
<stop stop-color="#F9326B"/>
<stop offset="1" stop-color="#FE8AB7"/>
</linearGradient>
<linearGradient id="paint1_linear_261_20" x1="256" y1="44.1484" x2="256" y2="467.849" gradientUnits="userSpaceOnUse">
<stop stop-color="#52F3AD"/>
<stop offset="1" stop-color="#CCFAFF"/>
</linearGradient>
<linearGradient id="paint2_linear_261_20" x1="211.66" y1="330.901" x2="211.66" y2="441.312" gradientUnits="userSpaceOnUse">
<stop stop-color="#300398"/>
<stop offset="1" stop-color="#BC9EFF"/>
</linearGradient>
<radialGradient id="paint3_radial_261_20" cx="0" cy="0" r="1" gradientUnits="userSpaceOnUse" gradientTransform="translate(177.553 162.36) rotate(31.1198) scale(210.671 152.972)">
<stop offset="0.203125" stop-color="#FE3260"/>
<stop offset="1" stop-color="#A70021"/>
</radialGradient>
</defs>
</svg>
