<svg width="512" height="512" viewBox="0 0 512 512" fill="none" xmlns="http://www.w3.org/2000/svg">
<g clip-path="url(#clip0_261_3)">
<path d="M240 9.23695C249.9 3.5207 262.099 3.52071 272 9.23696L461.702 118.762C471.603 124.478 477.702 135.042 477.702 146.475L477.702 365.524C477.702 376.957 471.603 387.521 461.702 393.237L272 502.762C262.099 508.478 249.9 508.478 240 502.762L50.2969 393.237C40.396 387.521 34.2969 376.957 34.2969 365.524L34.2969 146.475C34.2969 135.042 40.396 124.478 50.2969 118.762L240 9.23695Z" fill="url(#paint0_linear_261_3)"/>
<g filter="url(#filter0_d_261_3)">
<path d="M242.498 47.7664C250.853 42.9427 261.147 42.9427 269.501 47.7664L429.584 140.19C437.939 145.014 443.085 153.928 443.085 163.576V348.423C443.085 358.07 437.939 366.985 429.584 371.808L269.501 464.232C261.147 469.055 250.853 469.055 242.498 464.232L82.4158 371.808C74.0609 366.985 68.9141 358.07 68.9141 348.423V163.576C68.9141 153.928 74.0609 145.014 82.4158 140.19L242.498 47.7664Z" fill="#FFCCE7"/>
</g>
<mask id="mask0_261_3" style="mask-type:alpha" maskUnits="userSpaceOnUse" x="68" y="44" width="376" height="424">
<path d="M242.498 47.7662C250.853 42.9425 261.147 42.9425 269.501 47.7662L429.584 140.19C437.939 145.013 443.085 153.928 443.085 163.575V348.422C443.085 358.07 437.939 366.984 429.584 371.808L269.501 464.232C261.147 469.055 250.853 469.055 242.498 464.232L82.4158 371.808C74.0609 366.984 68.9141 358.07 68.9141 348.422V163.575C68.9141 153.928 74.0609 145.013 82.4158 140.19L242.498 47.7662Z" fill="url(#paint1_linear_261_3)"/>
</mask>
<g mask="url(#mask0_261_3)">
<path d="M447.953 -10.1206L308.958 217.243L567.714 153.531L321.624 255.773L568.411 356.322L309.223 294.389L449.777 520.793L276.493 318.341L257.126 584.121L235.934 318.481L64.0453 522.118L203.04 294.754L-55.7156 358.466L190.375 256.224L-56.4121 155.675L202.775 217.608L62.2219 -8.79584L235.506 193.655L254.872 -72.1241L276.064 193.516L447.953 -10.1206Z" fill="white" fill-opacity="0.32"/>
</g>
<path d="M104.072 302.874C106.253 309.505 111.454 314.707 118.086 316.888C111.454 319.068 106.253 324.27 104.072 330.901C101.891 324.27 96.69 319.068 90.0586 316.888C96.69 314.707 101.891 309.505 104.072 302.874Z" fill="white"/>
<path d="M405.16 217.265C407.069 223.071 411.623 227.624 417.429 229.534C411.623 231.443 407.069 235.997 405.16 241.803C403.25 235.997 398.697 231.443 392.891 229.534C398.697 227.624 403.25 223.071 405.16 217.265Z" fill="white"/>
<path d="M159.469 144.427C161.378 150.234 165.932 154.787 171.738 156.697C165.932 158.606 161.378 163.16 159.469 168.966C157.559 163.16 153.005 158.606 147.199 156.697C153.005 154.787 157.559 150.234 159.469 144.427Z" fill="white"/>
<path d="M370.265 99.7552C373.125 108.45 379.945 115.27 388.64 118.13C379.945 120.99 373.125 127.81 370.265 136.505C367.406 127.81 360.586 120.99 351.891 118.13C360.586 115.27 367.406 108.45 370.265 99.7552Z" fill="white"/>
<g filter="url(#filter1_d_261_3)">
<path d="M256.082 52.6711C249.729 52.6711 243.637 55.1947 239.145 59.6866C234.653 64.1786 232.129 70.2711 232.129 76.6237C232.129 89.9174 242.788 100.576 256.082 100.576C269.376 100.576 280.034 89.9174 280.034 76.6237C280.034 70.2711 277.511 64.1786 273.019 59.6866C268.527 55.1947 262.435 52.6711 256.082 52.6711ZM232.129 112.553C228.896 112.553 226.141 113.87 223.866 115.906H223.746L160.271 179.5L177.278 196.387L220.153 153.392V220.339H244.106H268.058H292.011V153.392L334.886 196.387L351.892 179.5L288.418 115.906C286.023 113.87 283.268 112.553 280.034 112.553" fill="url(#paint2_linear_261_3)"/>
</g>
<g filter="url(#filter2_d_261_3)">
<path d="M52.9277 256.303C52.9277 262.656 55.4513 268.748 59.9433 273.24C64.4353 277.732 70.5277 280.256 76.8803 280.256C90.174 280.256 100.833 269.597 100.833 256.303C100.833 243.01 90.174 232.351 76.8803 232.351C70.5277 232.351 64.4353 234.874 59.9433 239.366C55.4513 243.858 52.9277 249.951 52.9277 256.303ZM112.809 280.256C112.809 283.49 114.127 286.244 116.163 288.52L116.163 288.639L179.757 352.114L196.643 335.107L153.648 292.232L220.596 292.232L220.596 268.28L220.596 244.327L220.596 220.374L153.648 220.374L196.643 177.499L179.757 160.493L116.163 223.967C114.127 226.363 112.809 229.117 112.809 232.351" fill="url(#paint3_linear_261_3)"/>
</g>
<g filter="url(#filter3_d_261_3)">
<path d="M256.081 459.329C262.434 459.329 268.526 456.805 273.018 452.313C277.51 447.821 280.034 441.729 280.034 435.376C280.034 422.083 269.375 411.424 256.081 411.424C242.788 411.424 232.129 422.083 232.129 435.376C232.129 441.729 234.652 447.821 239.144 452.313C243.636 456.805 249.729 459.329 256.081 459.329ZM280.034 399.447C283.267 399.447 286.022 398.13 288.297 396.094L288.417 396.094L351.892 332.5L334.885 315.613L292.01 358.608L292.01 291.661L268.058 291.661L244.105 291.661L220.152 291.661L220.152 358.608L177.277 315.613L160.271 332.5L223.745 396.094C226.14 398.13 228.895 399.447 232.129 399.447" fill="url(#paint4_linear_261_3)"/>
</g>
<g filter="url(#filter4_d_261_3)">
<path d="M459.072 256.301C459.072 249.949 456.549 243.856 452.057 239.364C447.565 234.872 441.472 232.349 435.12 232.349C421.826 232.349 411.167 243.008 411.167 256.301C411.167 269.595 421.826 280.254 435.12 280.254C441.472 280.254 447.565 277.73 452.057 273.239C456.549 268.747 459.072 262.654 459.072 256.301ZM399.191 232.349C399.191 229.115 397.873 226.361 395.837 224.085L395.837 223.965L332.243 160.491L315.357 177.497L358.352 220.373L291.404 220.373L291.404 244.325L291.404 268.278L291.404 292.23L358.352 292.23L315.357 335.106L332.243 352.112L395.837 288.637C397.873 286.242 399.191 283.488 399.191 280.254" fill="url(#paint5_linear_261_3)"/>
</g>
<circle cx="255.998" cy="256" r="80.8413" fill="url(#paint6_linear_261_3)"/>
<g filter="url(#filter5_i_261_3)">
<path d="M261.896 290.454H273.425V301.983H261.896V290.454ZM261.896 267.395H273.425V278.924H261.896V267.395ZM244.602 301.983H261.896V313.513H244.602V301.983Z" fill="white"/>
</g>
<g filter="url(#filter6_i_261_3)">
<path d="M256.133 175.158C240.17 175.158 224.567 179.892 211.294 188.76C198.022 197.628 187.678 210.233 181.569 224.98C175.461 239.727 173.862 255.955 176.977 271.61C180.091 287.266 187.777 301.647 199.064 312.934C210.351 324.221 224.732 331.907 240.388 335.021C256.043 338.135 272.271 336.537 287.018 330.429C301.765 324.32 314.37 313.976 323.238 300.704C332.106 287.431 336.84 271.828 336.84 255.865C336.815 234.468 328.304 213.954 313.174 198.824C298.044 183.693 277.53 175.183 256.133 175.158ZM190.991 278.924H198.485L222.564 293.913C223.836 294.703 225.364 294.969 226.828 294.652C228.291 294.336 229.574 293.463 230.405 292.218L236.215 283.502C236.953 282.393 237.285 281.063 237.154 279.738C237.022 278.413 236.436 277.174 235.495 276.232L221.544 262.276L227.309 244.336H257.995C259.146 244.335 260.271 243.99 261.224 243.345C262.178 242.7 262.916 241.784 263.345 240.715L272.464 217.916C272.767 217.159 272.906 216.348 272.872 215.534C272.839 214.72 272.633 213.923 272.268 213.194L259.09 186.838C270.975 187.313 282.535 190.854 292.648 197.116C302.76 203.378 311.082 212.149 316.804 222.576C322.526 233.004 325.454 244.734 325.304 256.628C325.154 268.521 321.931 280.174 315.948 290.454H296.486C294.957 290.454 293.491 291.061 292.41 292.142C291.329 293.223 290.721 294.69 290.721 296.219V315.686C281.945 320.795 272.148 323.902 262.031 324.784C251.914 325.667 241.728 324.303 232.199 320.791C222.671 317.278 214.036 311.704 206.912 304.467C199.788 297.229 194.352 288.507 190.991 278.924Z" fill="white"/>
</g>
</g>
<defs>
<filter id="filter0_d_261_3" x="59.9141" y="39.1486" width="392.171" height="441.701" filterUnits="userSpaceOnUse" color-interpolation-filters="sRGB">
<feFlood flood-opacity="0" result="BackgroundImageFix"/>
<feColorMatrix in="SourceAlpha" type="matrix" values="0 0 0 0 0 0 0 0 0 0 0 0 0 0 0 0 0 0 127 0" result="hardAlpha"/>
<feOffset dy="4"/>
<feGaussianBlur stdDeviation="4.5"/>
<feComposite in2="hardAlpha" operator="out"/>
<feColorMatrix type="matrix" values="0 0 0 0 0 0 0 0 0 0 0 0 0 0 0 0 0 0 0.25 0"/>
<feBlend mode="normal" in2="BackgroundImageFix" result="effect1_dropShadow_261_3"/>
<feBlend mode="normal" in="SourceGraphic" in2="effect1_dropShadow_261_3" result="shape"/>
</filter>
<filter id="filter1_d_261_3" x="134.271" y="28.6711" width="277.621" height="253.668" filterUnits="userSpaceOnUse" color-interpolation-filters="sRGB">
<feFlood flood-opacity="0" result="BackgroundImageFix"/>
<feColorMatrix in="SourceAlpha" type="matrix" values="0 0 0 0 0 0 0 0 0 0 0 0 0 0 0 0 0 0 127 0" result="hardAlpha"/>
<feOffset dx="17" dy="19"/>
<feGaussianBlur stdDeviation="21.5"/>
<feComposite in2="hardAlpha" operator="out"/>
<feColorMatrix type="matrix" values="0 0 0 0 0 0 0 0 0 0 0 0 0 0 0 0 0 0 0.25 0"/>
<feBlend mode="normal" in2="BackgroundImageFix" result="effect1_dropShadow_261_3"/>
<feBlend mode="normal" in="SourceGraphic" in2="effect1_dropShadow_261_3" result="shape"/>
</filter>
<filter id="filter2_d_261_3" x="26.9277" y="136.493" width="253.668" height="277.621" filterUnits="userSpaceOnUse" color-interpolation-filters="sRGB">
<feFlood flood-opacity="0" result="BackgroundImageFix"/>
<feColorMatrix in="SourceAlpha" type="matrix" values="0 0 0 0 0 0 0 0 0 0 0 0 0 0 0 0 0 0 127 0" result="hardAlpha"/>
<feOffset dx="17" dy="19"/>
<feGaussianBlur stdDeviation="21.5"/>
<feComposite in2="hardAlpha" operator="out"/>
<feColorMatrix type="matrix" values="0 0 0 0 0 0 0 0 0 0 0 0 0 0 0 0 0 0 0.25 0"/>
<feBlend mode="normal" in2="BackgroundImageFix" result="effect1_dropShadow_261_3"/>
<feBlend mode="normal" in="SourceGraphic" in2="effect1_dropShadow_261_3" result="shape"/>
</filter>
<filter id="filter3_d_261_3" x="134.271" y="267.661" width="277.621" height="253.668" filterUnits="userSpaceOnUse" color-interpolation-filters="sRGB">
<feFlood flood-opacity="0" result="BackgroundImageFix"/>
<feColorMatrix in="SourceAlpha" type="matrix" values="0 0 0 0 0 0 0 0 0 0 0 0 0 0 0 0 0 0 127 0" result="hardAlpha"/>
<feOffset dx="17" dy="19"/>
<feGaussianBlur stdDeviation="21.5"/>
<feComposite in2="hardAlpha" operator="out"/>
<feColorMatrix type="matrix" values="0 0 0 0 0 0 0 0 0 0 0 0 0 0 0 0 0 0 0.25 0"/>
<feBlend mode="normal" in2="BackgroundImageFix" result="effect1_dropShadow_261_3"/>
<feBlend mode="normal" in="SourceGraphic" in2="effect1_dropShadow_261_3" result="shape"/>
</filter>
<filter id="filter4_d_261_3" x="265.404" y="136.491" width="253.668" height="277.621" filterUnits="userSpaceOnUse" color-interpolation-filters="sRGB">
<feFlood flood-opacity="0" result="BackgroundImageFix"/>
<feColorMatrix in="SourceAlpha" type="matrix" values="0 0 0 0 0 0 0 0 0 0 0 0 0 0 0 0 0 0 127 0" result="hardAlpha"/>
<feOffset dx="17" dy="19"/>
<feGaussianBlur stdDeviation="21.5"/>
<feComposite in2="hardAlpha" operator="out"/>
<feColorMatrix type="matrix" values="0 0 0 0 0 0 0 0 0 0 0 0 0 0 0 0 0 0 0.25 0"/>
<feBlend mode="normal" in2="BackgroundImageFix" result="effect1_dropShadow_261_3"/>
<feBlend mode="normal" in="SourceGraphic" in2="effect1_dropShadow_261_3" result="shape"/>
</filter>
<filter id="filter5_i_261_3" x="244.602" y="267.395" width="29.8242" height="47.1183" filterUnits="userSpaceOnUse" color-interpolation-filters="sRGB">
<feFlood flood-opacity="0" result="BackgroundImageFix"/>
<feBlend mode="normal" in="SourceGraphic" in2="BackgroundImageFix" result="shape"/>
<feColorMatrix in="SourceAlpha" type="matrix" values="0 0 0 0 0 0 0 0 0 0 0 0 0 0 0 0 0 0 127 0" result="hardAlpha"/>
<feOffset dx="1" dy="1"/>
<feGaussianBlur stdDeviation="1.5"/>
<feComposite in2="hardAlpha" operator="arithmetic" k2="-1" k3="1"/>
<feColorMatrix type="matrix" values="0 0 0 0 0 0 0 0 0 0 0 0 0 0 0 0 0 0 0.12 0"/>
<feBlend mode="normal" in2="shape" result="effect1_innerShadow_261_3"/>
</filter>
<filter id="filter6_i_261_3" x="175.426" y="170.158" width="161.414" height="166.414" filterUnits="userSpaceOnUse" color-interpolation-filters="sRGB">
<feFlood flood-opacity="0" result="BackgroundImageFix"/>
<feBlend mode="normal" in="SourceGraphic" in2="BackgroundImageFix" result="shape"/>
<feColorMatrix in="SourceAlpha" type="matrix" values="0 0 0 0 0 0 0 0 0 0 0 0 0 0 0 0 0 0 127 0" result="hardAlpha"/>
<feOffset dy="-5"/>
<feGaussianBlur stdDeviation="5.5"/>
<feComposite in2="hardAlpha" operator="arithmetic" k2="-1" k3="1"/>
<feColorMatrix type="matrix" values="0 0 0 0 0.996078 0 0 0 0 0.760784 0 0 0 0 0.00392157 0 0 0 0.12 0"/>
<feBlend mode="normal" in2="shape" result="effect1_innerShadow_261_3"/>
</filter>
<linearGradient id="paint0_linear_261_3" x1="256" y1="4.94977" x2="256" y2="507.049" gradientUnits="userSpaceOnUse">
<stop stop-color="#F9326B"/>
<stop offset="1" stop-color="#FE8AB7"/>
</linearGradient>
<linearGradient id="paint1_linear_261_3" x1="256" y1="44.1484" x2="256" y2="467.849" gradientUnits="userSpaceOnUse">
<stop stop-color="#52F3AD"/>
<stop offset="1" stop-color="#CCFAFF"/>
</linearGradient>
<linearGradient id="paint2_linear_261_3" x1="256.082" y1="52.6711" x2="256.082" y2="220.339" gradientUnits="userSpaceOnUse">
<stop stop-color="#EC000E"/>
<stop offset="1" stop-color="#FF639B"/>
</linearGradient>
<linearGradient id="paint3_linear_261_3" x1="52.9277" y1="256.303" x2="220.596" y2="256.303" gradientUnits="userSpaceOnUse">
<stop stop-color="#300398"/>
<stop offset="1" stop-color="#BC9EFF"/>
</linearGradient>
<linearGradient id="paint4_linear_261_3" x1="256.081" y1="459.329" x2="256.081" y2="291.661" gradientUnits="userSpaceOnUse">
<stop stop-color="#EC000E"/>
<stop offset="1" stop-color="#FF639B"/>
</linearGradient>
<linearGradient id="paint5_linear_261_3" x1="459.072" y1="256.301" x2="291.404" y2="256.301" gradientUnits="userSpaceOnUse">
<stop stop-color="#300398"/>
<stop offset="1" stop-color="#BC9EFF"/>
</linearGradient>
<linearGradient id="paint6_linear_261_3" x1="267.083" y1="308.504" x2="332.141" y2="198.35" gradientUnits="userSpaceOnUse">
<stop stop-color="#FEA901"/>
<stop offset="1" stop-color="#FEE501"/>
</linearGradient>
<clipPath id="clip0_261_3">
<rect width="512" height="512" fill="white"/>
</clipPath>
</defs>
</svg>
