<svg width="512" height="512" viewBox="0 0 512 512" fill="none" xmlns="http://www.w3.org/2000/svg">
<path d="M240 9.23695C249.9 3.5207 262.099 3.52071 272 9.23696L461.702 118.762C471.603 124.478 477.702 135.042 477.702 146.475L477.702 365.524C477.702 376.957 471.603 387.521 461.702 393.237L272 502.762C262.099 508.478 249.9 508.478 240 502.762L50.2969 393.237C40.396 387.521 34.2969 376.957 34.2969 365.524L34.2969 146.475C34.2969 135.042 40.396 124.478 50.2969 118.762L240 9.23695Z" fill="url(#paint0_linear_261_33)"/>
<g filter="url(#filter0_d_261_33)">
<path d="M242.498 47.7664C250.853 42.9427 261.147 42.9427 269.501 47.7664L429.584 140.19C437.939 145.014 443.085 153.928 443.085 163.576V348.423C443.085 358.07 437.939 366.985 429.584 371.808L269.501 464.232C261.147 469.055 250.853 469.055 242.498 464.232L82.4158 371.808C74.0609 366.985 68.9141 358.07 68.9141 348.423V163.576C68.9141 153.928 74.0609 145.014 82.4158 140.19L242.498 47.7664Z" fill="#FFCCE7"/>
</g>
<mask id="mask0_261_33" style="mask-type:alpha" maskUnits="userSpaceOnUse" x="68" y="44" width="376" height="424">
<path d="M242.498 47.7662C250.853 42.9425 261.147 42.9425 269.501 47.7662L429.584 140.19C437.939 145.013 443.085 153.928 443.085 163.575V348.422C443.085 358.07 437.939 366.984 429.584 371.808L269.501 464.232C261.147 469.055 250.853 469.055 242.498 464.232L82.4158 371.808C74.0609 366.984 68.9141 358.07 68.9141 348.422V163.575C68.9141 153.928 74.0609 145.013 82.4158 140.19L242.498 47.7662Z" fill="url(#paint1_linear_261_33)"/>
</mask>
<g mask="url(#mask0_261_33)">
<path d="M447.953 -10.1206L308.958 217.243L567.714 153.531L321.624 255.773L568.411 356.322L309.223 294.389L449.777 520.793L276.493 318.341L257.126 584.121L235.934 318.481L64.0453 522.118L203.04 294.754L-55.7156 358.466L190.375 256.224L-56.4121 155.675L202.775 217.608L62.2219 -8.79584L235.506 193.655L254.872 -72.1241L276.064 193.516L447.953 -10.1206Z" fill="white" fill-opacity="0.32"/>
</g>
<path d="M104.072 302.874C106.253 309.505 111.454 314.707 118.086 316.888C111.454 319.068 106.253 324.27 104.072 330.901C101.891 324.27 96.69 319.068 90.0586 316.888C96.69 314.707 101.891 309.505 104.072 302.874Z" fill="white"/>
<path d="M405.16 217.265C407.069 223.071 411.623 227.624 417.429 229.534C411.623 231.443 407.069 235.997 405.16 241.803C403.25 235.997 398.697 231.443 392.891 229.534C398.697 227.624 403.25 223.071 405.16 217.265Z" fill="white"/>
<path d="M159.469 144.427C161.378 150.234 165.932 154.787 171.738 156.697C165.932 158.606 161.378 163.16 159.469 168.966C157.559 163.16 153.005 158.606 147.199 156.697C153.005 154.787 157.559 150.234 159.469 144.427Z" fill="white"/>
<g filter="url(#filter1_d_261_33)">
<path d="M284.861 258.22L261.663 281.196C258.545 284.284 253.521 284.284 250.403 281.196L227.205 258.22C225.304 256.37 223.806 254.146 222.806 251.689C221.806 249.231 221.326 246.593 221.396 243.941C221.466 241.289 222.084 238.68 223.212 236.278C224.34 233.876 225.953 231.734 227.949 229.987C229.945 228.239 232.282 226.924 234.811 226.123C237.341 225.323 240.009 225.055 242.647 225.337C245.285 225.618 247.836 226.443 250.14 227.759C252.444 229.075 254.45 230.853 256.033 232.983C257.623 230.869 259.631 229.106 261.933 227.804C264.236 226.502 266.782 225.689 269.413 225.416C272.043 225.144 274.702 225.417 277.223 226.219C279.743 227.021 282.07 228.335 284.06 230.078C286.049 231.821 287.657 233.956 288.783 236.349C289.909 238.742 290.529 241.342 290.605 243.986C290.68 246.63 290.208 249.261 289.22 251.714C288.232 254.167 286.748 256.39 284.861 258.244" fill="url(#paint2_radial_261_33)"/>
</g>
<path d="M202.964 144.428C205.823 153.123 212.643 159.943 221.339 162.803C212.643 165.662 205.823 172.482 202.964 181.177C200.104 172.482 193.284 165.662 184.589 162.803C193.284 159.943 200.104 153.123 202.964 144.428Z" fill="white"/>
<g filter="url(#filter2_i_261_33)">
<g filter="url(#filter3_d_261_33)">
<path d="M456.505 256.041C456.505 229.475 423.239 204.295 372.228 188.689C384.007 136.709 378.778 95.3391 355.72 82.0893C350.133 78.9601 343.809 77.3851 337.407 77.5279V95.7401C341.167 95.7401 344.191 96.492 346.731 97.8788C357.842 104.261 362.671 128.522 358.911 159.75C358.009 167.436 356.539 175.523 354.734 183.777C337.652 179.661 320.315 176.686 302.838 174.871C292.426 160.507 281.067 146.854 268.836 134.003C295.486 109.241 320.498 95.6733 337.508 95.6733V77.4443C315.018 77.4443 285.594 93.4678 255.837 121.254C226.096 93.6516 196.655 77.7785 174.182 77.7785V95.9907C191.108 95.9907 216.204 109.491 242.854 134.086C231.409 146.116 219.964 159.75 209.086 174.871C191.573 176.666 174.205 179.669 157.106 183.861C155.299 176.038 153.877 168.131 152.846 160.168C149.003 128.923 153.748 104.662 164.792 98.213C167.232 96.7426 170.423 96.0743 174.182 96.0743V77.862C167.332 77.862 161.1 79.3324 155.719 82.4235C132.745 95.6733 127.599 136.943 139.445 188.773C88.6015 204.479 55.502 229.558 55.502 256.041C55.502 282.608 88.7685 307.787 139.78 323.376C128 375.373 133.23 416.743 156.287 429.977C161.601 433.084 167.816 434.555 174.667 434.555C197.156 434.555 226.58 418.531 256.338 390.745C286.079 418.364 315.503 434.22 337.992 434.22C344.443 434.357 350.815 432.777 356.455 429.642C379.429 416.409 384.575 375.139 372.729 323.31C423.406 307.704 456.505 282.524 456.505 256.041ZM350.072 201.521C346.898 212.446 343.218 223.218 339.045 233.802C332.214 220.515 324.713 207.583 316.572 195.055C328.184 196.776 339.379 198.898 350.089 201.521H350.072ZM312.645 288.573C306.526 299.257 299.953 309.676 292.946 319.801C268.422 321.962 243.757 321.99 219.228 319.884C205.159 299.787 192.855 278.51 182.453 256.292C192.839 234.021 205.091 212.67 219.078 192.465C243.596 190.3 268.255 190.266 292.779 192.365C299.563 202.09 306.196 212.482 312.562 223.443C318.777 234.136 324.425 244.997 329.571 255.958C324.368 267.051 318.721 277.932 312.645 288.573ZM339.045 277.946C343.456 288.89 347.232 299.851 350.323 310.477C339.63 313.101 328.335 315.306 316.655 317.011C324.763 304.369 332.236 291.332 339.045 277.946ZM256.171 365.164C248.568 357.311 240.966 348.573 233.447 338.999C240.799 339.333 248.318 339.584 255.92 339.584C263.606 339.584 271.208 339.417 278.644 338.999C271.292 348.573 263.69 357.311 256.171 365.164ZM195.352 317.011C184.086 315.378 172.902 313.226 161.835 310.561C164.859 300.018 168.618 289.141 172.862 278.28C176.221 284.797 179.746 291.346 183.589 297.896C187.432 304.429 191.342 310.812 195.352 317.011ZM255.753 146.918C263.355 154.771 270.958 163.51 278.477 173.084C271.125 172.749 263.606 172.499 256.004 172.499C248.318 172.499 240.715 172.666 233.28 173.084C240.632 163.51 248.234 154.771 255.753 146.918ZM195.268 195.072C187.163 207.686 179.69 220.696 172.879 234.053C168.589 223.401 164.825 212.544 161.601 201.521C172.294 198.982 183.589 196.776 195.268 195.072ZM121.3 297.395C92.3609 285.064 73.6474 268.873 73.6474 256.041C73.6474 243.209 92.3609 226.935 121.3 214.688C128.318 211.664 136.003 208.957 143.94 206.434C148.602 222.441 154.734 239.116 162.319 256.208C155.157 272.285 149.1 288.831 144.191 305.732C136.429 303.329 128.789 300.546 121.3 297.395ZM165.277 414.187C154.166 407.838 149.337 383.544 153.096 352.332C153.998 344.646 155.469 336.543 157.273 328.289C173.28 332.215 190.774 335.239 209.17 337.211C219.582 351.575 230.941 365.228 243.172 378.08C216.522 402.842 191.509 416.409 174.5 416.409C171.291 416.444 168.123 415.687 165.277 414.204V414.187ZM359.162 351.915C363.005 383.143 358.26 407.42 347.215 413.87C344.776 415.34 341.585 415.992 337.825 415.992C320.899 415.992 295.803 402.508 269.153 377.896C281.333 365.099 292.615 351.477 302.921 337.128C320.434 335.334 337.803 332.33 354.901 328.138C356.789 336.392 358.243 344.312 359.162 351.915ZM390.624 297.395C383.606 300.419 375.92 303.126 367.984 305.649C362.988 288.661 356.847 272.032 349.605 255.874C357.123 238.882 363.155 222.29 367.733 206.35C375.52 208.762 383.187 211.544 390.707 214.688C419.647 227.019 438.36 243.209 438.36 256.041C438.276 268.873 419.563 285.147 390.624 297.395Z" fill="url(#paint3_linear_261_33)"/>
</g>
</g>
<defs>
<filter id="filter0_d_261_33" x="59.9141" y="39.1486" width="392.171" height="441.701" filterUnits="userSpaceOnUse" color-interpolation-filters="sRGB">
<feFlood flood-opacity="0" result="BackgroundImageFix"/>
<feColorMatrix in="SourceAlpha" type="matrix" values="0 0 0 0 0 0 0 0 0 0 0 0 0 0 0 0 0 0 127 0" result="hardAlpha"/>
<feOffset dy="4"/>
<feGaussianBlur stdDeviation="4.5"/>
<feComposite in2="hardAlpha" operator="out"/>
<feColorMatrix type="matrix" values="0 0 0 0 0 0 0 0 0 0 0 0 0 0 0 0 0 0 0.25 0"/>
<feBlend mode="normal" in2="BackgroundImageFix" result="effect1_dropShadow_261_33"/>
<feBlend mode="normal" in="SourceGraphic" in2="effect1_dropShadow_261_33" result="shape"/>
</filter>
<filter id="filter1_d_261_33" x="174.39" y="220.228" width="163.223" height="152.284" filterUnits="userSpaceOnUse" color-interpolation-filters="sRGB">
<feFlood flood-opacity="0" result="BackgroundImageFix"/>
<feColorMatrix in="SourceAlpha" type="matrix" values="0 0 0 0 0 0 0 0 0 0 0 0 0 0 0 0 0 0 127 0" result="hardAlpha"/>
<feOffset dy="42"/>
<feGaussianBlur stdDeviation="23.5"/>
<feComposite in2="hardAlpha" operator="out"/>
<feColorMatrix type="matrix" values="0 0 0 0 0 0 0 0 0 0 0 0 0 0 0 0 0 0 0.25 0"/>
<feBlend mode="normal" in2="BackgroundImageFix" result="effect1_dropShadow_261_33"/>
<feBlend mode="normal" in="SourceGraphic" in2="effect1_dropShadow_261_33" result="shape"/>
</filter>
<filter id="filter2_i_261_33" x="55.502" y="73.4443" width="401.004" height="361.11" filterUnits="userSpaceOnUse" color-interpolation-filters="sRGB">
<feFlood flood-opacity="0" result="BackgroundImageFix"/>
<feBlend mode="normal" in="SourceGraphic" in2="BackgroundImageFix" result="shape"/>
<feColorMatrix in="SourceAlpha" type="matrix" values="0 0 0 0 0 0 0 0 0 0 0 0 0 0 0 0 0 0 127 0" result="hardAlpha"/>
<feOffset dy="-7"/>
<feGaussianBlur stdDeviation="2"/>
<feComposite in2="hardAlpha" operator="arithmetic" k2="-1" k3="1"/>
<feColorMatrix type="matrix" values="0 0 0 0 0.270588 0 0 0 0 0.101961 0 0 0 0 0.654902 0 0 0 0.67 0"/>
<feBlend mode="normal" in2="shape" result="effect1_innerShadow_261_33"/>
</filter>
<filter id="filter3_d_261_33" x="33.502" y="70.4443" width="445.004" height="401.11" filterUnits="userSpaceOnUse" color-interpolation-filters="sRGB">
<feFlood flood-opacity="0" result="BackgroundImageFix"/>
<feColorMatrix in="SourceAlpha" type="matrix" values="0 0 0 0 0 0 0 0 0 0 0 0 0 0 0 0 0 0 127 0" result="hardAlpha"/>
<feOffset dy="15"/>
<feGaussianBlur stdDeviation="11"/>
<feComposite in2="hardAlpha" operator="out"/>
<feColorMatrix type="matrix" values="0 0 0 0 0.513725 0 0 0 0 0.372549 0 0 0 0 0.835294 0 0 0 0.4 0"/>
<feBlend mode="normal" in2="BackgroundImageFix" result="effect1_dropShadow_261_33"/>
<feBlend mode="normal" in="SourceGraphic" in2="effect1_dropShadow_261_33" result="shape"/>
</filter>
<linearGradient id="paint0_linear_261_33" x1="256" y1="4.94977" x2="256" y2="507.049" gradientUnits="userSpaceOnUse">
<stop stop-color="#F9326B"/>
<stop offset="1" stop-color="#FE8AB7"/>
</linearGradient>
<linearGradient id="paint1_linear_261_33" x1="256" y1="44.1484" x2="256" y2="467.849" gradientUnits="userSpaceOnUse">
<stop stop-color="#52F3AD"/>
<stop offset="1" stop-color="#CCFAFF"/>
</linearGradient>
<radialGradient id="paint2_radial_261_33" cx="0" cy="0" r="1" gradientUnits="userSpaceOnUse" gradientTransform="translate(229.357 241.274) rotate(31.1198) scale(71.5526 51.9557)">
<stop offset="0.203125" stop-color="#FE3260"/>
<stop offset="1" stop-color="#A70021"/>
</radialGradient>
<linearGradient id="paint3_linear_261_33" x1="256.004" y1="77.4443" x2="256.004" y2="434.555" gradientUnits="userSpaceOnUse">
<stop stop-color="#300398"/>
<stop offset="1" stop-color="#BC9EFF"/>
</linearGradient>
</defs>
</svg>
